# 3ds Max Wavefront OBJ Exporter v0.97b - (c)2007 guruware
# File Created: 03.06.2025 15:32:31

#
# object InnerCorner
#

v  -11.4831 273.4755 30.8206
v  -11.4832 267.4499 61.1137
v  -0.0001 267.4499 61.1137
v  -0.0001 273.4756 30.8205
v  -11.4832 257.5216 90.3613
v  -0.0001 257.5216 90.3613
v  -0.0001 243.8608 118.0627
v  -11.4832 243.8608 118.0627
v  -11.4832 226.7011 143.7441
v  -0.0001 226.7011 143.7441
v  -0.0002 206.3361 166.9659
v  -11.4833 206.3361 166.9659
v  -11.4833 183.1142 187.3309
v  -0.0002 183.1142 187.3309
v  -0.0002 157.4329 204.4906
v  -11.4834 157.4329 204.4906
v  -11.4834 147.6378 209.3212
v  -11.4834 129.7314 218.1514
v  -0.0002 129.7314 218.1514
v  -11.4834 137.7954 214.1770
v  -0.0002 100.4839 228.0797
v  -11.4834 100.4839 228.0797
v  -0.0003 70.1907 234.1054
v  -11.4834 70.1907 234.1054
v  0.0000 39.3701 236.2204
v  -11.4832 49.2126 235.1629
v  -11.4831 39.3701 236.2204
v  0.0000 275.4956 -0.0001
v  -11.4831 274.7431 11.4831
v  -209.3206 147.6378 209.3206
v  -214.1764 137.7954 214.1763
v  -235.1622 49.2126 235.1622
v  -236.2198 39.3701 236.2197
v  -30.8206 273.4755 11.4830
v  -30.8205 273.4756 -0.0001
v  -61.1137 267.4499 0.0000
v  -61.1137 267.4499 11.4830
v  -90.3613 257.5216 0.0000
v  -90.3613 257.5216 11.4831
v  -118.0627 243.8608 0.0000
v  -118.0627 243.8608 11.4831
v  -143.7440 226.7011 0.0000
v  -143.7440 226.7011 11.4831
v  -166.9659 206.3361 0.0001
v  -166.9659 206.3361 11.4832
v  -187.3309 183.1142 0.0001
v  -187.3309 183.1142 11.4832
v  -204.4906 157.4329 0.0001
v  -204.4906 157.4329 11.4832
v  -209.3212 147.6378 11.4832
v  -218.1514 129.7314 11.4832
v  -214.1769 137.7954 11.4832
v  -218.1514 129.7314 0.0001
v  -228.0797 100.4839 0.0001
v  -228.0797 100.4839 11.4832
v  -234.1054 70.1907 0.0002
v  -234.1053 70.1907 11.4832
v  -236.2204 39.3701 -0.0001
v  -235.1629 49.2126 11.4831
v  -236.2204 39.3701 11.4830
v  0.0000 273.4756 30.8205
v  -11.4831 267.4499 61.1137
v  -11.4833 157.4329 204.4906
v  -11.4833 147.6378 209.3212
v  -11.4833 129.7314 218.1514
v  -11.4833 137.7954 214.1770
v  -11.4833 100.4839 228.0797
v  -0.0002 70.1907 234.1054
v  -11.4830 39.3701 236.2204
v  -30.8205 273.4755 11.4830
v  -236.2203 0.0000 236.2205
v  -236.2203 39.3701 236.2205
v  0.0000 0.0000 236.2205
v  -236.2205 0.0000 0.0000
v  -236.2205 39.3701 0.0000
# 75 vertices

vn -0.0000 0.9914 0.1305
vn 0.0000 0.9659 0.2588
vn 0.0000 0.9659 0.2588
vn -0.0000 0.9914 0.1305
vn 0.0000 0.9659 0.2588
vn -0.0000 0.9239 0.3827
vn -0.0000 0.9239 0.3827
vn 0.0000 0.9659 0.2588
vn 0.0000 0.8660 0.5000
vn -0.0000 0.9239 0.3827
vn -0.0000 0.9239 0.3827
vn 0.0000 0.8660 0.5000
vn 0.0000 0.8660 0.5000
vn 0.0000 0.7934 0.6088
vn 0.0000 0.7934 0.6088
vn 0.0000 0.8660 0.5000
vn -0.0000 0.7071 0.7071
vn 0.0000 0.7934 0.6088
vn 0.0000 0.7934 0.6088
vn -0.0000 0.7071 0.7071
vn -0.0000 0.7071 0.7071
vn -0.0000 0.6088 0.7934
vn -0.0000 0.6088 0.7934
vn -0.0000 0.7071 0.7071
vn 0.0000 0.5000 0.8660
vn -0.0000 0.6088 0.7934
vn -0.0000 0.6088 0.7934
vn -0.0000 0.5000 0.8660
vn 0.0000 0.5000 0.8660
vn -0.0000 0.5000 0.8660
vn -0.0001 0.4424 0.8968
vn 0.0000 0.3826 0.9239
vn 0.0001 0.3826 0.9239
vn 0.0002 0.4424 0.8968
vn 0.0000 0.2588 0.9659
vn 0.0001 0.3826 0.9239
vn 0.0000 0.3826 0.9239
vn 0.0000 0.2588 0.9659
vn -0.0000 0.1320 0.9912
vn 0.0000 0.2588 0.9659
vn 0.0000 0.2588 0.9659
vn -0.0000 0.1231 0.9924
vn -0.0193 0.0877 0.9960
vn -0.0000 0.1320 0.9912
vn -0.0000 0.1231 0.9924
vn -0.0285 0.0786 0.9965
vn -0.0000 0.1068 0.9943
vn -0.0193 0.0877 0.9960
vn -0.0285 0.0786 0.9965
vn 0.0002 0.4424 0.8968
vn 0.0001 0.3826 0.9239
vn 0.0000 0.5000 0.8660
vn -0.0001 0.4424 0.8968
vn -0.0419 0.9987 0.0295
vn -0.0369 0.9987 0.0338
vn -0.0000 0.9914 0.1305
vn -0.0000 0.9914 0.1305
vn -0.6112 0.5427 0.5761
vn -0.5850 0.5441 0.6015
vn 0.0002 0.4424 0.8968
vn -0.0001 0.4424 0.8968
vn -0.7039 0.1397 0.6964
vn -0.6971 0.1398 0.7033
vn -0.0000 0.1068 0.9943
vn -0.0285 0.0786 0.9965
vn -0.1516 0.9884 0.0000
vn -0.1516 0.9884 0.0000
vn -0.2980 0.9546 -0.0000
vn -0.2980 0.9546 -0.0000
vn -0.2980 0.9546 -0.0000
vn -0.2980 0.9546 -0.0000
vn -0.4346 0.9006 0.0000
vn -0.4346 0.9006 0.0000
vn -0.5581 0.8298 -0.0000
vn -0.5581 0.8298 -0.0000
vn -0.4346 0.9006 0.0000
vn -0.4346 0.9006 0.0000
vn -0.5581 0.8298 -0.0000
vn -0.5581 0.8298 -0.0000
vn -0.6665 0.7455 -0.0000
vn -0.6665 0.7455 -0.0000
vn -0.7588 0.6513 0.0000
vn -0.7588 0.6513 0.0000
vn -0.6665 0.7455 -0.0000
vn -0.6665 0.7455 -0.0000
vn -0.7588 0.6513 0.0000
vn -0.7588 0.6513 0.0000
vn -0.8352 0.5500 0.0000
vn -0.8352 0.5500 0.0000
vn -0.8960 0.4440 -0.0000
vn -0.8960 0.4440 0.0000
vn -0.8352 0.5500 0.0000
vn -0.8352 0.5500 0.0000
vn -0.8960 0.4440 -0.0000
vn -0.9210 0.3895 0.0001
vn -0.8960 0.4440 0.0000
vn -0.9423 0.3348 -0.0000
vn -0.9211 0.3894 -0.0001
vn -0.9423 0.3349 -0.0000
vn -0.9746 0.2241 -0.0000
vn -0.9746 0.2241 -0.0000
vn -0.9423 0.3348 -0.0000
vn -0.9423 0.3349 -0.0000
vn -0.9935 0.1136 0.0000
vn -0.9944 0.1058 0.0000
vn -0.9746 0.2241 -0.0000
vn -0.9746 0.2241 -0.0000
vn -0.9972 0.0736 0.0156
vn -0.9975 0.0682 0.0203
vn -0.9944 0.1058 0.0000
vn -0.9935 0.1136 0.0000
vn -0.9958 0.0917 0.0000
vn -0.9975 0.0682 0.0203
vn -0.9972 0.0736 0.0156
vn -0.9211 0.3894 -0.0001
vn -0.9210 0.3895 0.0001
vn -0.8960 0.4440 -0.0000
vn -0.9423 0.3349 -0.0000
vn -0.0419 0.9987 0.0295
vn -0.1516 0.9884 0.0000
vn -0.1516 0.9884 0.0000
vn -0.0369 0.9987 0.0338
vn -0.6112 0.5427 0.5761
vn -0.9210 0.3895 0.0001
vn -0.9211 0.3894 -0.0001
vn -0.5850 0.5441 0.6015
vn -0.7039 0.1397 0.6964
vn -0.9975 0.0682 0.0203
vn -0.9958 0.0917 0.0000
vn -0.6971 0.1398 0.7033
vn 0.0000 -0.9914 -0.1305
vn 0.0000 -0.9914 -0.1305
vn 0.0000 -0.9659 -0.2588
vn 0.0000 -0.9914 -0.1305
vn 0.0000 -0.9659 -0.2588
vn 0.0000 -0.9659 -0.2588
vn 0.0000 -0.9659 -0.2588
vn 0.0000 -0.9659 -0.2588
vn 0.0000 -0.9239 -0.3827
vn 0.0000 -0.9659 -0.2588
vn 0.0000 -0.9239 -0.3827
vn 0.0000 -0.9239 -0.3827
vn -0.0000 -0.8660 -0.5000
vn -0.0000 -0.8660 -0.5000
vn 0.0000 -0.9239 -0.3827
vn -0.0000 -0.8660 -0.5000
vn 0.0000 -0.9239 -0.3827
vn 0.0000 -0.9239 -0.3827
vn -0.0000 -0.8660 -0.5000
vn -0.0000 -0.8660 -0.5000
vn -0.0000 -0.7934 -0.6088
vn -0.0000 -0.8660 -0.5000
vn -0.0000 -0.7934 -0.6088
vn -0.0000 -0.7934 -0.6088
vn 0.0000 -0.7071 -0.7071
vn 0.0000 -0.7071 -0.7071
vn -0.0000 -0.7934 -0.6088
vn 0.0000 -0.7071 -0.7071
vn -0.0000 -0.7934 -0.6088
vn -0.0000 -0.7934 -0.6088
vn 0.0000 -0.7071 -0.7071
vn 0.0000 -0.7071 -0.7071
vn 0.0000 -0.6088 -0.7934
vn 0.0000 -0.7071 -0.7071
vn 0.0000 -0.6088 -0.7934
vn 0.0000 -0.6088 -0.7934
vn -0.0000 -0.5000 -0.8660
vn 0.0000 -0.5000 -0.8660
vn 0.0000 -0.6088 -0.7934
vn -0.0000 -0.5000 -0.8660
vn 0.0000 -0.6088 -0.7934
vn 0.0000 -0.6088 -0.7934
vn -0.0000 -0.5000 -0.8660
vn 0.0001 -0.4424 -0.8968
vn 0.0000 -0.5000 -0.8660
vn -0.0000 -0.3826 -0.9239
vn -0.0002 -0.4424 -0.8968
vn -0.0001 -0.3826 -0.9239
vn -0.0000 -0.2588 -0.9659
vn -0.0000 -0.2588 -0.9659
vn -0.0000 -0.3826 -0.9239
vn -0.0001 -0.3826 -0.9239
vn 0.0000 -0.1320 -0.9912
vn 0.0000 -0.1231 -0.9924
vn -0.0000 -0.2588 -0.9659
vn -0.0000 -0.2588 -0.9659
vn 0.0193 -0.0877 -0.9960
vn 0.0285 -0.0786 -0.9965
vn 0.0000 -0.1231 -0.9924
vn 0.0193 -0.0877 -0.9960
vn 0.0000 -0.1231 -0.9924
vn 0.0000 -0.1320 -0.9912
vn 0.0000 -0.1068 -0.9943
vn 0.0285 -0.0786 -0.9965
vn 0.0193 -0.0877 -0.9960
vn -0.0002 -0.4424 -0.8968
vn 0.0001 -0.4424 -0.8968
vn -0.0000 -0.5000 -0.8660
vn -0.0001 -0.3826 -0.9239
vn 0.0419 -0.9987 -0.0295
vn 0.0000 -0.9914 -0.1305
vn 0.0000 -0.9914 -0.1305
vn 0.0419 -0.9987 -0.0295
vn 0.0000 -0.9914 -0.1305
vn 0.0369 -0.9987 -0.0338
vn 0.6112 -0.5427 -0.5761
vn 0.0001 -0.4424 -0.8968
vn -0.0002 -0.4424 -0.8968
vn 0.6112 -0.5427 -0.5761
vn -0.0002 -0.4424 -0.8968
vn 0.5850 -0.5441 -0.6015
vn 0.7039 -0.1397 -0.6964
vn 0.0285 -0.0786 -0.9965
vn 0.0000 -0.1068 -0.9943
vn 0.7039 -0.1397 -0.6964
vn 0.0000 -0.1068 -0.9943
vn 0.6971 -0.1398 -0.7033
vn 0.1516 -0.9884 -0.0000
vn 0.2980 -0.9546 -0.0000
vn 0.2980 -0.9546 -0.0000
vn 0.1516 -0.9884 -0.0000
vn 0.2980 -0.9546 -0.0000
vn 0.1516 -0.9884 -0.0000
vn 0.2980 -0.9546 -0.0000
vn 0.4346 -0.9006 -0.0000
vn 0.4346 -0.9006 -0.0000
vn 0.2980 -0.9546 -0.0000
vn 0.4346 -0.9006 -0.0000
vn 0.2980 -0.9546 -0.0000
vn 0.5581 -0.8298 -0.0000
vn 0.4346 -0.9006 -0.0000
vn 0.4346 -0.9006 -0.0000
vn 0.5581 -0.8298 -0.0000
vn 0.4346 -0.9006 -0.0000
vn 0.5581 -0.8298 -0.0000
vn 0.5581 -0.8298 -0.0000
vn 0.6665 -0.7455 0.0000
vn 0.6665 -0.7455 0.0000
vn 0.5581 -0.8298 -0.0000
vn 0.6665 -0.7455 0.0000
vn 0.5581 -0.8298 -0.0000
vn 0.7588 -0.6513 -0.0000
vn 0.6665 -0.7455 0.0000
vn 0.6665 -0.7455 0.0000
vn 0.7588 -0.6513 -0.0000
vn 0.6665 -0.7455 0.0000
vn 0.7588 -0.6513 -0.0000
vn 0.7588 -0.6513 -0.0000
vn 0.8352 -0.5500 -0.0000
vn 0.8352 -0.5500 -0.0000
vn 0.7588 -0.6513 -0.0000
vn 0.8352 -0.5500 -0.0000
vn 0.7588 -0.6513 -0.0000
vn 0.8960 -0.4440 0.0000
vn 0.8352 -0.5500 -0.0000
vn 0.8352 -0.5500 -0.0000
vn 0.8960 -0.4440 0.0000
vn 0.8352 -0.5500 -0.0000
vn 0.8960 -0.4440 -0.0000
vn 0.8960 -0.4440 0.0000
vn 0.8960 -0.4440 -0.0000
vn 0.9210 -0.3895 -0.0001
vn 0.9423 -0.3348 0.0000
vn 0.9423 -0.3349 0.0000
vn 0.9211 -0.3894 0.0001
vn 0.9746 -0.2241 0.0000
vn 0.9423 -0.3349 0.0000
vn 0.9423 -0.3348 0.0000
vn 0.9746 -0.2241 0.0000
vn 0.9423 -0.3348 0.0000
vn 0.9746 -0.2241 0.0000
vn 0.9935 -0.1136 -0.0000
vn 0.9746 -0.2241 0.0000
vn 0.9746 -0.2241 0.0000
vn 0.9935 -0.1136 -0.0000
vn 0.9746 -0.2241 0.0000
vn 0.9944 -0.1058 -0.0000
vn 0.9972 -0.0736 -0.0156
vn 0.9935 -0.1136 -0.0000
vn 0.9944 -0.1058 -0.0000
vn 0.9972 -0.0736 -0.0156
vn 0.9944 -0.1058 -0.0000
vn 0.9975 -0.0682 -0.0203
vn 0.9958 -0.0917 -0.0000
vn 0.9972 -0.0736 -0.0156
vn 0.9975 -0.0682 -0.0203
vn 0.9211 -0.3894 0.0001
vn 0.9423 -0.3349 0.0000
vn 0.8960 -0.4440 0.0000
vn 0.9211 -0.3894 0.0001
vn 0.8960 -0.4440 0.0000
vn 0.9210 -0.3895 -0.0001
vn 0.0419 -0.9987 -0.0295
vn 0.0369 -0.9987 -0.0338
vn 0.1516 -0.9884 -0.0000
vn 0.0419 -0.9987 -0.0295
vn 0.1516 -0.9884 -0.0000
vn 0.1516 -0.9884 -0.0000
vn 0.6112 -0.5427 -0.5761
vn 0.5850 -0.5441 -0.6015
vn 0.9211 -0.3894 0.0001
vn 0.6112 -0.5427 -0.5761
vn 0.9211 -0.3894 0.0001
vn 0.9210 -0.3895 -0.0001
vn 0.7039 -0.1397 -0.6964
vn 0.6971 -0.1398 -0.7033
vn 0.9958 -0.0917 -0.0000
vn 0.7039 -0.1397 -0.6964
vn 0.9958 -0.0917 -0.0000
vn 0.9975 -0.0682 -0.0203
vn 0.7071 0.0000 -0.7071
vn 0.7071 0.0000 -0.7071
vn -0.0000 -0.0000 -1.0000
vn -0.0000 -0.0000 -1.0000
vn 1.0000 -0.0000 -0.0000
vn 1.0000 -0.0000 -0.0000
vn 0.7071 0.0000 -0.7071
vn 0.7071 0.0000 -0.7071
# 318 vertex normals

vt 0.9094 0.0089 0.0000
vt 0.8453 0.0089 0.0000
vt 0.8453 0.0233 0.0000
vt 0.9094 0.0233 0.0000
vt 0.7812 0.0089 0.0000
vt 0.7812 0.0233 0.0000
vt 0.7171 0.0233 0.0000
vt 0.7171 0.0089 0.0000
vt 0.6530 0.0089 0.0000
vt 0.6530 0.0233 0.0000
vt 0.5890 0.0233 0.0000
vt 0.5890 0.0089 0.0000
vt 0.9735 0.0089 0.0000
vt 0.9735 0.0233 0.0000
vt 0.8226 0.0089 0.0000
vt 0.7999 0.0089 0.0000
vt 0.6531 0.0233 0.0000
vt 0.6531 0.0089 0.0000
vt 0.6095 0.0089 0.0000
vt 0.9496 0.0089 0.0000
vt 0.3944 0.6717 0.0000
vt 0.4038 0.6582 0.0000
vt 0.0127 0.6582 0.0000
vt 0.0127 0.6717 0.0000
vt 0.4442 0.6719 0.0000
vt 0.4462 0.6582 0.0000
vt 0.0128 0.6582 0.0000
vt 0.0128 0.6719 0.0000
vt 0.5000 0.5513 0.0000
vt 0.5000 0.6248 0.0000
vt 0.0127 0.6248 0.0000
vt 0.0127 0.5513 0.0000
# 32 texture coords

o InnerCorner
g InnerCorner
s off
f 1/1/1 2/2/2 3/3/3 4/4/4 
f 2/2/5 5/5/6 6/6/7 3/3/8 
f 7/7/9 6/6/10 5/5/11 8/8/12 
f 8/8/13 9/9/14 10/10/15 7/7/16 
f 11/11/17 10/10/18 9/9/19 12/12/20 
f 12/13/21 13/1/22 14/4/23 11/14/24 
f 15/3/25 14/4/26 13/1/27 16/2/28 
f 15/3/29 16/2/30 17/15/31 
f 18/5/32 19/6/33 20/16/34 
f 21/7/35 19/6/36 18/5/37 22/8/38 
f 23/17/39 21/7/40 22/8/41 24/18/42 
f 25/11/43 23/17/44 24/18/45 26/19/46 
f 27/12/47 25/11/48 26/19/49 
f 20/16/50 19/6/51 15/3/52 17/15/53 
f 28/14/54 29/20/55 1/1/56 4/4/57 
f 30/21/58 31/22/59 20/23/60 17/24/61 
f 32/25/62 33/26/63 27/27/64 26/28/65 
f 34/1/66 35/4/67 36/3/68 37/2/69 
f 37/2/70 36/3/71 38/6/72 39/5/73 
f 40/7/74 41/8/75 39/5/76 38/6/77 
f 41/8/78 40/7/79 42/10/80 43/9/81 
f 44/11/82 45/12/83 43/9/84 42/10/85 
f 45/13/86 44/14/87 46/4/88 47/1/89 
f 48/3/90 49/2/91 47/1/92 46/4/93 
f 48/3/94 50/15/95 49/2/96 
f 51/5/97 52/16/98 53/6/99 
f 54/7/100 55/8/101 51/5/102 53/6/103 
f 56/17/104 57/18/105 55/8/106 54/7/107 
f 58/11/108 59/19/109 57/18/110 56/17/111 
f 60/12/112 59/19/113 58/11/114 
f 52/16/115 50/15/116 48/3/117 53/6/118 
f 28/14/119 35/4/120 34/1/121 29/20/122 
f 30/21/123 50/24/124 52/23/125 31/22/126 
f 32/25/127 59/28/128 60/27/129 33/26/130 
f 1/1/131 61/4/132 3/3/133 
f 1/1/134 3/3/135 62/2/136 
f 62/2/137 3/3/138 6/6/139 
f 62/2/140 6/6/141 5/5/142 
f 7/7/143 8/8/144 5/5/145 
f 7/7/146 5/5/147 6/6/148 
f 8/8/149 7/7/150 10/10/151 
f 8/8/152 10/10/153 9/9/154 
f 11/11/155 12/12/156 9/9/157 
f 11/11/158 9/9/159 10/10/160 
f 12/13/161 11/14/162 14/4/163 
f 12/13/164 14/4/165 13/1/166 
f 15/3/167 63/2/168 13/1/169 
f 15/3/170 13/1/171 14/4/172 
f 15/3/173 64/15/174 63/2/175 
f 65/5/176 66/16/177 19/6/178 
f 21/7/179 67/8/180 65/5/181 19/6/182 
f 68/17/183 24/18/184 67/8/185 21/7/186 
f 25/11/187 26/19/188 24/18/189 
f 25/11/190 24/18/191 68/17/192 
f 69/12/193 26/19/194 25/11/195 
f 66/16/196 64/15/197 15/3/198 19/6/199 
f 28/14/200 61/4/201 1/1/202 
f 28/14/203 1/1/204 29/20/205 
f 30/21/206 64/24/207 66/23/208 
f 30/21/209 66/23/210 31/22/211 
f 32/25/212 26/28/213 69/27/214 
f 32/25/215 69/27/216 33/26/217 
f 70/1/218 37/2/219 36/3/220 
f 70/1/221 36/3/222 35/4/223 
f 37/2/224 39/5/225 38/6/226 
f 37/2/227 38/6/228 36/3/229 
f 40/7/230 38/6/231 39/5/232 
f 40/7/233 39/5/234 41/8/235 
f 41/8/236 43/9/237 42/10/238 
f 41/8/239 42/10/240 40/7/241 
f 44/11/242 42/10/243 43/9/244 
f 44/11/245 43/9/246 45/12/247 
f 45/13/248 47/1/249 46/4/250 
f 45/13/251 46/4/252 44/14/253 
f 48/3/254 46/4/255 47/1/256 
f 48/3/257 47/1/258 49/2/259 
f 48/3/260 49/2/261 50/15/262 
f 51/5/263 53/6/264 52/16/265 
f 54/7/266 53/6/267 51/5/268 
f 54/7/269 51/5/270 55/8/271 
f 56/17/272 54/7/273 55/8/274 
f 56/17/275 55/8/276 57/18/277 
f 58/11/278 56/17/279 57/18/280 
f 58/11/281 57/18/282 59/19/283 
f 60/12/284 58/11/285 59/19/286 
f 52/16/287 53/6/288 48/3/289 
f 52/16/290 48/3/291 50/15/292 
f 28/14/293 29/20/294 70/1/295 
f 28/14/296 70/1/297 35/4/298 
f 30/21/299 31/22/300 52/23/301 
f 30/21/302 52/23/303 50/24/304 
f 32/25/305 33/26/306 60/27/307 
f 32/25/308 60/27/309 59/28/310 
f 71/29/311 72/30/312 25/31/313 73/32/314 
f 74/29/315 75/30/316 72/31/317 71/32/318 
# 33 polygons - 62 triangles

#
# object OuterCorner
#

v  -236.2202 0.0000 236.2205
v  -275.5909 0.0000 236.2206
v  -275.5909 39.3701 236.2206
v  -236.2202 39.3701 236.2205
v  -236.2200 0.0000 275.5909
v  -236.2200 39.3701 275.5909
v  -264.1078 274.8506 9.8428
v  -275.5909 275.4957 0.0002
v  -264.1078 275.4957 0.0002
v  -275.5910 273.4756 30.8208
v  -264.1078 273.4756 30.8208
v  -264.1078 267.4499 61.1140
v  -275.5910 267.4499 61.1140
v  -264.1079 257.5216 90.3615
v  -275.5910 257.5216 90.3615
v  -264.1079 243.8608 118.0629
v  -275.5911 243.8608 118.0629
v  -264.1079 226.7011 143.7443
v  -275.5911 226.7011 143.7443
v  -264.1080 206.3361 166.9662
v  -275.5911 206.3361 166.9661
v  -264.1080 183.1142 187.3311
v  -275.5911 183.1142 187.3311
v  -264.1080 157.4329 204.4909
v  -275.5912 157.4329 204.4909
v  -275.5912 129.7314 218.1517
v  -264.1081 147.6378 209.3215
v  -264.1080 137.7954 214.1772
v  -264.1080 129.7314 218.1517
v  -264.1080 100.4839 228.0799
v  -275.5912 100.4839 228.0799
v  -264.1081 70.1907 234.1056
v  -275.5912 70.1907 234.1056
v  -264.1079 49.2126 235.1631
v  -264.1078 39.3701 236.2207
v  -235.1624 49.2126 235.1624
v  -236.2199 39.3701 236.2199
v  -214.1765 137.7954 214.1765
v  -209.3207 147.6378 209.3207
v  -11.4832 275.4957 0.0002
v  -9.8427 274.8507 9.8427
v  -0.0001 275.4956 0.0001
v  -9.8426 274.8506 264.1076
v  0.0000 275.4957 264.1076
v  0.0000 275.4957 275.5907
v  -30.8205 273.4756 275.5908
v  -30.8205 273.4756 264.1077
v  -61.1138 267.4499 275.5908
v  -61.1138 267.4499 264.1077
v  -90.3613 257.5216 264.1077
v  -90.3613 257.5216 275.5908
v  -118.0628 243.8608 264.1077
v  -118.0628 243.8608 275.5909
v  -143.7441 226.7011 264.1077
v  -143.7441 226.7011 275.5909
v  -166.9659 206.3361 275.5909
v  -166.9660 206.3361 264.1078
v  -187.3310 183.1142 275.5909
v  -187.3310 183.1142 264.1078
v  -204.4907 157.4329 275.5910
v  -204.4907 157.4329 264.1078
v  -218.1515 129.7314 275.5910
v  -214.1771 137.7954 264.1078
v  -209.3213 147.6378 264.1079
v  -218.1515 129.7314 264.1078
v  -228.0798 100.4839 275.5910
v  -228.0798 100.4839 264.1078
v  -234.1055 70.1907 275.5910
v  -234.1055 70.1907 264.1078
v  -236.2205 39.3701 275.5907
v  -236.2206 39.3701 264.1076
v  -235.1630 49.2126 264.1078
v  0.0000 275.4957 11.4831
v  -9.8426 274.8507 9.8427
v  0.0000 275.4956 0.0001
v  -9.8425 274.8506 264.1076
v  0.0001 275.4957 275.5907
v  0.0001 275.4957 264.1076
v  -61.1137 267.4499 275.5908
v  -118.0627 243.8608 264.1077
v  -118.0627 243.8608 275.5909
v  0.0001 275.4957 11.4831
# 82 vertices

vn 0.7071 0.0000 -0.7071
vn -0.0000 0.0000 -1.0000
vn -0.0000 0.0000 -1.0000
vn 0.7071 0.0000 -0.7071
vn 1.0000 0.0000 -0.0000
vn 0.7071 0.0000 -0.7071
vn 0.7071 0.0000 -0.7071
vn 1.0000 0.0000 -0.0000
vn 0.0000 -0.9979 -0.0654
vn 0.0000 -0.9979 -0.0654
vn -0.0000 -0.9979 -0.0654
vn 0.0000 -0.9914 -0.1305
vn 0.0000 -0.9979 -0.0654
vn 0.0000 -0.9979 -0.0654
vn 0.0000 -0.9914 -0.1305
vn 0.0000 -0.9914 -0.1305
vn 0.0000 -0.9914 -0.1305
vn 0.0000 -0.9659 -0.2588
vn 0.0000 -0.9659 -0.2588
vn 0.0000 -0.9239 -0.3827
vn 0.0000 -0.9239 -0.3827
vn 0.0000 -0.9659 -0.2588
vn 0.0000 -0.9659 -0.2588
vn 0.0000 -0.8660 -0.5000
vn 0.0000 -0.8660 -0.5000
vn 0.0000 -0.9239 -0.3827
vn 0.0000 -0.9239 -0.3827
vn 0.0000 -0.7934 -0.6088
vn 0.0000 -0.7934 -0.6088
vn 0.0000 -0.8660 -0.5000
vn 0.0000 -0.8660 -0.5000
vn 0.0000 -0.7934 -0.6088
vn 0.0000 -0.7934 -0.6088
vn 0.0000 -0.7071 -0.7071
vn 0.0000 -0.7071 -0.7071
vn 0.0000 -0.7071 -0.7071
vn 0.0000 -0.7071 -0.7071
vn 0.0000 -0.6088 -0.7934
vn 0.0000 -0.6088 -0.7934
vn 0.0000 -0.6088 -0.7934
vn 0.0000 -0.6088 -0.7934
vn 0.0000 -0.5000 -0.8660
vn 0.0000 -0.5000 -0.8660
vn 0.0001 -0.3826 -0.9239
vn 0.0000 -0.5000 -0.8660
vn -0.0001 -0.4424 -0.8968
vn 0.0002 -0.4424 -0.8968
vn 0.0001 -0.3826 -0.9239
vn 0.0002 -0.4424 -0.8968
vn 0.0000 -0.3826 -0.9239
vn 0.0001 -0.3826 -0.9239
vn 0.0000 -0.3826 -0.9239
vn -0.0000 -0.2588 -0.9659
vn -0.0000 -0.2588 -0.9659
vn -0.0000 -0.2588 -0.9659
vn -0.0000 -0.2588 -0.9659
vn 0.0000 -0.1231 -0.9924
vn 0.0000 -0.1320 -0.9912
vn -0.0193 -0.0877 -0.9960
vn -0.0285 -0.0786 -0.9965
vn -0.0000 -0.1068 -0.9943
vn -0.0285 -0.0786 -0.9965
vn 0.6971 -0.1398 -0.7033
vn 0.7039 -0.1397 -0.6964
vn -0.0000 -0.1068 -0.9943
vn 0.6112 -0.5427 -0.5761
vn 0.0002 -0.4424 -0.8968
vn -0.0001 -0.4424 -0.8968
vn 0.5850 -0.5441 -0.6015
vn -0.0000 -0.9979 -0.0654
vn -0.0000 -0.9979 -0.0654
vn 0.0394 -0.9987 -0.0317
vn 0.0000 -0.9979 -0.0654
vn -0.0193 -0.0877 -0.9960
vn 0.0000 -0.1320 -0.9912
vn 0.0000 -0.1231 -0.9924
vn -0.0285 -0.0786 -0.9965
vn 0.0394 -0.9987 -0.0317
vn -0.0000 -0.9979 -0.0654
vn 0.0344 -0.9988 -0.0359
vn 0.0000 -0.5000 -0.8660
vn 0.0000 -0.5000 -0.8660
vn -0.0001 -0.4424 -0.8968
vn 0.0762 -0.9971 -0.0000
vn 0.0762 -0.9971 0.0000
vn 0.0762 -0.9971 -0.0000
vn 0.1516 -0.9884 -0.0000
vn 0.1516 -0.9884 -0.0000
vn 0.0762 -0.9971 -0.0000
vn 0.0762 -0.9971 -0.0000
vn 0.1516 -0.9884 -0.0000
vn 0.2980 -0.9546 -0.0000
vn 0.2980 -0.9546 -0.0000
vn 0.1516 -0.9884 -0.0000
vn 0.4346 -0.9006 -0.0000
vn 0.2980 -0.9546 -0.0000
vn 0.2980 -0.9546 -0.0000
vn 0.4346 -0.9006 -0.0000
vn 0.5581 -0.8298 -0.0000
vn 0.4346 -0.9006 -0.0000
vn 0.4346 -0.9006 -0.0000
vn 0.5581 -0.8298 -0.0000
vn 0.6665 -0.7455 -0.0000
vn 0.5581 -0.8298 -0.0000
vn 0.5581 -0.8298 -0.0000
vn 0.6665 -0.7455 -0.0000
vn 0.6665 -0.7455 -0.0000
vn 0.7588 -0.6513 -0.0000
vn 0.7588 -0.6513 -0.0000
vn 0.6665 -0.7455 -0.0000
vn 0.7588 -0.6513 -0.0000
vn 0.8352 -0.5500 -0.0000
vn 0.8352 -0.5500 -0.0000
vn 0.7588 -0.6513 -0.0000
vn 0.8352 -0.5500 -0.0000
vn 0.8960 -0.4440 -0.0000
vn 0.8960 -0.4440 -0.0000
vn 0.8352 -0.5500 -0.0000
vn 0.9423 -0.3349 -0.0000
vn 0.9211 -0.3894 -0.0001
vn 0.9210 -0.3895 0.0001
vn 0.8960 -0.4440 -0.0000
vn 0.9423 -0.3349 -0.0000
vn 0.9423 -0.3348 -0.0000
vn 0.9211 -0.3894 -0.0001
vn 0.9423 -0.3349 -0.0000
vn 0.9746 -0.2241 0.0000
vn 0.9746 -0.2241 0.0000
vn 0.9423 -0.3348 -0.0000
vn 0.9746 -0.2241 0.0000
vn 0.9935 -0.1136 -0.0000
vn 0.9944 -0.1058 -0.0000
vn 0.9746 -0.2241 0.0000
vn 0.9972 -0.0736 0.0156
vn 0.9958 -0.0917 0.0000
vn 0.9975 -0.0682 0.0203
vn 0.9975 -0.0682 0.0203
vn 0.9958 -0.0917 0.0000
vn 0.7039 -0.1397 -0.6964
vn 0.6971 -0.1398 -0.7033
vn 0.6112 -0.5427 -0.5761
vn 0.5850 -0.5441 -0.6015
vn 0.9210 -0.3895 0.0001
vn 0.9211 -0.3894 -0.0001
vn 0.0762 -0.9971 0.0000
vn 0.0762 -0.9971 -0.0000
vn 0.0394 -0.9987 -0.0317
vn 0.0762 -0.9971 0.0000
vn 0.9972 -0.0736 0.0156
vn 0.9975 -0.0682 0.0203
vn 0.9944 -0.1058 -0.0000
vn 0.9935 -0.1136 -0.0000
vn 0.0394 -0.9987 -0.0317
vn 0.0344 -0.9988 -0.0359
vn 0.0762 -0.9971 0.0000
vn 0.8960 -0.4440 -0.0000
vn 0.9210 -0.3895 0.0001
vn 0.8960 -0.4440 -0.0000
vn -0.0000 0.9979 0.0654
vn 0.0000 0.9979 0.0654
vn -0.0000 0.9979 0.0654
vn -0.0000 0.9914 0.1305
vn -0.0000 0.9914 0.1305
vn -0.0000 0.9979 0.0654
vn -0.0000 0.9914 0.1305
vn -0.0000 0.9979 0.0654
vn -0.0000 0.9979 0.0654
vn -0.0000 0.9914 0.1305
vn -0.0000 0.9659 0.2588
vn -0.0000 0.9659 0.2588
vn -0.0000 0.9914 0.1305
vn -0.0000 0.9659 0.2588
vn -0.0000 0.9914 0.1305
vn -0.0000 0.9239 0.3827
vn -0.0000 0.9659 0.2588
vn -0.0000 0.9659 0.2588
vn -0.0000 0.9239 0.3827
vn -0.0000 0.9659 0.2588
vn -0.0000 0.9239 0.3827
vn 0.0000 0.8660 0.5000
vn -0.0000 0.9239 0.3827
vn -0.0000 0.9239 0.3827
vn 0.0000 0.8660 0.5000
vn -0.0000 0.9239 0.3827
vn 0.0000 0.8660 0.5000
vn 0.0000 0.7934 0.6088
vn 0.0000 0.8660 0.5000
vn 0.0000 0.8660 0.5000
vn 0.0000 0.7934 0.6088
vn 0.0000 0.8660 0.5000
vn 0.0000 0.7934 0.6088
vn 0.0000 0.7934 0.6088
vn -0.0000 0.7071 0.7071
vn -0.0000 0.7071 0.7071
vn 0.0000 0.7934 0.6088
vn -0.0000 0.7071 0.7071
vn 0.0000 0.7934 0.6088
vn -0.0000 0.7071 0.7071
vn 0.0000 0.6088 0.7934
vn 0.0000 0.6088 0.7934
vn -0.0000 0.7071 0.7071
vn 0.0000 0.6088 0.7934
vn -0.0000 0.7071 0.7071
vn 0.0000 0.6088 0.7934
vn -0.0000 0.5000 0.8660
vn -0.0000 0.5000 0.8660
vn 0.0000 0.6088 0.7934
vn -0.0000 0.5000 0.8660
vn 0.0000 0.6088 0.7934
vn -0.0001 0.3826 0.9239
vn -0.0002 0.4424 0.8968
vn 0.0001 0.4424 0.8968
vn -0.0001 0.3826 0.9239
vn 0.0001 0.4424 0.8968
vn -0.0000 0.5000 0.8660
vn -0.0001 0.3826 0.9239
vn 0.0000 0.3826 0.9239
vn -0.0002 0.4424 0.8968
vn -0.0001 0.3826 0.9239
vn 0.0000 0.2588 0.9659
vn 0.0000 0.2588 0.9659
vn -0.0001 0.3826 0.9239
vn 0.0000 0.2588 0.9659
vn 0.0000 0.3826 0.9239
vn 0.0000 0.2588 0.9659
vn 0.0000 0.1320 0.9912
vn 0.0000 0.1231 0.9924
vn 0.0000 0.2588 0.9659
vn 0.0000 0.1231 0.9924
vn 0.0000 0.2588 0.9659
vn 0.0193 0.0877 0.9960
vn 0.0000 0.1068 0.9943
vn 0.0285 0.0786 0.9965
vn 0.0285 0.0786 0.9965
vn 0.0000 0.1068 0.9943
vn -0.7039 0.1397 0.6964
vn 0.0285 0.0786 0.9965
vn -0.7039 0.1397 0.6964
vn -0.6971 0.1398 0.7033
vn -0.6112 0.5427 0.5761
vn -0.5850 0.5441 0.6015
vn 0.0001 0.4424 0.8968
vn -0.6112 0.5427 0.5761
vn 0.0001 0.4424 0.8968
vn -0.0002 0.4424 0.8968
vn 0.0000 0.9979 0.0654
vn -0.0000 0.9979 0.0654
vn -0.0394 0.9987 0.0317
vn 0.0000 0.9979 0.0654
vn -0.0394 0.9987 0.0317
vn 0.0000 0.9979 0.0654
vn 0.0193 0.0877 0.9960
vn 0.0285 0.0786 0.9965
vn 0.0000 0.1231 0.9924
vn 0.0193 0.0877 0.9960
vn 0.0000 0.1231 0.9924
vn 0.0000 0.1320 0.9912
vn -0.0394 0.9987 0.0317
vn -0.0344 0.9988 0.0359
vn 0.0000 0.9979 0.0654
vn -0.0000 0.5000 0.8660
vn 0.0001 0.4424 0.8968
vn -0.0000 0.5000 0.8660
vn -0.0762 0.9971 0.0000
vn -0.0762 0.9971 0.0000
vn -0.0762 0.9971 -0.0000
vn -0.1516 0.9884 -0.0000
vn -0.0762 0.9971 0.0000
vn -0.0762 0.9971 0.0000
vn -0.1516 0.9884 -0.0000
vn -0.0762 0.9971 0.0000
vn -0.1516 0.9884 -0.0000
vn -0.1516 0.9884 -0.0000
vn -0.1516 0.9884 -0.0000
vn -0.2980 0.9546 0.0000
vn -0.1516 0.9884 -0.0000
vn -0.2980 0.9546 0.0000
vn -0.2980 0.9546 0.0000
vn -0.4346 0.9006 -0.0000
vn -0.4346 0.9006 -0.0000
vn -0.2980 0.9546 0.0000
vn -0.4346 0.9006 -0.0000
vn -0.2980 0.9546 0.0000
vn -0.2980 0.9546 0.0000
vn -0.5581 0.8298 -0.0000
vn -0.5581 0.8298 -0.0000
vn -0.4346 0.9006 -0.0000
vn -0.5581 0.8298 -0.0000
vn -0.4346 0.9006 -0.0000
vn -0.4346 0.9006 -0.0000
vn -0.6665 0.7455 -0.0000
vn -0.6665 0.7455 -0.0000
vn -0.5581 0.8298 -0.0000
vn -0.6665 0.7455 -0.0000
vn -0.5581 0.8298 -0.0000
vn -0.5581 0.8298 -0.0000
vn -0.6665 0.7455 -0.0000
vn -0.6665 0.7455 -0.0000
vn -0.7588 0.6513 0.0000
vn -0.6665 0.7455 -0.0000
vn -0.7588 0.6513 0.0000
vn -0.7588 0.6513 0.0000
vn -0.7588 0.6513 0.0000
vn -0.7588 0.6513 0.0000
vn -0.8352 0.5500 -0.0000
vn -0.7588 0.6513 0.0000
vn -0.8352 0.5500 -0.0000
vn -0.8352 0.5500 -0.0000
vn -0.8352 0.5500 -0.0000
vn -0.8352 0.5500 -0.0000
vn -0.8960 0.4440 0.0000
vn -0.8352 0.5500 -0.0000
vn -0.8960 0.4440 0.0000
vn -0.8960 0.4440 0.0000
vn -0.9423 0.3349 0.0000
vn -0.8960 0.4440 0.0000
vn -0.9210 0.3895 -0.0001
vn -0.9423 0.3349 0.0000
vn -0.9210 0.3895 -0.0001
vn -0.9211 0.3894 0.0001
vn -0.9423 0.3349 0.0000
vn -0.9211 0.3894 0.0001
vn -0.9423 0.3348 -0.0000
vn -0.9423 0.3349 0.0000
vn -0.9423 0.3348 -0.0000
vn -0.9746 0.2241 -0.0000
vn -0.9423 0.3349 0.0000
vn -0.9746 0.2241 -0.0000
vn -0.9746 0.2241 -0.0000
vn -0.9746 0.2241 -0.0000
vn -0.9746 0.2241 -0.0000
vn -0.9944 0.1058 -0.0000
vn -0.9746 0.2241 -0.0000
vn -0.9944 0.1058 -0.0000
vn -0.9935 0.1136 -0.0000
vn -0.9972 0.0736 -0.0156
vn -0.9975 0.0682 -0.0203
vn -0.9958 0.0917 -0.0000
vn -0.9975 0.0682 -0.0203
vn -0.6971 0.1398 0.7033
vn -0.7039 0.1397 0.6964
vn -0.9975 0.0682 -0.0203
vn -0.7039 0.1397 0.6964
vn -0.9958 0.0917 -0.0000
vn -0.6112 0.5427 0.5761
vn -0.9211 0.3894 0.0001
vn -0.9210 0.3895 -0.0001
vn -0.6112 0.5427 0.5761
vn -0.9210 0.3895 -0.0001
vn -0.5850 0.5441 0.6015
vn -0.0762 0.9971 -0.0000
vn -0.0762 0.9971 -0.0000
vn -0.0394 0.9987 0.0317
vn -0.0762 0.9971 0.0000
vn -0.9972 0.0736 -0.0156
vn -0.9935 0.1136 -0.0000
vn -0.9944 0.1058 -0.0000
vn -0.9972 0.0736 -0.0156
vn -0.9944 0.1058 -0.0000
vn -0.9975 0.0682 -0.0203
vn -0.0394 0.9987 0.0317
vn -0.0762 0.9971 -0.0000
vn -0.0344 0.9988 0.0359
vn -0.8960 0.4440 0.0000
vn -0.8960 0.4440 0.0000
vn -0.9210 0.3895 -0.0001
# 366 vertex normals

vt 0.4202 0.5513 0.0000
vt 0.5000 0.5513 0.0000
vt 0.5000 0.6248 0.0000
vt 0.4202 0.6248 0.0000
vt 0.9530 0.0233 0.0000
vt 0.9735 0.0089 0.0000
vt 0.9735 0.0233 0.0000
vt 0.9094 0.0089 0.0000
vt 0.9094 0.0233 0.0000
vt 0.8453 0.0233 0.0000
vt 0.8453 0.0089 0.0000
vt 0.7812 0.0233 0.0000
vt 0.7812 0.0089 0.0000
vt 0.7171 0.0233 0.0000
vt 0.7171 0.0089 0.0000
vt 0.6530 0.0233 0.0000
vt 0.6530 0.0089 0.0000
vt 0.5890 0.0233 0.0000
vt 0.5890 0.0089 0.0000
vt 0.8226 0.0233 0.0000
vt 0.7999 0.0233 0.0000
vt 0.6531 0.0233 0.0000
vt 0.6531 0.0089 0.0000
vt 0.6095 0.0233 0.0000
vt 0.5000 0.6719 0.0000
vt 0.4442 0.6719 0.0000
vt 0.4462 0.6582 0.0000
vt 0.5000 0.6582 0.0000
vt 0.4038 0.6582 0.0000
vt 0.5001 0.6582 0.0000
vt 0.5001 0.6717 0.0000
vt 0.3944 0.6717 0.0000
vt 0.5000 0.6721 0.0000
vt 0.0129 0.6721 0.0000
vt 0.0129 0.6579 0.0000
vt 0.5000 0.6579 0.0000
vt 0.9530 0.0089 0.0000
# 37 texture coords

o OuterCorner
g OuterCorner
s off
f 76/33/319 77/34/320 78/35/321 79/36/322 
f 80/33/323 76/34/324 79/35/325 81/36/326 
f 82/37/327 83/38/328 84/39/329 
f 85/40/330 83/38/331 82/37/332 86/41/333 
f 85/40/334 86/41/335 87/42/336 88/43/337 
f 89/44/338 90/45/339 88/43/340 87/42/341 
f 91/46/342 92/47/343 90/45/344 89/44/345 
f 93/48/346 94/49/347 92/47/348 91/46/349 
f 94/49/350 93/48/351 95/50/352 96/51/353 
f 96/38/354 95/39/355 97/41/356 98/40/357 
f 98/40/358 97/41/359 99/42/360 100/43/361 
f 101/45/362 100/43/363 102/52/364 103/53/365 
f 101/45/366 103/53/367 104/44/368 
f 101/45/369 104/44/370 105/46/371 106/47/372 
f 106/47/373 105/46/374 107/54/375 108/55/376 
f 78/51/377 109/56/378 110/50/379 
f 109/57/380 111/58/381 112/59/382 110/60/383 
f 113/61/384 103/62/385 102/63/386 114/64/387 
f 84/65/388 115/66/389 116/67/390 82/68/391 
f 78/51/392 108/55/393 107/54/394 109/56/395 
f 116/69/396 115/38/397 117/39/398 
f 100/43/399 99/42/400 102/52/401 
f 118/37/402 119/39/403 120/38/404 
f 121/40/405 122/41/406 118/37/407 120/38/408 
f 121/40/409 123/43/410 124/42/411 122/41/412 
f 125/44/413 124/42/414 123/43/415 126/45/416 
f 127/46/417 125/44/418 126/45/419 128/47/420 
f 129/48/421 127/46/422 128/47/423 130/49/424 
f 130/49/425 131/51/426 132/50/427 129/48/428 
f 131/38/429 133/40/430 134/41/431 132/39/432 
f 133/40/433 135/43/434 136/42/435 134/41/436 
f 137/45/437 138/53/438 139/52/439 135/43/440 
f 137/45/441 140/44/442 138/53/443 
f 137/45/444 141/47/445 142/46/446 140/44/447 
f 141/47/448 143/55/449 144/54/450 142/46/451 
f 145/51/452 146/50/453 147/56/454 
f 147/57/455 146/60/456 112/59/457 111/58/458 
f 113/61/459 114/64/460 139/63/461 138/62/462 
f 119/65/463 118/68/464 116/67/465 148/66/466 
f 145/51/467 147/56/468 144/54/469 143/55/470 
f 116/69/471 117/39/472 148/38/473 
f 135/43/474 139/52/475 136/42/476 
f 82/37/477 84/39/478 83/38/479 
f 85/40/480 86/41/481 82/37/482 
f 85/40/483 82/37/484 83/38/485 
f 85/40/486 88/43/487 87/42/488 
f 85/40/489 87/42/490 86/41/491 
f 89/44/492 87/42/493 88/43/494 
f 89/44/495 88/43/496 90/45/497 
f 91/46/498 89/44/499 90/45/500 
f 91/46/501 90/45/502 92/47/503 
f 93/48/504 91/46/505 92/47/506 
f 93/48/507 92/47/508 94/49/509 
f 94/49/510 96/51/511 95/50/512 
f 94/49/513 95/50/514 93/48/515 
f 96/38/516 98/40/517 97/41/518 
f 96/38/519 97/41/520 95/39/521 
f 98/40/522 100/43/523 99/42/524 
f 98/40/525 99/42/526 97/41/527 
f 101/45/528 103/53/529 102/52/530 
f 101/45/531 102/52/532 100/43/533 
f 101/45/534 104/44/535 103/53/536 
f 101/45/537 106/47/538 105/46/539 
f 101/45/540 105/46/541 104/44/542 
f 106/47/543 108/55/544 107/54/545 
f 106/47/546 107/54/547 105/46/548 
f 78/51/549 110/50/550 109/56/551 
f 109/57/552 110/60/553 112/59/554 
f 109/57/555 112/59/556 111/58/557 
f 113/61/558 114/64/559 102/63/560 
f 113/61/561 102/63/562 103/62/563 
f 84/65/564 82/68/565 149/67/566 
f 84/65/567 149/67/568 115/66/569 
f 78/51/570 109/56/571 107/54/572 
f 78/51/573 107/54/574 108/55/575 
f 149/69/576 150/39/577 115/38/578 
f 100/43/579 102/52/580 99/42/581 
f 151/37/582 152/38/583 153/39/584 
f 121/40/585 152/38/586 151/37/587 
f 121/40/588 151/37/589 122/41/590 
f 121/40/591 122/41/592 124/42/593 
f 121/40/594 124/42/595 154/43/596 
f 125/44/597 126/45/598 154/43/599 
f 125/44/600 154/43/601 124/42/602 
f 155/46/603 156/47/604 126/45/605 
f 155/46/606 126/45/607 125/44/608 
f 129/48/609 130/49/610 156/47/611 
f 129/48/612 156/47/613 155/46/614 
f 130/49/615 129/48/616 132/50/617 
f 130/49/618 132/50/619 131/51/620 
f 131/38/621 132/39/622 134/41/623 
f 131/38/624 134/41/625 133/40/626 
f 133/40/627 134/41/628 136/42/629 
f 133/40/630 136/42/631 135/43/632 
f 137/45/633 135/43/634 139/52/635 
f 137/45/636 139/52/637 138/53/638 
f 137/45/639 138/53/640 140/44/641 
f 137/45/642 140/44/643 142/46/644 
f 137/45/645 142/46/646 141/47/647 
f 141/47/648 142/46/649 144/54/650 
f 141/47/651 144/54/652 143/55/653 
f 145/51/654 147/56/655 146/50/656 
f 147/57/657 111/58/658 112/59/659 
f 147/57/660 112/59/661 146/60/662 
f 113/61/663 138/62/664 139/63/665 
f 113/61/666 139/63/667 114/64/668 
f 153/65/669 157/66/670 149/67/671 151/68/672 
f 145/51/673 143/55/674 144/54/675 
f 145/51/676 144/54/677 147/56/678 
f 149/69/679 157/38/680 150/39/681 
f 135/43/682 136/42/683 139/52/684 
# 33 polygons - 78 triangles

#
# object InnerBevil
#

v  0.0001 39.3701 236.2203
v  -236.2264 39.3701 236.2272
v  -236.2264 36.3679 251.2959
v  0.0002 36.3679 251.2901
v  -236.2264 27.8348 264.0666
v  0.0002 27.8348 264.0608
v  -236.2264 15.0641 272.5997
v  0.0001 15.0641 272.5938
v  -236.2263 0.0000 275.5962
v  0.0002 0.0000 275.5903
v  -236.2264 39.3701 0.0030
v  -251.2962 36.3679 0.0029
v  -251.2962 36.3679 236.2307
v  -264.0669 27.8348 0.0029
v  -264.0669 27.8348 236.2307
v  -272.6000 15.0641 0.0030
v  -272.6000 15.0641 236.2306
v  -275.5966 0.0000 0.0030
v  -275.5965 0.0000 236.2307
v  -246.4161 0.0000 274.2604
v  -245.6406 15.0641 271.3660
v  -255.9114 0.0000 270.3274
v  -254.4132 15.0641 267.7323
v  -243.4320 27.8348 263.1237
v  -264.0652 0.0000 264.0707
v  -261.9464 15.0641 261.9518
v  -250.1466 27.8348 260.3424
v  -240.1267 36.3679 250.7882
v  -270.3218 0.0000 255.9170
v  -267.7269 15.0641 254.4186
v  -255.9125 27.8348 255.9181
v  -243.7612 36.3679 249.2827
v  -274.2549 0.0000 246.4217
v  -271.3606 15.0641 245.6460
v  -260.3369 27.8348 250.1522
v  -246.8823 36.3679 246.8879
v  -263.1182 27.8348 243.4376
v  -249.2772 36.3679 243.7668
v  -250.7827 36.3679 240.1323
# 39 vertices

vn 0.0000 0.9807 0.1954
vn 0.0000 0.9807 0.1954
vn 0.0000 0.9807 0.1954
vn 0.0000 0.9807 0.1954
vn 0.0000 0.8315 0.5556
vn 0.0000 0.8315 0.5556
vn 0.0000 0.8315 0.5556
vn 0.0000 0.8315 0.5556
vn 0.0000 0.5556 0.8315
vn 0.0000 0.5556 0.8315
vn 0.0000 0.5556 0.8315
vn 0.0000 0.5556 0.8315
vn 0.0000 0.1951 0.9808
vn 0.0000 0.1951 0.9808
vn 0.0000 0.1951 0.9808
vn 0.0000 0.1951 0.9808
vn -0.2264 0.9740 -0.0000
vn -0.2264 0.9740 -0.0000
vn -0.2264 0.9740 -0.0000
vn -0.2264 0.9740 -0.0000
vn -0.6148 0.7887 -0.0000
vn -0.6148 0.7887 -0.0000
vn -0.6148 0.7887 -0.0000
vn -0.6148 0.7887 -0.0000
vn -0.8678 0.4970 0.0000
vn -0.8678 0.4970 0.0000
vn -0.8678 0.4970 0.0000
vn -0.8678 0.4970 0.0000
vn -0.9858 0.1681 0.0000
vn -0.9858 0.1681 0.0000
vn -0.9858 0.1681 0.0000
vn -0.9858 0.1681 0.0000
vn 0.9474 0.1951 0.2538
vn 0.9727 0.1935 0.1281
vn 0.9194 0.3743 0.1210
vn 0.8946 0.3771 0.2397
vn 0.8494 0.1951 0.4904
vn 0.9474 0.1951 0.2538
vn 0.8946 0.3771 0.2397
vn 0.8021 0.3771 0.4631
vn 0.8946 0.3771 0.2397
vn 0.9194 0.3743 0.1210
vn 0.7119 0.6960 0.0937
vn 0.6907 0.6991 0.1851
vn 0.6935 0.1951 0.6935
vn 0.8494 0.1951 0.4904
vn 0.8021 0.3771 0.4631
vn 0.6549 0.3771 0.6549
vn 0.8021 0.3771 0.4631
vn 0.8946 0.3771 0.2397
vn 0.6907 0.6991 0.1851
vn 0.6192 0.6991 0.3575
vn 0.6907 0.6991 0.1851
vn 0.7119 0.6960 0.0937
vn 0.3960 0.9168 0.0521
vn 0.3830 0.9180 0.1026
vn 0.4904 0.1951 0.8494
vn 0.6935 0.1951 0.6935
vn 0.6549 0.3771 0.6549
vn 0.4631 0.3771 0.8021
vn 0.6549 0.3771 0.6549
vn 0.8021 0.3771 0.4631
vn 0.6192 0.6991 0.3575
vn 0.5056 0.6991 0.5056
vn 0.6192 0.6991 0.3575
vn 0.6907 0.6991 0.1851
vn 0.3830 0.9180 0.1026
vn 0.3434 0.9180 0.1983
vn 0.3830 0.9180 0.1026
vn 0.3960 0.9168 0.0521
vn 0.1262 0.9839 0.1262
vn 0.2538 0.1951 0.9474
vn 0.4904 0.1951 0.8494
vn 0.4631 0.3771 0.8021
vn 0.2397 0.3771 0.8946
vn 0.4631 0.3771 0.8021
vn 0.6549 0.3771 0.6549
vn 0.5056 0.6991 0.5056
vn 0.3575 0.6991 0.6192
vn 0.3434 0.9180 0.1983
vn 0.3830 0.9180 0.1026
vn 0.1262 0.9839 0.1262
vn 0.5056 0.6991 0.5056
vn 0.6192 0.6991 0.3575
vn 0.3434 0.9180 0.1983
vn 0.2804 0.9180 0.2804
vn 0.1281 0.1935 0.9727
vn 0.2538 0.1951 0.9474
vn 0.2397 0.3771 0.8946
vn 0.1210 0.3743 0.9194
vn 0.2397 0.3771 0.8946
vn 0.4631 0.3771 0.8021
vn 0.3575 0.6991 0.6192
vn 0.1851 0.6991 0.6907
vn 0.2804 0.9180 0.2804
vn 0.3434 0.9180 0.1983
vn 0.1262 0.9839 0.1262
vn 0.3575 0.6991 0.6192
vn 0.5056 0.6991 0.5056
vn 0.2804 0.9180 0.2804
vn 0.1983 0.9180 0.3434
vn 0.1210 0.3743 0.9194
vn 0.2397 0.3771 0.8946
vn 0.1851 0.6991 0.6907
vn 0.0937 0.6960 0.7119
vn 0.1983 0.9180 0.3434
vn 0.2804 0.9180 0.2804
vn 0.1262 0.9839 0.1262
vn 0.1851 0.6991 0.6907
vn 0.3575 0.6991 0.6192
vn 0.1983 0.9180 0.3434
vn 0.1026 0.9180 0.3830
vn 0.0937 0.6960 0.7119
vn 0.1851 0.6991 0.6907
vn 0.1026 0.9180 0.3830
vn 0.0521 0.9168 0.3960
vn 0.1026 0.9180 0.3830
vn 0.1983 0.9180 0.3434
vn 0.1262 0.9839 0.1262
vn 0.0521 0.9168 0.3960
vn 0.1026 0.9180 0.3830
vn 0.1262 0.9839 0.1262
# 122 vertex normals

vt 0.2401 0.1652 0.0000
vt 0.2401 0.6527 0.0000
vt 0.2131 0.6527 0.0000
vt 0.2131 0.1652 0.0000
vt 0.1812 0.6527 0.0000
vt 0.1812 0.1652 0.0000
vt 0.1493 0.6527 0.0000
vt 0.1493 0.1652 0.0000
vt 0.1223 0.6527 0.0000
vt 0.1223 0.1652 0.0000
vt 0.2458 0.1423 0.0000
vt 0.2458 0.1609 0.0000
vt 0.2176 0.1579 0.0000
vt 0.2204 0.1400 0.0000
vt 0.2458 0.1237 0.0000
vt 0.2219 0.1223 0.0000
vt 0.1914 0.1455 0.0000
vt 0.1958 0.1325 0.0000
vt 0.2458 0.1044 0.0000
vt 0.2224 0.1045 0.0000
vt 0.1980 0.1187 0.0000
vt 0.1692 0.1269 0.0000
vt 0.1724 0.1202 0.0000
vt 0.2458 0.0852 0.0000
vt 0.2219 0.0867 0.0000
vt 0.1988 0.1045 0.0000
vt 0.1741 0.1126 0.0000
vt 0.1503 0.1045 0.0000
vt 0.2458 0.0666 0.0000
vt 0.2204 0.0690 0.0000
vt 0.1980 0.0904 0.0000
vt 0.1747 0.1045 0.0000
vt 0.2458 0.0480 0.0000
vt 0.2175 0.0511 0.0000
vt 0.1958 0.0765 0.0000
vt 0.1741 0.0964 0.0000
vt 0.1914 0.0634 0.0000
vt 0.1724 0.0888 0.0000
vt 0.1692 0.0821 0.0000
# 39 texture coords

o InnerBevil
g InnerBevil
s off
f 158/70/685 159/71/686 160/72/687 161/73/688 
f 161/73/689 160/72/690 162/74/691 163/75/692 
f 163/75/693 162/74/694 164/76/695 165/77/696 
f 165/77/697 164/76/698 166/78/699 167/79/700 
f 159/70/701 168/71/702 169/72/703 170/73/704 
f 170/73/705 169/72/706 171/74/707 172/75/708 
f 172/75/709 171/74/710 173/76/711 174/77/712 
f 174/77/713 173/76/714 175/78/715 176/79/716 
f 177/80/717 166/81/718 164/82/719 178/83/720 
f 179/84/721 177/80/722 178/83/723 180/85/724 
f 178/83/725 164/82/726 162/86/727 181/87/728 
f 182/88/729 179/84/730 180/85/731 183/89/732 
f 180/85/733 178/83/734 181/87/735 184/90/736 
f 181/87/737 162/86/738 160/91/739 185/92/740 
f 186/93/741 182/88/742 183/89/743 187/94/744 
f 183/89/745 180/85/746 184/90/747 188/95/748 
f 184/90/749 181/87/750 185/92/751 189/96/752 
f 185/92/753 160/91/754 159/97/755 
f 190/98/756 186/93/757 187/94/758 191/99/759 
f 187/94/760 183/89/761 188/95/762 192/100/763 
f 189/96/764 185/92/765 159/97/766 
f 188/95/767 184/90/768 189/96/769 193/101/770 
f 176/102/771 190/98/772 191/99/773 174/103/774 
f 191/99/775 187/94/776 192/100/777 194/104/778 
f 193/101/779 189/96/780 159/97/781 
f 192/100/782 188/95/783 193/101/784 195/105/785 
f 174/103/786 191/99/787 194/104/788 172/106/789 
f 195/105/790 193/101/791 159/97/792 
f 194/104/793 192/100/794 195/105/795 196/107/796 
f 172/106/797 194/104/798 196/107/799 170/108/800 
f 196/107/801 195/105/802 159/97/803 
f 170/108/804 196/107/805 159/97/806 
# 26 polygons - 6 triangles

#
# object InnerGlass
#

v  -11.4832 274.7430 11.4829
v  -30.8205 273.4755 30.8203
v  -11.4832 273.4755 30.8204
v  -61.1136 267.4498 61.1134
v  -11.4832 267.4498 61.1136
v  -90.3611 257.5216 90.3608
v  -11.4832 257.5216 90.3612
v  -118.0624 243.8608 118.0622
v  -11.4833 243.8608 118.0626
v  -143.7437 226.7011 143.7435
v  -11.4833 226.7011 143.7439
v  -166.9655 206.3361 166.9652
v  -11.4833 206.3361 166.9658
v  -187.3304 183.1142 187.3302
v  -11.4833 183.1142 187.3308
v  -204.4901 157.4329 204.4898
v  -11.4834 157.4329 204.4905
v  -209.3207 147.6378 209.3204
v  -11.4834 147.6378 209.3211
v  -214.1764 137.7953 214.1762
v  -218.1509 129.7314 218.1506
v  -11.4834 129.7314 218.1513
v  -11.4834 137.7953 214.1768
v  -228.0791 100.4839 228.0788
v  -11.4834 100.4839 228.0796
v  -234.1047 70.1907 234.1045
v  -11.4834 70.1907 234.1052
v  -235.1623 49.2126 235.1620
v  -11.4833 49.2126 235.1628
v  -30.8206 273.4755 11.4829
v  -61.1137 267.4498 11.4829
v  -90.3613 257.5216 11.4829
v  -118.0627 243.8608 11.4830
v  -143.7441 226.7011 11.4830
v  -166.9659 206.3361 11.4830
v  -187.3309 183.1142 11.4831
v  -204.4907 157.4329 11.4831
v  -209.3212 147.6378 11.4831
v  -214.1770 137.7953 11.4831
v  -218.1515 129.7314 11.4831
v  -228.0797 100.4839 11.4831
v  -234.1054 70.1907 11.4831
v  -235.1630 49.2126 11.4830
v  -11.4831 274.7430 11.4829
v  -11.4831 273.4755 30.8204
v  -90.3610 257.5216 90.3608
v  -11.4832 243.8608 118.0626
v  -11.4832 226.7011 143.7439
v  -11.4833 157.4329 204.4905
v  -11.4833 147.6378 209.3211
v  -209.3206 147.6378 209.3204
v  -11.4833 137.7953 214.1768
v  -11.4833 129.7314 218.1513
v  -11.4833 100.4839 228.0796
v  -11.4832 49.2126 235.1628
v  -204.4906 157.4329 11.4831
# 56 vertices

vn -0.0419 0.9987 0.0295
vn -0.0969 0.9920 0.0805
vn -0.0000 0.9914 0.1305
vn -0.0969 0.9920 0.0805
vn -0.1721 0.9740 0.1471
vn -0.0000 0.9659 0.2588
vn -0.0000 0.9914 0.1305
vn -0.1721 0.9740 0.1471
vn -0.2460 0.9451 0.2152
vn -0.0000 0.9239 0.3827
vn -0.0000 0.9659 0.2588
vn -0.2460 0.9451 0.2152
vn -0.3185 0.9041 0.2850
vn -0.0000 0.8660 0.5000
vn -0.0000 0.9239 0.3827
vn -0.3185 0.9041 0.2850
vn -0.3891 0.8495 0.3562
vn -0.0000 0.7934 0.6088
vn -0.0000 0.8660 0.5000
vn -0.3891 0.8495 0.3562
vn -0.4572 0.7797 0.4279
vn -0.0000 0.7071 0.7071
vn -0.0000 0.7934 0.6088
vn -0.4572 0.7797 0.4279
vn -0.5216 0.6927 0.4981
vn -0.0000 0.6088 0.7934
vn -0.0000 0.7071 0.7071
vn -0.5216 0.6927 0.4981
vn -0.5804 0.5871 0.5643
vn -0.0000 0.5000 0.8660
vn -0.0000 0.6088 0.7934
vn -0.5804 0.5871 0.5643
vn -0.5850 0.5440 0.6015
vn -0.0000 0.4423 0.8969
vn -0.0000 0.5000 0.8660
vn -0.6114 0.5423 0.5763
vn -0.6313 0.4623 0.6227
vn -0.0000 0.3826 0.9239
vn -0.0000 0.4421 0.8970
vn -0.6313 0.4623 0.6227
vn -0.6710 0.3200 0.6689
vn -0.0000 0.2588 0.9659
vn -0.0000 0.3826 0.9239
vn -0.6710 0.3200 0.6689
vn -0.6972 0.1538 0.7002
vn -0.0000 0.1230 0.9924
vn -0.0000 0.2588 0.9659
vn -0.6972 0.1538 0.7002
vn -0.7040 0.0661 0.7071
vn -0.0000 0.0503 0.9987
vn -0.0000 0.1230 0.9924
vn -0.0419 0.9987 0.0295
vn -0.1516 0.9884 0.0000
vn -0.0969 0.9920 0.0805
vn -0.0969 0.9920 0.0805
vn -0.1516 0.9884 0.0000
vn -0.2980 0.9546 0.0000
vn -0.1721 0.9740 0.1471
vn -0.1721 0.9740 0.1471
vn -0.2980 0.9546 0.0000
vn -0.4346 0.9006 0.0000
vn -0.2460 0.9451 0.2152
vn -0.2460 0.9451 0.2152
vn -0.4346 0.9006 0.0000
vn -0.5581 0.8298 0.0000
vn -0.3185 0.9041 0.2850
vn -0.3185 0.9041 0.2850
vn -0.5581 0.8298 0.0000
vn -0.6665 0.7455 0.0000
vn -0.3891 0.8495 0.3562
vn -0.3891 0.8495 0.3562
vn -0.6665 0.7455 0.0000
vn -0.7588 0.6513 0.0000
vn -0.4572 0.7797 0.4279
vn -0.4572 0.7797 0.4279
vn -0.7588 0.6513 0.0000
vn -0.8352 0.5500 0.0000
vn -0.5216 0.6927 0.4981
vn -0.5216 0.6927 0.4981
vn -0.8352 0.5500 0.0000
vn -0.8960 0.4440 0.0000
vn -0.5804 0.5871 0.5643
vn -0.5804 0.5871 0.5643
vn -0.8960 0.4440 0.0000
vn -0.9211 0.3894 0.0000
vn -0.5850 0.5440 0.6015
vn -0.6114 0.5423 0.5763
vn -0.9212 0.3892 0.0000
vn -0.9423 0.3348 0.0000
vn -0.6313 0.4623 0.6227
vn -0.6313 0.4623 0.6227
vn -0.9423 0.3348 0.0000
vn -0.9746 0.2241 0.0000
vn -0.6710 0.3200 0.6689
vn -0.6710 0.3200 0.6689
vn -0.9746 0.2241 0.0000
vn -0.9944 0.1058 0.0000
vn -0.6972 0.1538 0.7002
vn -0.6972 0.1538 0.7002
vn -0.9944 0.1058 0.0000
vn -0.9991 0.0432 0.0000
vn -0.7040 0.0661 0.7071
vn 0.0419 -0.9987 -0.0295
vn 0.0000 -0.9914 -0.1305
vn 0.0969 -0.9920 -0.0805
vn 0.0969 -0.9920 -0.0805
vn 0.0000 -0.9914 -0.1305
vn 0.0000 -0.9659 -0.2588
vn 0.0969 -0.9920 -0.0805
vn 0.0000 -0.9659 -0.2588
vn 0.1721 -0.9740 -0.1471
vn 0.1721 -0.9740 -0.1471
vn 0.0000 -0.9659 -0.2588
vn 0.0000 -0.9239 -0.3827
vn 0.1721 -0.9740 -0.1471
vn 0.0000 -0.9239 -0.3827
vn 0.2460 -0.9451 -0.2152
vn 0.2460 -0.9451 -0.2152
vn 0.0000 -0.9239 -0.3827
vn 0.0000 -0.8660 -0.5000
vn 0.3185 -0.9041 -0.2850
vn 0.3185 -0.9041 -0.2850
vn 0.0000 -0.8660 -0.5000
vn 0.0000 -0.7934 -0.6088
vn 0.3185 -0.9041 -0.2850
vn 0.0000 -0.7934 -0.6088
vn 0.3891 -0.8495 -0.3562
vn 0.3891 -0.8495 -0.3562
vn 0.0000 -0.7934 -0.6088
vn 0.0000 -0.7071 -0.7071
vn 0.3891 -0.8495 -0.3562
vn 0.0000 -0.7071 -0.7071
vn 0.4572 -0.7797 -0.4279
vn 0.4572 -0.7797 -0.4279
vn 0.0000 -0.7071 -0.7071
vn 0.0000 -0.6088 -0.7934
vn 0.4572 -0.7797 -0.4279
vn 0.0000 -0.6088 -0.7934
vn 0.5216 -0.6927 -0.4981
vn 0.5216 -0.6927 -0.4981
vn 0.0000 -0.6088 -0.7934
vn 0.0000 -0.5000 -0.8660
vn 0.5216 -0.6927 -0.4981
vn 0.0000 -0.5000 -0.8660
vn 0.5804 -0.5871 -0.5643
vn 0.5804 -0.5871 -0.5643
vn 0.0000 -0.5000 -0.8660
vn 0.0000 -0.4423 -0.8969
vn 0.5850 -0.5440 -0.6015
vn 0.6114 -0.5423 -0.5763
vn 0.0000 -0.4421 -0.8970
vn 0.0000 -0.3826 -0.9239
vn 0.6114 -0.5423 -0.5763
vn 0.0000 -0.3826 -0.9239
vn 0.6313 -0.4623 -0.6227
vn 0.6313 -0.4623 -0.6227
vn 0.0000 -0.3826 -0.9239
vn 0.0000 -0.2588 -0.9659
vn 0.6313 -0.4623 -0.6227
vn 0.0000 -0.2588 -0.9659
vn 0.6710 -0.3200 -0.6689
vn 0.6710 -0.3200 -0.6689
vn 0.0000 -0.2588 -0.9659
vn 0.0000 -0.1230 -0.9924
vn 0.6710 -0.3200 -0.6689
vn 0.0000 -0.1230 -0.9924
vn 0.6972 -0.1538 -0.7002
vn 0.6972 -0.1538 -0.7002
vn 0.0000 -0.1230 -0.9924
vn 0.0000 -0.0503 -0.9987
vn 0.6972 -0.1538 -0.7002
vn 0.0000 -0.0503 -0.9987
vn 0.7040 -0.0661 -0.7071
vn 0.0419 -0.9987 -0.0295
vn 0.0969 -0.9920 -0.0805
vn 0.1516 -0.9884 -0.0000
vn 0.0969 -0.9920 -0.0805
vn 0.1721 -0.9740 -0.1471
vn 0.2980 -0.9546 -0.0000
vn 0.0969 -0.9920 -0.0805
vn 0.2980 -0.9546 -0.0000
vn 0.1516 -0.9884 -0.0000
vn 0.1721 -0.9740 -0.1471
vn 0.2460 -0.9451 -0.2152
vn 0.4346 -0.9006 -0.0000
vn 0.1721 -0.9740 -0.1471
vn 0.4346 -0.9006 -0.0000
vn 0.2980 -0.9546 -0.0000
vn 0.2460 -0.9451 -0.2152
vn 0.3185 -0.9041 -0.2850
vn 0.5581 -0.8298 -0.0000
vn 0.2460 -0.9451 -0.2152
vn 0.5581 -0.8298 -0.0000
vn 0.4346 -0.9006 -0.0000
vn 0.3185 -0.9041 -0.2850
vn 0.3891 -0.8495 -0.3562
vn 0.6665 -0.7455 -0.0000
vn 0.3185 -0.9041 -0.2850
vn 0.6665 -0.7455 -0.0000
vn 0.5581 -0.8298 -0.0000
vn 0.3891 -0.8495 -0.3562
vn 0.4572 -0.7797 -0.4279
vn 0.7588 -0.6513 -0.0000
vn 0.3891 -0.8495 -0.3562
vn 0.7588 -0.6513 -0.0000
vn 0.6665 -0.7455 -0.0000
vn 0.4572 -0.7797 -0.4279
vn 0.5216 -0.6927 -0.4981
vn 0.8352 -0.5500 -0.0000
vn 0.4572 -0.7797 -0.4279
vn 0.8352 -0.5500 -0.0000
vn 0.7588 -0.6513 -0.0000
vn 0.5216 -0.6927 -0.4981
vn 0.5804 -0.5871 -0.5643
vn 0.8960 -0.4440 -0.0000
vn 0.5216 -0.6927 -0.4981
vn 0.8960 -0.4440 -0.0000
vn 0.8352 -0.5500 -0.0000
vn 0.5804 -0.5871 -0.5643
vn 0.5850 -0.5440 -0.6015
vn 0.9211 -0.3894 -0.0000
vn 0.5804 -0.5871 -0.5643
vn 0.9211 -0.3894 -0.0000
vn 0.8960 -0.4440 -0.0000
vn 0.6114 -0.5423 -0.5763
vn 0.6313 -0.4623 -0.6227
vn 0.9423 -0.3348 -0.0000
vn 0.6114 -0.5423 -0.5763
vn 0.9423 -0.3348 -0.0000
vn 0.9212 -0.3892 -0.0000
vn 0.6313 -0.4623 -0.6227
vn 0.6710 -0.3200 -0.6689
vn 0.9746 -0.2241 -0.0000
vn 0.6313 -0.4623 -0.6227
vn 0.9746 -0.2241 -0.0000
vn 0.9423 -0.3348 -0.0000
vn 0.6710 -0.3200 -0.6689
vn 0.6972 -0.1538 -0.7002
vn 0.9944 -0.1058 -0.0000
vn 0.6710 -0.3200 -0.6689
vn 0.9944 -0.1058 -0.0000
vn 0.9746 -0.2241 -0.0000
vn 0.6972 -0.1538 -0.7002
vn 0.7040 -0.0661 -0.7071
vn 0.9991 -0.0432 -0.0000
vn 0.6972 -0.1538 -0.7002
vn 0.9991 -0.0432 -0.0000
vn 0.9944 -0.1058 -0.0000
# 248 vertex normals

vt 0.7350 0.0155 0.0000
vt 0.9143 0.0100 0.0000
vt 0.9094 0.0089 0.0000
vt 0.9094 0.0205 0.0000
vt 0.9094 0.0233 0.0000
vt 0.8853 0.0089 0.0000
vt 0.8453 0.0089 0.0000
vt 0.8994 0.0233 0.0000
vt 0.8453 0.0233 0.0000
vt 0.8483 0.0164 0.0000
vt 0.7812 0.0089 0.0000
vt 0.8207 0.0144 0.0000
vt 0.7812 0.0233 0.0000
vt 0.8064 0.0189 0.0000
vt 0.7171 0.0089 0.0000
vt 0.7661 0.0123 0.0000
vt 0.7171 0.0233 0.0000
vt 0.7614 0.0144 0.0000
vt 0.6898 0.0161 0.0000
vt 0.7593 0.0179 0.0000
vt 0.7579 0.0207 0.0000
vt 0.6531 0.0089 0.0000
vt 0.6704 0.0129 0.0000
vt 0.7080 0.0109 0.0000
vt 0.6531 0.0233 0.0000
vt 0.7019 0.0216 0.0000
vt 0.5890 0.0089 0.0000
vt 0.6690 0.0138 0.0000
vt 0.5890 0.0161 0.0000
# 29 texture coords

o InnerGlass
g InnerGlass
s off
f 197/109/807 198/110/808 199/111/809 
f 198/110/810 200/112/811 201/113/812 199/111/813 
f 200/112/814 202/114/815 203/115/816 201/113/817 
f 202/114/818 204/116/819 205/117/820 203/115/821 
f 204/116/822 206/118/823 207/119/824 205/117/825 
f 206/118/826 208/120/827 209/121/828 207/119/829 
f 208/120/830 210/122/831 211/123/832 209/121/833 
f 210/122/834 212/124/835 213/125/836 211/123/837 
f 212/124/838 214/126/839 215/127/840 213/125/841 
f 216/128/842 217/129/843 218/130/844 219/131/845 
f 217/129/846 220/132/847 221/133/848 218/130/849 
f 220/132/850 222/134/851 223/135/852 221/133/853 
f 222/134/854 224/136/855 225/137/856 223/135/857 
f 197/109/858 226/111/859 198/110/860 
f 198/110/861 226/111/862 227/113/863 200/112/864 
f 200/112/865 227/113/866 228/115/867 202/114/868 
f 202/114/869 228/115/870 229/117/871 204/116/872 
f 204/116/873 229/117/874 230/119/875 206/118/876 
f 206/118/877 230/119/878 231/121/879 208/120/880 
f 208/120/881 231/121/882 232/123/883 210/122/884 
f 210/122/885 232/123/886 233/125/887 212/124/888 
f 212/124/889 233/125/890 234/127/891 214/126/892 
f 216/128/893 235/131/894 236/130/895 217/129/896 
f 217/129/897 236/130/898 237/133/899 220/132/900 
f 220/132/901 237/133/902 238/135/903 222/134/904 
f 222/134/905 238/135/906 239/137/907 224/136/908 
f 240/109/909 241/111/910 198/110/911 
f 198/110/912 241/111/913 201/113/914 
f 198/110/915 201/113/916 200/112/917 
f 200/112/918 201/113/919 203/115/920 
f 200/112/921 203/115/922 242/114/923 
f 242/114/924 203/115/925 243/117/926 204/116/927 
f 204/116/928 243/117/929 244/119/930 
f 204/116/931 244/119/932 206/118/933 
f 206/118/934 244/119/935 209/121/936 
f 206/118/937 209/121/938 208/120/939 
f 208/120/940 209/121/941 211/123/942 
f 208/120/943 211/123/944 210/122/945 
f 210/122/946 211/123/947 245/125/948 
f 210/122/949 245/125/950 212/124/951 
f 212/124/952 245/125/953 246/127/954 247/126/955 
f 216/128/956 248/131/957 249/130/958 
f 216/128/959 249/130/960 217/129/961 
f 217/129/962 249/130/963 250/133/964 
f 217/129/965 250/133/966 220/132/967 
f 220/132/968 250/133/969 223/135/970 
f 220/132/971 223/135/972 222/134/973 
f 222/134/974 223/135/975 251/137/976 
f 222/134/977 251/137/978 224/136/979 
f 240/109/980 198/110/981 226/111/982 
f 198/110/983 200/112/984 227/113/985 
f 198/110/986 227/113/987 226/111/988 
f 200/112/989 242/114/990 228/115/991 
f 200/112/992 228/115/993 227/113/994 
f 242/114/995 204/116/996 229/117/997 
f 242/114/998 229/117/999 228/115/1000 
f 204/116/1001 206/118/1002 230/119/1003 
f 204/116/1004 230/119/1005 229/117/1006 
f 206/118/1007 208/120/1008 231/121/1009 
f 206/118/1010 231/121/1011 230/119/1012 
f 208/120/1013 210/122/1014 232/123/1015 
f 208/120/1016 232/123/1017 231/121/1018 
f 210/122/1019 212/124/1020 252/125/1021 
f 210/122/1022 252/125/1023 232/123/1024 
f 212/124/1025 247/126/1026 234/127/1027 
f 212/124/1028 234/127/1029 252/125/1030 
f 216/128/1031 217/129/1032 236/130/1033 
f 216/128/1034 236/130/1035 235/131/1036 
f 217/129/1037 220/132/1038 237/133/1039 
f 217/129/1040 237/133/1041 236/130/1042 
f 220/132/1043 222/134/1044 238/135/1045 
f 220/132/1046 238/135/1047 237/133/1048 
f 222/134/1049 224/136/1050 239/137/1051 
f 222/134/1052 239/137/1053 238/135/1054 
# 26 polygons - 48 triangles

#
# object OuterBevil
#

v  -236.2203 39.3701 275.5908
v  -236.2201 39.3701 236.2198
v  -251.2901 36.3679 251.2898
v  -251.2901 36.3679 275.5909
v  -264.0610 27.8348 264.0607
v  -264.0608 27.8348 275.5909
v  -272.5943 15.0641 272.5939
v  -272.5939 15.0641 275.5908
v  -275.5908 0.0000 275.5905
v  -275.5911 39.3701 236.2200
v  -275.5912 36.3679 251.2898
v  -275.5912 27.8348 264.0605
v  -275.5911 15.0641 272.5936
# 13 vertices

vn -0.1954 0.9807 -0.0000
vn -0.1081 0.9887 0.1037
vn -0.1569 0.9728 0.1705
vn -0.3828 0.9238 0.0000
vn -0.3828 0.9238 0.0000
vn -0.1569 0.9728 0.1705
vn -0.3747 0.8338 0.4055
vn -0.7071 0.7071 0.0000
vn -0.7071 0.7071 0.0000
vn -0.3747 0.8338 0.4055
vn -0.5929 0.5178 0.6168
vn -0.9239 0.3827 0.0001
vn -0.9239 0.3827 0.0001
vn -0.5929 0.5178 0.6168
vn -0.6276 0.2505 0.7371
vn 0.0000 0.9740 0.2264
vn -0.0000 0.9025 0.4307
vn -0.1569 0.9728 0.1705
vn -0.1081 0.9887 0.1037
vn -0.0000 0.9025 0.4307
vn -0.0000 0.6552 0.7555
vn -0.3747 0.8338 0.4055
vn -0.1569 0.9728 0.1705
vn -0.0000 0.6552 0.7555
vn -0.0001 0.3378 0.9412
vn -0.5929 0.5178 0.6168
vn -0.3747 0.8338 0.4055
vn -0.0001 0.3378 0.9412
vn -0.6276 0.2505 0.7371
vn -0.5929 0.5178 0.6168
# 30 vertex normals

vt 0.2401 0.1652 0.0000
vt 0.2401 0.2348 0.0000
vt 0.2131 0.2082 0.0000
vt 0.2131 0.1652 0.0000
vt 0.1812 0.1856 0.0000
vt 0.1812 0.1652 0.0000
vt 0.1493 0.1705 0.0000
vt 0.1493 0.1652 0.0000
vt 0.1223 0.1652 0.0000
# 9 texture coords

o OuterBevil
g OuterBevil
s off
f 253/138/1055 254/139/1056 255/140/1057 256/141/1058 
f 256/141/1059 255/140/1060 257/142/1061 258/143/1062 
f 258/143/1063 257/142/1064 259/144/1065 260/145/1066 
f 260/145/1067 259/144/1068 261/146/1069 
f 262/138/1070 263/141/1071 255/140/1072 254/139/1073 
f 263/141/1074 264/143/1075 257/142/1076 255/140/1077 
f 264/143/1078 265/145/1079 259/144/1080 257/142/1081 
f 265/145/1082 261/146/1083 259/144/1084 
# 6 polygons - 2 triangles

#
# object OuterGlass
#

v  -30.8205 273.4755 30.8205
v  -264.1078 273.4755 30.8207
v  -264.1078 274.8506 9.8427
v  -9.8426 274.8507 9.8426
v  -166.9655 206.3361 166.9654
v  -264.1079 206.3361 166.9661
v  -264.1079 226.7011 143.7442
v  -143.7437 226.7011 143.7437
v  -264.1079 243.8608 118.0629
v  -118.0624 243.8608 118.0624
v  -218.1509 129.7314 218.1508
v  -264.1080 129.7314 218.1516
v  -264.1080 137.7954 214.1771
v  -214.1764 137.7953 214.1764
v  -264.1080 157.4329 204.4908
v  -204.4901 157.4329 204.4900
v  -209.3206 147.6378 209.3206
v  -264.1080 147.6378 209.3214
v  -61.1136 267.4498 61.1136
v  -264.1078 267.4499 61.1139
v  -90.3610 257.5216 90.3611
v  -264.1078 257.5216 90.3614
v  -187.3304 183.1142 187.3304
v  -264.1079 183.1142 187.3311
v  -228.0791 100.4839 228.0790
v  -264.1080 100.4839 228.0798
v  -234.1047 70.1907 234.1047
v  -264.1080 70.1907 234.1055
v  -235.1623 49.2126 235.1622
v  -264.1079 49.2126 235.1630
v  -9.8425 274.8506 264.1075
v  -30.8205 273.4755 264.1076
v  -143.7441 226.7011 264.1076
v  -166.9659 206.3361 264.1077
v  -118.0627 243.8608 264.1076
v  -214.1770 137.7954 264.1078
v  -218.1515 129.7314 264.1078
v  -204.4906 157.4329 264.1078
v  -209.3212 147.6378 264.1078
v  -61.1137 267.4499 264.1076
v  -90.3613 257.5216 264.1076
v  -187.3309 183.1142 264.1077
v  -228.0797 100.4839 264.1078
v  -234.1054 70.1907 264.1078
v  -235.1629 49.2126 264.1077
v  -264.1078 226.7011 143.7442
v  -264.1078 243.8608 118.0629
v  -218.1508 129.7314 218.1508
v  -61.1135 267.4498 61.1136
v  -30.8204 273.4755 264.1076
v  -143.7440 226.7011 264.1076
v  -90.3612 257.5216 264.1076
# 52 vertices

vn 0.0556 -0.9972 -0.0509
vn -0.0000 -0.9914 -0.1305
vn 0.0000 -0.9979 -0.0654
vn 0.0345 -0.9988 -0.0359
vn 0.4313 -0.8086 -0.4002
vn -0.0000 -0.7071 -0.7071
vn -0.0000 -0.7934 -0.6088
vn 0.3586 -0.8744 -0.3268
vn 0.3586 -0.8744 -0.3268
vn -0.0000 -0.7934 -0.6088
vn -0.0000 -0.8660 -0.5000
vn 0.2840 -0.9243 -0.2549
vn 0.6237 -0.4917 -0.6076
vn -0.0000 -0.3826 -0.9239
vn -0.0000 -0.4421 -0.8970
vn 0.5852 -0.5437 -0.6016
vn -0.0000 -0.5000 -0.8660
vn 0.5663 -0.6192 -0.5439
vn 0.6113 -0.5425 -0.5762
vn -0.0000 -0.4423 -0.8969
vn -0.0000 -0.9914 -0.1305
vn 0.0556 -0.9972 -0.0509
vn 0.1321 -0.9843 -0.1172
vn -0.0000 -0.9659 -0.2588
vn 0.2084 -0.9604 -0.1851
vn -0.0000 -0.9239 -0.3827
vn -0.0000 -0.9659 -0.2588
vn 0.1321 -0.9843 -0.1172
vn -0.0000 -0.9239 -0.3827
vn 0.2084 -0.9604 -0.1851
vn 0.2840 -0.9243 -0.2549
vn -0.0000 -0.8660 -0.5000
vn 0.5012 -0.7243 -0.4734
vn -0.0000 -0.6088 -0.7934
vn -0.0000 -0.7071 -0.7071
vn 0.4313 -0.8086 -0.4002
vn -0.0000 -0.6088 -0.7934
vn 0.5012 -0.7243 -0.4734
vn 0.5663 -0.6192 -0.5439
vn -0.0000 -0.5000 -0.8660
vn -0.0000 -0.3826 -0.9239
vn 0.6237 -0.4917 -0.6076
vn 0.6693 -0.3430 -0.6591
vn -0.0000 -0.2588 -0.9659
vn -0.0000 -0.2588 -0.9659
vn 0.6693 -0.3430 -0.6591
vn 0.7003 -0.1672 -0.6940
vn -0.0000 -0.1230 -0.9924
vn 0.7072 -0.0660 -0.7039
vn -0.0000 -0.0503 -0.9987
vn -0.0000 -0.1230 -0.9924
vn 0.7003 -0.1672 -0.6940
vn 0.0556 -0.9972 -0.0509
vn 0.0345 -0.9988 -0.0359
vn 0.0763 -0.9971 -0.0000
vn 0.1516 -0.9884 0.0000
vn 0.4313 -0.8086 -0.4002
vn 0.3586 -0.8744 -0.3268
vn 0.6665 -0.7455 0.0000
vn 0.7588 -0.6513 0.0000
vn 0.3586 -0.8744 -0.3268
vn 0.2840 -0.9243 -0.2549
vn 0.5581 -0.8298 0.0000
vn 0.6665 -0.7455 0.0000
vn 0.6237 -0.4917 -0.6076
vn 0.5852 -0.5437 -0.6016
vn 0.9212 -0.3892 0.0000
vn 0.9423 -0.3348 0.0000
vn 0.8960 -0.4440 0.0000
vn 0.9211 -0.3894 0.0000
vn 0.6113 -0.5425 -0.5762
vn 0.5663 -0.6192 -0.5439
vn 0.1516 -0.9884 0.0000
vn 0.2980 -0.9546 0.0000
vn 0.1321 -0.9843 -0.1172
vn 0.0556 -0.9972 -0.0509
vn 0.2084 -0.9604 -0.1851
vn 0.1321 -0.9843 -0.1172
vn 0.2980 -0.9546 0.0000
vn 0.4346 -0.9006 0.0000
vn 0.4346 -0.9006 0.0000
vn 0.5581 -0.8298 0.0000
vn 0.2840 -0.9243 -0.2549
vn 0.2084 -0.9604 -0.1851
vn 0.5012 -0.7243 -0.4734
vn 0.4313 -0.8086 -0.4002
vn 0.7588 -0.6513 0.0000
vn 0.8352 -0.5500 0.0000
vn 0.8352 -0.5500 0.0000
vn 0.8960 -0.4440 0.0000
vn 0.5663 -0.6192 -0.5439
vn 0.5012 -0.7243 -0.4734
vn 0.9423 -0.3348 0.0000
vn 0.9746 -0.2241 0.0000
vn 0.6693 -0.3430 -0.6591
vn 0.6237 -0.4917 -0.6076
vn 0.9746 -0.2241 0.0000
vn 0.9944 -0.1058 0.0000
vn 0.7003 -0.1672 -0.6940
vn 0.6693 -0.3430 -0.6591
vn 0.7072 -0.0660 -0.7039
vn 0.7003 -0.1672 -0.6940
vn 0.9944 -0.1058 0.0000
vn 0.9991 -0.0432 0.0000
vn -0.0556 0.9972 0.0509
vn -0.0345 0.9988 0.0359
vn -0.0000 0.9979 0.0654
vn -0.0556 0.9972 0.0509
vn -0.0000 0.9979 0.0654
vn 0.0000 0.9914 0.1305
vn -0.4313 0.8086 0.4002
vn -0.3586 0.8744 0.3268
vn 0.0000 0.7934 0.6088
vn -0.4313 0.8086 0.4002
vn 0.0000 0.7934 0.6088
vn 0.0000 0.7071 0.7071
vn -0.3586 0.8744 0.3268
vn -0.2840 0.9243 0.2549
vn 0.0000 0.8660 0.5000
vn -0.3586 0.8744 0.3268
vn 0.0000 0.8660 0.5000
vn 0.0000 0.7934 0.6088
vn -0.6237 0.4917 0.6076
vn -0.5852 0.5437 0.6016
vn 0.0000 0.4421 0.8970
vn 0.0000 0.3826 0.9239
vn 0.0000 0.5000 0.8660
vn 0.0000 0.4423 0.8969
vn -0.6113 0.5425 0.5762
vn 0.0000 0.5000 0.8660
vn -0.6113 0.5425 0.5762
vn -0.5663 0.6192 0.5439
vn 0.0000 0.9914 0.1305
vn 0.0000 0.9659 0.2588
vn -0.1321 0.9843 0.1172
vn 0.0000 0.9914 0.1305
vn -0.1321 0.9843 0.1172
vn -0.0556 0.9972 0.0509
vn -0.2084 0.9604 0.1851
vn -0.1321 0.9843 0.1172
vn 0.0000 0.9659 0.2588
vn -0.2084 0.9604 0.1851
vn 0.0000 0.9659 0.2588
vn 0.0000 0.9239 0.3827
vn 0.0000 0.9239 0.3827
vn 0.0000 0.8660 0.5000
vn -0.2840 0.9243 0.2549
vn 0.0000 0.9239 0.3827
vn -0.2840 0.9243 0.2549
vn -0.2084 0.9604 0.1851
vn -0.5012 0.7243 0.4734
vn -0.4313 0.8086 0.4002
vn 0.0000 0.7071 0.7071
vn -0.5012 0.7243 0.4734
vn 0.0000 0.7071 0.7071
vn 0.0000 0.6088 0.7934
vn 0.0000 0.6088 0.7934
vn 0.0000 0.5000 0.8660
vn -0.5663 0.6192 0.5439
vn 0.0000 0.6088 0.7934
vn -0.5663 0.6192 0.5439
vn -0.5012 0.7243 0.4734
vn 0.0000 0.3826 0.9239
vn 0.0000 0.2588 0.9659
vn -0.6693 0.3430 0.6591
vn 0.0000 0.3826 0.9239
vn -0.6693 0.3430 0.6591
vn -0.6237 0.4917 0.6076
vn 0.0000 0.2588 0.9659
vn 0.0000 0.1230 0.9924
vn -0.7003 0.1672 0.6940
vn 0.0000 0.2588 0.9659
vn -0.7003 0.1672 0.6940
vn -0.6693 0.3430 0.6591
vn -0.7072 0.0660 0.7039
vn -0.7003 0.1672 0.6940
vn 0.0000 0.1230 0.9924
vn -0.7072 0.0660 0.7039
vn 0.0000 0.1230 0.9924
vn 0.0000 0.0503 0.9987
vn -0.0556 0.9972 0.0509
vn -0.1516 0.9884 -0.0000
vn -0.0763 0.9971 0.0000
vn -0.0556 0.9972 0.0509
vn -0.0763 0.9971 0.0000
vn -0.0345 0.9988 0.0359
vn -0.4313 0.8086 0.4002
vn -0.7588 0.6513 -0.0000
vn -0.6665 0.7455 -0.0000
vn -0.4313 0.8086 0.4002
vn -0.6665 0.7455 -0.0000
vn -0.3586 0.8744 0.3268
vn -0.3586 0.8744 0.3268
vn -0.6665 0.7455 -0.0000
vn -0.5581 0.8298 -0.0000
vn -0.3586 0.8744 0.3268
vn -0.5581 0.8298 -0.0000
vn -0.2840 0.9243 0.2549
vn -0.6237 0.4917 0.6076
vn -0.9423 0.3348 -0.0000
vn -0.9212 0.3892 -0.0000
vn -0.5852 0.5437 0.6016
vn -0.8960 0.4440 -0.0000
vn -0.5663 0.6192 0.5439
vn -0.6113 0.5425 0.5762
vn -0.8960 0.4440 -0.0000
vn -0.6113 0.5425 0.5762
vn -0.9211 0.3894 -0.0000
vn -0.1516 0.9884 -0.0000
vn -0.0556 0.9972 0.0509
vn -0.1321 0.9843 0.1172
vn -0.2980 0.9546 -0.0000
vn -0.2084 0.9604 0.1851
vn -0.4346 0.9006 -0.0000
vn -0.2980 0.9546 -0.0000
vn -0.2084 0.9604 0.1851
vn -0.2980 0.9546 -0.0000
vn -0.1321 0.9843 0.1172
vn -0.4346 0.9006 -0.0000
vn -0.2084 0.9604 0.1851
vn -0.2840 0.9243 0.2549
vn -0.4346 0.9006 -0.0000
vn -0.2840 0.9243 0.2549
vn -0.5581 0.8298 -0.0000
vn -0.5012 0.7243 0.4734
vn -0.8352 0.5500 -0.0000
vn -0.7588 0.6513 -0.0000
vn -0.5012 0.7243 0.4734
vn -0.7588 0.6513 -0.0000
vn -0.4313 0.8086 0.4002
vn -0.8352 0.5500 -0.0000
vn -0.5012 0.7243 0.4734
vn -0.5663 0.6192 0.5439
vn -0.8352 0.5500 -0.0000
vn -0.5663 0.6192 0.5439
vn -0.8960 0.4440 -0.0000
vn -0.9423 0.3348 -0.0000
vn -0.6237 0.4917 0.6076
vn -0.6693 0.3430 0.6591
vn -0.9423 0.3348 -0.0000
vn -0.6693 0.3430 0.6591
vn -0.9746 0.2241 -0.0000
vn -0.9746 0.2241 -0.0000
vn -0.6693 0.3430 0.6591
vn -0.7003 0.1672 0.6940
vn -0.9746 0.2241 -0.0000
vn -0.7003 0.1672 0.6940
vn -0.9944 0.1058 -0.0000
vn -0.7072 0.0660 0.7039
vn -0.9991 0.0432 -0.0000
vn -0.9944 0.1058 -0.0000
vn -0.7072 0.0660 0.7039
vn -0.9944 0.1058 -0.0000
vn -0.7003 0.1672 0.6940
# 254 vertex normals

vt 0.9143 0.0100 0.0000
vt 0.9735 0.0233 0.0000
vt 0.9735 0.0135 0.0000
vt 0.7202 0.0161 0.0000
vt 0.8207 0.0144 0.0000
vt 0.8453 0.0089 0.0000
vt 0.9094 0.0233 0.0000
vt 0.8483 0.0164 0.0000
vt 0.8994 0.0233 0.0000
vt 0.7579 0.0207 0.0000
vt 0.7812 0.0233 0.0000
vt 0.7812 0.0191 0.0000
vt 0.7593 0.0179 0.0000
vt 0.7812 0.0089 0.0000
vt 0.7661 0.0123 0.0000
vt 0.7614 0.0144 0.0000
vt 0.7812 0.0140 0.0000
vt 0.9094 0.0205 0.0000
vt 0.9094 0.0089 0.0000
vt 0.8853 0.0089 0.0000
vt 0.9735 0.0089 0.0000
vt 0.8064 0.0189 0.0000
vt 0.8453 0.0233 0.0000
vt 0.7080 0.0109 0.0000
vt 0.7171 0.0089 0.0000
vt 0.7019 0.0216 0.0000
vt 0.7171 0.0233 0.0000
vt 0.6690 0.0138 0.0000
vt 0.6793 0.0135 0.0000
# 29 texture coords

o OuterGlass
g OuterGlass
s off
f 266/147/1085 267/148/1086 268/149/1087 269/150/1088 
f 270/151/1089 271/152/1090 272/153/1091 273/154/1092 
f 273/154/1093 272/153/1094 274/148/1095 275/155/1096 
f 276/156/1097 277/157/1098 278/158/1099 279/159/1100 
f 280/160/1101 281/161/1102 282/162/1103 283/163/1104 
f 267/148/1105 266/147/1106 284/164/1107 285/165/1108 
f 286/166/1109 287/167/1110 285/165/1111 284/164/1112 
f 287/167/1113 286/166/1114 275/155/1115 274/148/1116 
f 288/168/1117 289/169/1118 271/152/1119 270/151/1120 
f 289/169/1121 288/168/1122 281/161/1123 280/160/1124 
f 277/157/1125 276/156/1126 290/170/1127 291/171/1128 
f 291/171/1129 290/170/1130 292/172/1131 293/173/1132 
f 294/174/1133 295/175/1134 293/173/1135 292/172/1136 
f 266/147/1137 269/150/1138 296/149/1139 297/148/1140 
f 270/151/1141 273/154/1142 298/153/1143 299/152/1144 
f 273/154/1145 275/155/1146 300/148/1147 298/153/1148 
f 276/156/1149 279/159/1150 301/158/1151 302/157/1152 
f 303/160/1153 304/163/1154 282/162/1155 281/161/1156 
f 297/148/1157 305/165/1158 284/164/1159 266/147/1160 
f 286/166/1161 284/164/1162 305/165/1163 306/167/1164 
f 306/167/1165 300/148/1166 275/155/1167 286/166/1168 
f 288/168/1169 270/151/1170 299/152/1171 307/169/1172 
f 307/169/1173 303/160/1174 281/161/1175 288/168/1176 
f 302/157/1177 308/171/1178 290/170/1179 276/156/1180 
f 308/171/1181 309/173/1182 292/172/1183 290/170/1184 
f 294/174/1185 292/172/1186 309/173/1187 310/175/1188 
f 266/147/1189 269/150/1190 268/149/1191 
f 266/147/1192 268/149/1193 267/148/1194 
f 270/151/1195 273/154/1196 311/153/1197 
f 270/151/1198 311/153/1199 271/152/1200 
f 273/154/1201 275/155/1202 312/148/1203 
f 273/154/1204 312/148/1205 311/153/1206 
f 313/156/1207 279/159/1208 278/158/1209 277/157/1210 
f 280/160/1211 283/163/1212 282/162/1213 
f 280/160/1214 282/162/1215 281/161/1216 
f 267/148/1217 285/165/1218 314/164/1219 
f 267/148/1220 314/164/1221 266/147/1222 
f 286/166/1223 314/164/1224 285/165/1225 
f 286/166/1226 285/165/1227 287/167/1228 
f 287/167/1229 312/148/1230 275/155/1231 
f 287/167/1232 275/155/1233 286/166/1234 
f 288/168/1235 270/151/1236 271/152/1237 
f 288/168/1238 271/152/1239 289/169/1240 
f 289/169/1241 280/160/1242 281/161/1243 
f 289/169/1244 281/161/1245 288/168/1246 
f 277/157/1247 291/171/1248 290/170/1249 
f 277/157/1250 290/170/1251 313/156/1252 
f 291/171/1253 293/173/1254 292/172/1255 
f 291/171/1256 292/172/1257 290/170/1258 
f 294/174/1259 292/172/1260 293/173/1261 
f 294/174/1262 293/173/1263 295/175/1264 
f 266/147/1265 315/148/1266 296/149/1267 
f 266/147/1268 296/149/1269 269/150/1270 
f 270/151/1271 299/152/1272 316/153/1273 
f 270/151/1274 316/153/1275 273/154/1276 
f 273/154/1277 316/153/1278 300/148/1279 
f 273/154/1280 300/148/1281 275/155/1282 
f 313/156/1283 302/157/1284 301/158/1285 279/159/1286 
f 303/160/1287 281/161/1288 282/162/1289 
f 303/160/1290 282/162/1291 304/163/1292 
f 315/148/1293 266/147/1294 314/164/1295 305/165/1296 
f 286/166/1297 317/167/1298 305/165/1299 
f 286/166/1300 305/165/1301 314/164/1302 
f 317/167/1303 286/166/1304 275/155/1305 
f 317/167/1306 275/155/1307 300/148/1308 
f 288/168/1309 307/169/1310 299/152/1311 
f 288/168/1312 299/152/1313 270/151/1314 
f 307/169/1315 288/168/1316 281/161/1317 
f 307/169/1318 281/161/1319 303/160/1320 
f 302/157/1321 313/156/1322 290/170/1323 
f 302/157/1324 290/170/1325 308/171/1326 
f 308/171/1327 290/170/1328 292/172/1329 
f 308/171/1330 292/172/1331 309/173/1332 
f 294/174/1333 310/175/1334 309/173/1335 
f 294/174/1336 309/173/1337 292/172/1338 
# 29 polygons - 46 triangles

