# 3ds Max Wavefront OBJ Exporter v0.97b - (c)2007 guruware
# File Created: 10.06.2025 12:31:20

#
# object TriangleRoomCollider
#

v  -589.1759 0.0000 -236.3192
v  -591.5907 0.0000 -237.4778
v  -609.4041 -0.0000 -202.0518
v  -589.1759 -0.0000 -196.8455
v  -589.1759 -191.2877 -215.7619
v  -589.1759 -175.4070 -199.5891
v  -608.3024 -175.4070 -204.2409
v  -601.8080 -191.2877 -217.1452
v  -589.1759 -196.8432 -236.3192
v  -591.5907 -196.8432 -237.4778
v  -591.5907 -150.5860 -237.4778
v  -589.1759 -150.5860 -236.3192
v  -609.4041 -157.4130 -202.0518
v  -589.1759 -157.4130 -196.8456
v  -610.5159 -191.2877 -226.3882
v  -623.5048 -175.4070 -216.7525
v  -764.3632 -175.4070 -406.4406
v  -751.3743 -191.2877 -416.0763
v  -734.8639 0.0000 -428.3243
v  -735.0997 0.0000 -431.3319
v  -774.5618 0.0000 -424.9407
v  -766.5665 0.0000 -404.8060
v  -772.1268 -175.4070 -425.4355
v  -757.7726 -191.2877 -428.3523
v  -734.8639 -196.8431 -428.3244
v  -735.0997 -196.8431 -431.3320
v  -735.0997 -150.5815 -431.3320
v  -734.8639 -150.5860 -428.3244
v  -774.5618 -157.4130 -424.9407
v  -766.5665 -157.4130 -404.8060
v  -735.3354 0.0000 -434.3395
v  -671.9982 0.0001 -643.8041
v  -708.9341 0.0001 -657.7294
v  -773.7029 0.0000 -443.6195
v  -755.3168 -191.2877 -439.1724
v  -771.0363 -175.4070 -442.9745
v  -706.3669 -175.4070 -656.7616
v  -691.2339 -191.2876 -651.0562
v  -708.9341 -157.4129 -657.7294
v  -773.7029 -157.4130 -443.6195
v  -583.3842 0.0001 -844.6964
v  -618.4911 0.0001 -862.7429
v  -616.0511 -175.4069 -861.4886
v  -601.6675 -191.2876 -854.0948
v  -618.4911 -157.4129 -862.7429
v  -471.9205 0.0001 -1033.4546
v  -504.5696 0.0001 -1055.6404
v  -502.3004 -175.4069 -1054.0985
v  -488.9237 -191.2876 -1045.0087
v  -504.5696 -157.4129 -1055.6404
v  -338.6735 0.0001 -1207.9003
v  -368.5166 0.0002 -1233.7374
v  -366.4424 -175.4069 -1231.9417
v  -354.2154 -191.2875 -1221.3560
v  -368.5166 -157.4128 -1233.7374
v  -185.8085 0.0001 -1365.3972
v  -212.4139 0.0002 -1394.5576
v  -210.5648 -175.4069 -1392.5309
v  -199.6643 -191.2876 -1380.5836
v  -212.4139 -157.4128 -1394.5576
v  -15.6850 0.0002 -1503.1509
v  -38.3145 0.0002 -1535.4941
v  -36.7417 -175.4068 -1533.2462
v  -27.4702 -191.2875 -1519.9948
v  -38.3145 -157.4128 -1535.4941
v  -8.1274 0.0001 -1506.9806
v  -20.0488 0.0002 -1544.6111
v  -19.2203 -175.4068 -1541.9957
v  -14.3359 -191.2875 -1526.5780
v  -20.0488 -157.4128 -1544.6111
v  0.0000 0.0001 -1508.7281
v  0.0000 0.0002 -1548.1846
v  0.0000 -175.4068 -1545.4423
v  0.0000 -191.2875 -1529.2765
v  0.0000 -157.4128 -1548.1846
v  -116.8532 -157.4130 -196.8456
v  -116.8532 -0.0000 -196.8455
v  -116.8532 0.0000 -236.3192
v  -116.8531 -191.2877 -215.7619
v  -116.8533 -175.4070 -199.5891
v  -625.7081 -157.4130 -215.1179
v  -594.0055 -196.8432 -238.6363
v  -671.9982 -196.8431 -643.8041
v  -735.3354 -196.8431 -434.3395
v  -583.3842 -196.8431 -844.6964
v  -471.9205 -196.8431 -1033.4546
v  -338.6735 -196.8430 -1207.9003
v  -185.8085 -196.8430 -1365.3972
v  -15.6850 -196.8430 -1503.1509
v  -8.1274 -196.8430 -1506.9806
v  0.0000 -196.8430 -1508.7281
v  -116.8532 -196.8432 -236.3192
v  -749.9384 -43.4058 -438.1546
v  -687.5111 -43.4057 -644.8336
v  -684.0708 -43.4057 -653.6206
v  -598.5974 -43.4057 -847.3929
v  -593.9354 -43.4057 -855.8652
v  -486.6761 -43.4057 -1037.5034
v  -480.9247 -43.4057 -1046.2003
v  -353.1160 -43.4057 -1213.5259
v  -345.8520 -43.4056 -1221.9652
v  -199.8976 -43.4056 -1372.3422
v  -190.9419 -43.4056 -1380.7413
v  -29.6114 -43.4056 -1511.3750
v  -762.3409 -43.4058 -441.7172
v  -699.6875 -43.4057 -648.5043
v  -695.7874 -43.4057 -658.6940
v  -610.3140 -43.4057 -852.4663
v  -605.1224 -43.4057 -862.4762
v  -497.8632 -43.4057 -1044.1144
v  -491.0718 -43.4057 -1053.9741
v  -363.2632 -43.4057 -1221.2997
v  -355.1442 -43.4056 -1230.8724
v  -209.1898 -43.4056 -1381.2494
v  -198.9350 -43.4056 -1390.6504
v  -37.6045 -43.4056 -1521.2841
v  -19.6852 -43.2620 -1518.0934
v  -10.2003 -43.2620 -1521.8038
v  0.0000 -43.2620 -1523.4968
v  -26.8288 -43.2620 -1528.9564
v  -13.9017 -43.2620 -1534.0134
v  0.0000 -43.2620 -1536.3208
v  -683.5913 -55.6617 -648.3711
v  -594.5980 -55.6616 -850.4821
v  -482.1898 -55.6616 -1040.5862
v  -348.0299 -55.6616 -1216.0786
v  -194.1846 -55.6616 -1374.5701
v  -22.9382 -55.5897 -1513.3204
v  -697.7374 -59.0586 -653.5991
v  -607.7181 -59.0586 -857.4713
v  -494.4674 -59.0586 -1049.0442
v  -359.2037 -59.0585 -1226.0861
v  -204.0624 -59.0586 -1385.9498
v  -32.2167 -58.9867 -1525.1202
v  -762.3409 -59.0319 -441.7172
v  -13.9017 -58.9436 -1534.0134
v  0.0000 -58.9436 -1536.3208
v  -671.9982 -150.5681 -643.8041
v  -735.3354 -150.5770 -434.3395
v  -583.3842 -150.5680 -844.6964
v  -471.9205 -150.5681 -1033.4546
v  -338.6735 -150.5680 -1207.9003
v  -185.8085 -150.5680 -1365.3972
v  -15.6850 -150.5680 -1503.1509
v  -8.1274 -150.5680 -1506.9806
v  0.0000 -150.5680 -1508.7281
v  -204.0624 -127.3611 -1385.9498
v  -32.2167 -127.2892 -1525.1202
v  -359.2037 -127.3610 -1226.0861
v  -494.4674 -127.3611 -1049.0442
v  -607.7181 -127.3611 -857.4713
v  -697.7374 -127.3611 -653.5991
v  -762.3409 -127.3344 -441.7172
v  -13.9017 -127.2460 -1534.0134
v  0.0000 -127.2461 -1536.3208
v  -116.8532 -150.5860 -236.3192
v  -594.0055 -150.5860 -238.6363
v  -594.0055 0.0000 -238.6363
v  -633.7906 0.0000 -285.3809
v  -658.9271 0.0000 -266.7336
v  -625.7081 -0.0000 -215.1179
v  -658.9388 -120.6138 -266.7250
v  -726.7697 -120.6138 -358.0700
v  -726.7814 0.0000 -358.0613
v  -701.6449 0.0000 -376.7086
v  -701.6332 -120.1909 -376.7173
v  -633.8024 -120.1909 -285.3723
v  -121.8087 -114.2456 -198.9399
v  -588.8221 -114.2456 -198.9399
v  -55.9842 -121.5692 -200.2204
v  -55.9842 -0.0000 -200.2204
v  -55.9842 0.0000 -232.9444
v  -55.9842 -121.5405 -232.9444
v  55.9842 -121.5405 -232.9444
v  116.8532 -150.5860 -236.3192
v  55.9842 -121.5692 -200.2204
v  116.8532 -196.8432 -236.3192
v  116.8531 -191.2877 -215.7619
v  589.1759 0.0000 -236.3192
v  589.1759 -0.0000 -196.8455
v  609.4042 -0.0000 -202.0518
v  591.5907 0.0000 -237.4778
v  589.1759 -191.2877 -215.7619
v  601.8080 -191.2877 -217.1452
v  608.3024 -175.4070 -204.2409
v  589.1759 -175.4070 -199.5891
v  589.1759 -196.8432 -236.3192
v  589.1759 -150.5860 -236.3192
v  591.5907 -150.5860 -237.4778
v  591.5907 -196.8432 -237.4778
v  589.1759 -157.4130 -196.8456
v  609.4042 -157.4130 -202.0518
v  610.5159 -191.2877 -226.3882
v  751.3743 -191.2877 -416.0763
v  764.3632 -175.4070 -406.4406
v  623.5048 -175.4070 -216.7525
v  734.8639 0.0000 -428.3243
v  766.5665 0.0000 -404.8060
v  774.5619 0.0000 -424.9407
v  735.0997 0.0000 -431.3319
v  757.7726 -191.2877 -428.3523
v  772.1268 -175.4070 -425.4355
v  734.8639 -196.8431 -428.3244
v  734.8639 -150.5860 -428.3244
v  735.0997 -150.5815 -431.3319
v  735.0997 -196.8431 -431.3320
v  766.5665 -157.4130 -404.8060
v  774.5619 -157.4130 -424.9407
v  735.3354 0.0000 -434.3395
v  773.7029 0.0000 -443.6195
v  708.9341 0.0001 -657.7294
v  671.9982 0.0001 -643.8041
v  755.3168 -191.2877 -439.1724
v  691.2339 -191.2876 -651.0562
v  706.3669 -175.4070 -656.7616
v  771.0363 -175.4070 -442.9745
v  773.7029 -157.4130 -443.6195
v  708.9341 -157.4129 -657.7294
v  618.4911 0.0001 -862.7429
v  583.3842 0.0001 -844.6964
v  601.6675 -191.2876 -854.0948
v  616.0511 -175.4069 -861.4886
v  618.4911 -157.4129 -862.7429
v  504.5696 0.0001 -1055.6404
v  471.9205 0.0001 -1033.4546
v  488.9237 -191.2876 -1045.0087
v  502.3004 -175.4069 -1054.0985
v  504.5696 -157.4129 -1055.6404
v  368.5166 0.0002 -1233.7374
v  338.6735 0.0001 -1207.9003
v  354.2154 -191.2875 -1221.3560
v  366.4424 -175.4069 -1231.9417
v  368.5166 -157.4128 -1233.7374
v  212.4139 0.0002 -1394.5576
v  185.8085 0.0001 -1365.3972
v  199.6643 -191.2876 -1380.5836
v  210.5648 -175.4069 -1392.5309
v  212.4139 -157.4128 -1394.5576
v  38.3145 0.0002 -1535.4941
v  15.6850 0.0002 -1503.1509
v  27.4702 -191.2875 -1519.9948
v  36.7417 -175.4068 -1533.2462
v  38.3145 -157.4128 -1535.4941
v  20.0488 0.0002 -1544.6111
v  8.1274 0.0001 -1506.9806
v  14.3359 -191.2875 -1526.5780
v  19.2203 -175.4068 -1541.9957
v  20.0488 -157.4128 -1544.6111
v  116.8532 -157.4130 -196.8456
v  116.8532 -0.0000 -196.8455
v  116.8532 0.0000 -236.3192
v  116.8533 -175.4070 -199.5891
v  625.7081 -157.4130 -215.1179
v  594.0055 -196.8432 -238.6363
v  735.3354 -196.8431 -434.3395
v  671.9982 -196.8431 -643.8041
v  583.3842 -196.8431 -844.6964
v  471.9205 -196.8431 -1033.4546
v  338.6735 -196.8430 -1207.9003
v  185.8085 -196.8430 -1365.3972
v  15.6850 -196.8430 -1503.1509
v  8.1274 -196.8430 -1506.9806
v  687.5111 -43.4057 -644.8336
v  749.9384 -43.4058 -438.1546
v  598.5974 -43.4057 -847.3929
v  684.0708 -43.4057 -653.6206
v  486.6761 -43.4057 -1037.5034
v  593.9354 -43.4057 -855.8652
v  353.1160 -43.4057 -1213.5259
v  480.9247 -43.4057 -1046.2003
v  199.8976 -43.4056 -1372.3422
v  345.8520 -43.4056 -1221.9652
v  29.6114 -43.4056 -1511.3750
v  190.9419 -43.4056 -1380.7413
v  699.6875 -43.4057 -648.5043
v  762.3409 -43.4058 -441.7172
v  610.3140 -43.4057 -852.4663
v  695.7874 -43.4057 -658.6940
v  497.8632 -43.4057 -1044.1144
v  605.1224 -43.4057 -862.4762
v  363.2632 -43.4057 -1221.2997
v  491.0718 -43.4057 -1053.9741
v  209.1898 -43.4056 -1381.2494
v  355.1442 -43.4056 -1230.8724
v  37.6045 -43.4056 -1521.2841
v  198.9350 -43.4056 -1390.6504
v  10.2003 -43.2620 -1521.8038
v  19.6852 -43.2620 -1518.0934
v  13.9017 -43.2620 -1534.0134
v  26.8288 -43.2620 -1528.9564
v  683.5913 -55.6617 -648.3711
v  594.5980 -55.6616 -850.4821
v  482.1898 -55.6616 -1040.5862
v  348.0299 -55.6616 -1216.0786
v  194.1846 -55.6616 -1374.5701
v  22.9382 -55.5897 -1513.3204
v  697.7374 -59.0586 -653.5991
v  607.7181 -59.0586 -857.4713
v  494.4674 -59.0586 -1049.0442
v  359.2037 -59.0585 -1226.0861
v  204.0624 -59.0586 -1385.9498
v  32.2167 -58.9867 -1525.1202
v  762.3409 -59.0319 -441.7172
v  13.9017 -58.9436 -1534.0134
v  735.3354 -150.5770 -434.3395
v  671.9982 -150.5681 -643.8041
v  583.3842 -150.5680 -844.6964
v  471.9205 -150.5681 -1033.4546
v  338.6735 -150.5680 -1207.9003
v  185.8085 -150.5680 -1365.3972
v  15.6850 -150.5680 -1503.1509
v  8.1274 -150.5680 -1506.9806
v  32.2167 -127.2892 -1525.1202
v  204.0624 -127.3611 -1385.9498
v  359.2037 -127.3610 -1226.0861
v  494.4674 -127.3611 -1049.0442
v  607.7181 -127.3611 -857.4713
v  697.7374 -127.3611 -653.5991
v  762.3409 -127.3344 -441.7172
v  13.9017 -127.2460 -1534.0134
v  594.0055 -150.5860 -238.6363
v  594.0055 0.0000 -238.6363
v  625.7081 -0.0000 -215.1179
v  658.9271 0.0000 -266.7336
v  633.7906 0.0000 -285.3809
v  658.9388 -120.6138 -266.7250
v  726.7697 -120.6138 -358.0700
v  726.7814 0.0000 -358.0613
v  701.6449 0.0000 -376.7086
v  701.6332 -120.1909 -376.7173
v  633.8024 -120.1909 -285.3723
v  588.8221 -114.2456 -198.9399
v  121.8087 -114.2456 -198.9399
v  55.9842 -0.0000 -200.2204
v  55.9842 0.0000 -232.9444
# 335 vertices

vn 0.2280 0.7101 -0.6661
vn 0.3059 0.7071 -0.6375
vn -0.3350 0.6627 0.6698
vn -0.0921 0.6799 0.7275
vn -0.0278 -0.8637 0.5033
vn -0.1052 -0.4442 0.8897
vn -0.4084 -0.4076 0.8167
vn -0.2476 -0.8313 0.4977
vn 0.1070 -0.8527 -0.5113
vn 0.2671 -0.7865 -0.5568
vn 0.4326 0.0000 -0.9016
vn 0.3588 0.1864 -0.9146
vn -0.0921 0.6799 0.7275
vn -0.3350 0.6627 0.6698
vn -0.4463 -0.0670 0.8924
vn -0.1245 -0.0746 0.9894
vn -0.3866 -0.8634 0.3242
vn -0.6502 -0.4439 0.6166
vn -0.7800 -0.4435 0.4415
vn -0.4304 -0.8617 0.2688
vn 0.6087 0.7664 -0.2051
vn 0.7049 0.7071 -0.0553
vn -0.7386 0.6627 0.1238
vn -0.6344 0.6722 0.3817
vn -0.4304 -0.8617 0.2688
vn -0.7800 -0.4435 0.4415
vn -0.8994 -0.4112 0.1486
vn -0.5492 -0.8332 0.0648
vn 0.4580 -0.8688 -0.1884
vn 0.6160 -0.7862 -0.0483
vn 0.9969 0.0000 -0.0782
vn 0.9405 0.0102 -0.3397
vn -0.6344 0.6722 0.3817
vn -0.7386 0.6627 0.1238
vn -0.9839 -0.0679 0.1652
vn -0.8659 -0.0649 0.4960
vn 0.7173 0.6967 -0.0032
vn 0.7515 0.5978 0.2791
vn -0.6755 0.6937 -0.2501
vn -0.7224 0.6803 -0.1239
vn -0.4846 -0.8653 -0.1282
vn -0.8809 -0.4458 -0.1591
vn -0.8372 -0.4506 -0.3100
vn -0.4729 -0.8635 -0.1751
vn -0.7224 0.6803 -0.1239
vn -0.6755 0.6937 -0.2501
vn -0.9351 -0.0754 -0.3463
vn -0.9828 -0.0750 -0.1689
vn 0.7515 0.5978 0.2791
vn 0.7118 0.5988 0.3671
vn -0.6404 0.6941 -0.3289
vn -0.6755 0.6937 -0.2501
vn -0.4729 -0.8635 -0.1751
vn -0.8372 -0.4506 -0.3100
vn -0.7941 -0.4507 -0.4078
vn -0.4484 -0.8637 -0.2303
vn -0.6755 0.6937 -0.2501
vn -0.6404 0.6941 -0.3289
vn -0.8870 -0.0754 -0.4556
vn -0.9351 -0.0754 -0.3463
vn 0.7118 0.5988 0.3671
vn 0.6641 0.5996 0.4466
vn -0.5971 0.6940 -0.4023
vn -0.6404 0.6941 -0.3289
vn -0.4484 -0.8637 -0.2303
vn -0.7941 -0.4507 -0.4078
vn -0.7403 -0.4507 -0.4988
vn -0.4181 -0.8636 -0.2817
vn -0.6404 0.6941 -0.3289
vn -0.5971 0.6940 -0.4023
vn -0.8270 -0.0754 -0.5572
vn -0.8870 -0.0754 -0.4556
vn 0.6641 0.5996 0.4466
vn 0.6067 0.5991 0.5226
vn -0.5453 0.6941 -0.4701
vn -0.5971 0.6940 -0.4023
vn -0.4181 -0.8636 -0.2817
vn -0.7403 -0.4507 -0.4988
vn -0.6761 -0.4507 -0.5828
vn -0.3818 -0.8637 -0.3291
vn -0.5971 0.6940 -0.4023
vn -0.5453 0.6941 -0.4701
vn -0.7553 -0.0754 -0.6511
vn -0.8270 -0.0754 -0.5572
vn 0.6067 0.5991 0.5226
vn 0.5412 0.5986 0.5905
vn -0.4858 0.6939 -0.5316
vn -0.5453 0.6941 -0.4701
vn -0.3818 -0.8637 -0.3291
vn -0.6761 -0.4507 -0.5828
vn -0.6022 -0.4507 -0.6590
vn -0.3401 -0.8636 -0.3722
vn -0.5453 0.6941 -0.4701
vn -0.4858 0.6939 -0.5316
vn -0.6727 -0.0754 -0.7361
vn -0.7553 -0.0754 -0.6511
vn 0.5412 0.5986 0.5905
vn 0.4315 0.6092 0.6654
vn -0.3950 0.6835 -0.6139
vn -0.4858 0.6939 -0.5316
vn -0.3401 -0.8636 -0.3722
vn -0.6022 -0.4507 -0.6590
vn -0.4845 -0.4467 -0.7521
vn -0.2760 -0.8601 -0.4290
vn -0.4858 0.6939 -0.5316
vn -0.3950 0.6835 -0.6139
vn -0.5397 -0.0751 -0.8385
vn -0.6727 -0.0754 -0.7361
vn 0.4315 0.6092 0.6654
vn 0.2670 0.6164 0.7408
vn -0.2315 0.6763 -0.6993
vn -0.3950 0.6835 -0.6139
vn -0.2760 -0.8601 -0.4290
vn -0.4845 -0.4467 -0.7521
vn -0.2819 -0.4442 -0.8504
vn -0.1645 -0.8580 -0.4865
vn -0.3950 0.6835 -0.6139
vn -0.2315 0.6763 -0.6993
vn -0.3133 -0.0751 -0.9467
vn -0.5397 -0.0751 -0.8385
vn 0.2670 0.6164 0.7408
vn 0.0000 0.6394 0.7689
vn -0.0000 0.6697 -0.7427
vn -0.2315 0.6763 -0.6993
vn -0.1645 -0.8580 -0.4865
vn -0.2819 -0.4442 -0.8504
vn 0.0000 -0.4415 -0.8972
vn 0.0000 -0.8548 -0.5190
vn -0.2315 0.6763 -0.6993
vn -0.0000 0.6697 -0.7427
vn 0.0000 -0.0749 -0.9972
vn -0.3133 -0.0751 -0.9467
vn 0.0092 -0.0676 0.9977
vn 0.0197 0.7009 0.7130
vn -0.0921 0.6799 0.7275
vn -0.1245 -0.0746 0.9894
vn 0.0197 0.7009 0.7130
vn -0.0568 0.6475 -0.7600
vn 0.2280 0.7101 -0.6661
vn -0.0921 0.6799 0.7275
vn -0.1052 -0.4442 0.8897
vn -0.0278 -0.8637 0.5033
vn 0.0000 -0.8678 0.4970
vn 0.0000 -0.4555 0.8902
vn -0.6502 -0.4439 0.6166
vn -0.4084 -0.4076 0.8167
vn -0.4463 -0.0670 0.8924
vn -0.7266 -0.0650 0.6840
vn -0.7800 -0.4435 0.4415
vn -0.6502 -0.4439 0.6166
vn -0.7266 -0.0650 0.6840
vn -0.8659 -0.0649 0.4960
vn -0.8809 -0.4458 -0.1591
vn -0.8994 -0.4112 0.1486
vn -0.9839 -0.0679 0.1652
vn -0.9828 -0.0750 -0.1689
vn -0.8372 -0.4506 -0.3100
vn -0.8809 -0.4458 -0.1591
vn -0.9828 -0.0750 -0.1689
vn -0.9351 -0.0754 -0.3463
vn -0.7941 -0.4507 -0.4078
vn -0.8372 -0.4506 -0.3100
vn -0.9351 -0.0754 -0.3463
vn -0.8870 -0.0754 -0.4556
vn -0.7403 -0.4507 -0.4988
vn -0.7941 -0.4507 -0.4078
vn -0.8870 -0.0754 -0.4556
vn -0.8270 -0.0754 -0.5572
vn -0.6761 -0.4507 -0.5828
vn -0.7403 -0.4507 -0.4988
vn -0.8270 -0.0754 -0.5572
vn -0.7553 -0.0754 -0.6511
vn -0.6022 -0.4507 -0.6590
vn -0.6761 -0.4507 -0.5828
vn -0.7553 -0.0754 -0.6511
vn -0.6727 -0.0754 -0.7361
vn -0.4845 -0.4467 -0.7521
vn -0.6022 -0.4507 -0.6590
vn -0.6727 -0.0754 -0.7361
vn -0.5397 -0.0751 -0.8385
vn -0.2819 -0.4442 -0.8504
vn -0.4845 -0.4467 -0.7521
vn -0.5397 -0.0751 -0.8385
vn -0.3133 -0.0751 -0.9467
vn 0.0000 -0.4415 -0.8972
vn -0.2819 -0.4442 -0.8504
vn -0.3133 -0.0751 -0.9467
vn 0.0000 -0.0749 -0.9972
vn -0.1052 -0.4442 0.8897
vn 0.0000 -0.4555 0.8902
vn 0.0092 -0.0676 0.9977
vn -0.1245 -0.0746 0.9894
vn -0.0278 -0.8637 0.5033
vn -0.2476 -0.8313 0.4977
vn 0.2671 -0.7865 -0.5568
vn 0.1070 -0.8527 -0.5113
vn -0.3866 -0.8634 0.3242
vn -0.4304 -0.8617 0.2688
vn 0.4580 -0.8688 -0.1884
vn 0.3353 -0.8580 -0.3892
vn -0.4304 -0.8617 0.2688
vn -0.5492 -0.8332 0.0648
vn 0.6160 -0.7862 -0.0483
vn 0.4580 -0.8688 -0.1884
vn -0.4846 -0.8653 -0.1282
vn -0.4729 -0.8635 -0.1751
vn 0.5512 -0.8090 0.2041
vn 0.5369 -0.8414 0.0621
vn -0.4729 -0.8635 -0.1751
vn -0.4484 -0.8637 -0.2303
vn 0.5234 -0.8085 0.2688
vn 0.5512 -0.8090 0.2041
vn -0.4484 -0.8637 -0.2303
vn -0.4181 -0.8636 -0.2817
vn 0.4878 -0.8087 0.3287
vn 0.5234 -0.8085 0.2688
vn -0.4181 -0.8636 -0.2817
vn -0.3818 -0.8637 -0.3291
vn 0.4457 -0.8085 0.3842
vn 0.4878 -0.8087 0.3287
vn -0.3818 -0.8637 -0.3291
vn -0.3401 -0.8636 -0.3722
vn 0.3968 -0.8088 0.4341
vn 0.4457 -0.8085 0.3842
vn -0.3401 -0.8636 -0.3722
vn -0.2760 -0.8601 -0.4290
vn 0.3114 -0.8203 0.4797
vn 0.3968 -0.8088 0.4341
vn -0.2760 -0.8601 -0.4290
vn -0.1645 -0.8580 -0.4865
vn 0.1875 -0.8261 0.5315
vn 0.3114 -0.8203 0.4797
vn -0.1645 -0.8580 -0.4865
vn 0.0000 -0.8548 -0.5190
vn 0.0000 -0.8472 0.5313
vn 0.1875 -0.8261 0.5315
vn 0.0000 -0.8678 0.4970
vn -0.0278 -0.8637 0.5033
vn 0.1070 -0.8527 -0.5113
vn 0.0000 -0.7940 -0.6079
vn 0.7173 0.6967 -0.0032
vn 0.5071 -0.4159 -0.7549
vn 0.3358 -0.5502 0.7646
vn 0.7515 0.5978 0.2791
vn 0.7515 0.5978 0.2791
vn 0.7591 -0.5526 -0.3441
vn 0.2540 -0.5461 0.7983
vn 0.7118 0.5988 0.3671
vn 0.7118 0.5988 0.3671
vn 0.7996 -0.5604 -0.2156
vn 0.1878 -0.5594 0.8073
vn 0.6641 0.5996 0.4466
vn 0.6641 0.5996 0.4466
vn 0.8165 -0.5659 -0.1146
vn 0.0916 -0.5641 0.8206
vn 0.6067 0.5991 0.5226
vn 0.6067 0.5991 0.5226
vn 0.8147 -0.5800 -0.0004
vn 0.0164 -0.5732 0.8193
vn 0.5412 0.5986 0.5905
vn 0.5412 0.5986 0.5905
vn 0.7966 -0.5936 0.1144
vn -0.0509 -0.5958 0.8015
vn 0.4315 0.6092 0.6654
vn 0.5071 -0.4159 -0.7549
vn 0.7176 -0.5766 -0.3906
vn 0.4452 -0.6460 0.6201
vn 0.3358 -0.5502 0.7646
vn 0.7591 -0.5526 -0.3441
vn 0.7387 -0.6484 -0.1841
vn 0.3701 -0.6487 0.6650
vn 0.2540 -0.5461 0.7983
vn 0.7996 -0.5604 -0.2156
vn 0.7551 -0.6495 -0.0894
vn 0.2927 -0.6510 0.7004
vn 0.1878 -0.5594 0.8073
vn 0.8165 -0.5659 -0.1146
vn 0.7568 -0.6536 0.0073
vn 0.2099 -0.6559 0.7250
vn 0.0916 -0.5641 0.8206
vn 0.8147 -0.5800 -0.0004
vn 0.7499 -0.6538 0.1005
vn 0.1379 -0.6606 0.7380
vn 0.0164 -0.5732 0.8193
vn 0.7966 -0.5936 0.1144
vn 0.7233 -0.6602 0.2024
vn 0.0407 -0.6576 0.7523
vn -0.0509 -0.5958 0.8015
vn 0.4315 0.6092 0.6654
vn 0.7623 -0.6168 0.1960
vn 0.1457 -0.8322 0.5350
vn 0.2670 0.6164 0.7408
vn 0.2670 0.6164 0.7408
vn 0.1457 -0.8322 0.5350
vn 0.0000 -0.8425 0.5386
vn 0.0000 0.6394 0.7689
vn 0.7623 -0.6168 0.1960
vn 0.6828 -0.6320 0.3665
vn 0.1935 -0.6844 0.7029
vn 0.1457 -0.8322 0.5350
vn 0.1457 -0.8322 0.5350
vn 0.1935 -0.6844 0.7029
vn 0.0000 -0.6720 0.7405
vn 0.0000 -0.8425 0.5386
vn 0.3358 -0.5502 0.7646
vn 0.5705 -0.7929 0.2143
vn 0.7515 0.5978 0.2791
vn 0.7515 0.5978 0.2791
vn 0.5705 -0.7929 0.2143
vn 0.7591 -0.5526 -0.3441
vn 0.2540 -0.5461 0.7983
vn 0.5273 -0.7959 0.2975
vn 0.7118 0.5988 0.3671
vn 0.7118 0.5988 0.3671
vn 0.5273 -0.7959 0.2975
vn 0.7996 -0.5604 -0.2156
vn 0.1878 -0.5594 0.8073
vn 0.4963 -0.7947 0.3494
vn 0.6641 0.5996 0.4466
vn 0.6641 0.5996 0.4466
vn 0.4963 -0.7947 0.3494
vn 0.8165 -0.5659 -0.1146
vn 0.0916 -0.5641 0.8206
vn 0.4447 -0.7926 0.4172
vn 0.6067 0.5991 0.5226
vn 0.6067 0.5991 0.5226
vn 0.4447 -0.7926 0.4172
vn 0.8147 -0.5800 -0.0004
vn 0.0164 -0.5732 0.8193
vn 0.3887 -0.7907 0.4730
vn 0.5412 0.5986 0.5905
vn 0.5412 0.5986 0.5905
vn 0.3887 -0.7907 0.4730
vn 0.7966 -0.5936 0.1144
vn -0.0509 -0.5958 0.8015
vn 0.3944 -0.7922 0.4657
vn 0.4315 0.6092 0.6654
vn 0.4452 -0.6460 0.6201
vn 0.9272 -0.1436 0.3459
vn 0.5705 -0.7929 0.2143
vn 0.3358 -0.5502 0.7646
vn 0.7591 -0.5526 -0.3441
vn 0.5705 -0.7929 0.2143
vn 0.9272 -0.1436 0.3459
vn 0.7387 -0.6484 -0.1841
vn 0.3701 -0.6487 0.6650
vn 0.8799 -0.1480 0.4515
vn 0.5273 -0.7959 0.2975
vn 0.2540 -0.5461 0.7983
vn 0.7996 -0.5604 -0.2156
vn 0.5273 -0.7959 0.2975
vn 0.8799 -0.1480 0.4515
vn 0.7551 -0.6495 -0.0894
vn 0.2927 -0.6510 0.7004
vn 0.8187 -0.1568 0.5524
vn 0.4963 -0.7947 0.3494
vn 0.1878 -0.5594 0.8073
vn 0.8165 -0.5659 -0.1146
vn 0.4963 -0.7947 0.3494
vn 0.8187 -0.1568 0.5524
vn 0.7568 -0.6536 0.0073
vn 0.2099 -0.6559 0.7250
vn 0.7489 -0.1641 0.6421
vn 0.4447 -0.7926 0.4172
vn 0.0916 -0.5641 0.8206
vn 0.8147 -0.5800 -0.0004
vn 0.4447 -0.7926 0.4172
vn 0.7489 -0.1641 0.6421
vn 0.7499 -0.6538 0.1005
vn 0.1379 -0.6606 0.7380
vn 0.6655 -0.1807 0.7242
vn 0.3887 -0.7907 0.4730
vn 0.0164 -0.5732 0.8193
vn 0.7966 -0.5936 0.1144
vn 0.3887 -0.7907 0.4730
vn 0.6655 -0.1807 0.7242
vn 0.7233 -0.6602 0.2024
vn 0.0407 -0.6576 0.7523
vn 0.5277 -0.1639 0.8335
vn 0.3944 -0.7922 0.4657
vn -0.0509 -0.5958 0.8015
vn 0.4315 0.6092 0.6654
vn 0.3944 -0.7922 0.4657
vn 0.7623 -0.6168 0.1960
vn 0.7623 -0.6168 0.1960
vn 0.3944 -0.7922 0.4657
vn 0.5277 -0.1639 0.8335
vn 0.6828 -0.6320 0.3665
vn 0.0407 -0.6576 0.7523
vn 0.7233 -0.6602 0.2024
vn 0.6655 -0.1807 0.7242
vn 0.5277 -0.1639 0.8335
vn 0.1379 -0.6606 0.7380
vn 0.7499 -0.6538 0.1005
vn 0.7489 -0.1641 0.6421
vn 0.6655 -0.1807 0.7242
vn 0.2099 -0.6559 0.7250
vn 0.7568 -0.6536 0.0073
vn 0.8187 -0.1568 0.5524
vn 0.7489 -0.1641 0.6421
vn 0.2927 -0.6510 0.7004
vn 0.7551 -0.6495 -0.0894
vn 0.8799 -0.1480 0.4515
vn 0.8187 -0.1568 0.5524
vn 0.3701 -0.6487 0.6650
vn 0.7387 -0.6484 -0.1841
vn 0.9272 -0.1436 0.3459
vn 0.8799 -0.1480 0.4515
vn 0.7176 -0.5766 -0.3906
vn 0.8787 0.0000 -0.4773
vn 0.9272 -0.1436 0.3459
vn 0.4452 -0.6460 0.6201
vn 0.6828 -0.6320 0.3665
vn 0.5277 -0.1639 0.8335
vn 0.3034 0.0000 0.9529
vn 0.1935 -0.6844 0.7029
vn 0.1935 -0.6844 0.7029
vn 0.3034 0.0000 0.9529
vn 0.0000 0.0000 1.0000
vn 0.0000 -0.6720 0.7405
vn 0.5512 -0.8090 0.2041
vn 0.8476 0.4280 0.3137
vn 0.9771 0.2051 -0.0575
vn 0.5369 -0.8414 0.0621
vn 0.5234 -0.8085 0.2688
vn 0.8043 0.4274 0.4129
vn 0.8476 0.4280 0.3137
vn 0.5512 -0.8090 0.2041
vn 0.4878 -0.8087 0.3287
vn 0.7501 0.4268 0.5052
vn 0.8043 0.4274 0.4129
vn 0.5234 -0.8085 0.2688
vn 0.4457 -0.8085 0.3842
vn 0.6851 0.4269 0.5903
vn 0.7501 0.4268 0.5052
vn 0.4878 -0.8087 0.3287
vn 0.3968 -0.8088 0.4341
vn 0.6100 0.4275 0.6672
vn 0.6851 0.4269 0.5903
vn 0.4457 -0.8085 0.3842
vn 0.3114 -0.8203 0.4797
vn 0.4894 0.4312 0.7580
vn 0.6100 0.4275 0.6672
vn 0.3968 -0.8088 0.4341
vn 0.1875 -0.8261 0.5315
vn 0.3041 0.4328 0.8486
vn 0.4894 0.4312 0.7580
vn 0.3114 -0.8203 0.4797
vn 0.0000 -0.8472 0.5313
vn 0.0000 0.4441 0.8960
vn 0.3041 0.4328 0.8486
vn 0.1875 -0.8261 0.5315
vn 0.6655 -0.1807 0.7242
vn 0.6136 0.4153 0.6716
vn 0.4905 0.4089 0.7696
vn 0.5277 -0.1639 0.8335
vn 0.7489 -0.1641 0.6421
vn 0.6891 0.4148 0.5942
vn 0.6136 0.4153 0.6716
vn 0.6655 -0.1807 0.7242
vn 0.8187 -0.1568 0.5524
vn 0.7545 0.4147 0.5087
vn 0.6891 0.4148 0.5942
vn 0.7489 -0.1641 0.6421
vn 0.8799 -0.1480 0.4515
vn 0.8090 0.4153 0.4160
vn 0.7545 0.4147 0.5087
vn 0.8187 -0.1568 0.5524
vn 0.9272 -0.1436 0.3459
vn 0.8525 0.4156 0.3169
vn 0.8090 0.4153 0.4160
vn 0.8799 -0.1480 0.4515
vn 0.8787 0.0000 -0.4773
vn 0.8526 0.3334 -0.4024
vn 0.8525 0.4156 0.3169
vn 0.9272 -0.1436 0.3459
vn 0.5277 -0.1639 0.8335
vn 0.4905 0.4089 0.7696
vn 0.2748 0.4063 0.8714
vn 0.3034 0.0000 0.9529
vn 0.3034 0.0000 0.9529
vn 0.2748 0.4063 0.8714
vn 0.0000 0.4051 0.9143
vn 0.0000 0.0000 1.0000
vn 0.8526 0.3334 -0.4024
vn 0.9771 0.2051 -0.0575
vn 0.8476 0.4280 0.3137
vn 0.8525 0.4156 0.3169
vn 0.2748 0.4063 0.8714
vn 0.3041 0.4328 0.8486
vn 0.0000 0.4441 0.8960
vn 0.0000 0.4051 0.9143
vn 0.4905 0.4089 0.7696
vn 0.4894 0.4312 0.7580
vn 0.3041 0.4328 0.8486
vn 0.2748 0.4063 0.8714
vn 0.6136 0.4153 0.6716
vn 0.6100 0.4275 0.6672
vn 0.4894 0.4312 0.7580
vn 0.4905 0.4089 0.7696
vn 0.6891 0.4148 0.5942
vn 0.6851 0.4269 0.5903
vn 0.6100 0.4275 0.6672
vn 0.6136 0.4153 0.6716
vn 0.7545 0.4147 0.5087
vn 0.7501 0.4268 0.5052
vn 0.6851 0.4269 0.5903
vn 0.6891 0.4148 0.5942
vn 0.8090 0.4153 0.4160
vn 0.8043 0.4274 0.4129
vn 0.7501 0.4268 0.5052
vn 0.7545 0.4147 0.5087
vn 0.8525 0.4156 0.3169
vn 0.8476 0.4280 0.3137
vn 0.8043 0.4274 0.4129
vn 0.8090 0.4153 0.4160
vn 0.3588 0.1864 -0.9146
vn 0.4326 0.0000 -0.9016
vn 0.3059 0.7071 -0.6375
vn 0.2280 0.7101 -0.6661
vn 0.9405 0.0102 -0.3397
vn 0.9969 0.0000 -0.0782
vn 0.7049 0.7071 -0.0553
vn 0.6087 0.7664 -0.2051
vn 0.3588 0.1864 -0.9146
vn -0.1225 0.1852 -0.9750
vn 0.0000 -0.7940 -0.6079
vn 0.1070 -0.8527 -0.5113
vn 0.9405 0.0102 -0.3397
vn 0.6271 0.0101 -0.7789
vn 0.3353 -0.8580 -0.3892
vn 0.4580 -0.8688 -0.1884
vn 0.7173 0.6967 -0.0032
vn 0.9771 0.2051 -0.0575
vn 0.5071 -0.4159 -0.7549
vn 0.5071 -0.4159 -0.7549
vn 0.9771 0.2051 -0.0575
vn 0.8526 0.3334 -0.4024
vn 0.8787 0.0000 -0.4773
vn 0.5071 -0.4159 -0.7549
vn 0.8787 0.0000 -0.4773
vn 0.7176 -0.5766 -0.3906
vn 0.3989 0.7569 -0.5177
vn 0.0924 0.5809 -0.8087
vn -0.8007 0.5810 -0.1461
vn -0.5497 0.6726 0.4954
vn -0.5497 0.6726 0.4954
vn -0.8007 0.5810 -0.1461
vn -0.8976 0.3480 0.2705
vn -0.7266 -0.0650 0.6840
vn -0.7266 -0.0650 0.6840
vn -0.8976 0.3480 0.2705
vn -0.5185 0.3477 0.7811
vn -0.8659 -0.0649 0.4960
vn -0.8659 -0.0649 0.4960
vn -0.5185 0.3477 0.7811
vn -0.0925 0.5809 0.8087
vn -0.6344 0.6722 0.3817
vn -0.6344 0.6722 0.3817
vn -0.0925 0.5809 0.8087
vn 0.8007 0.5810 0.1462
vn 0.6087 0.7664 -0.2051
vn 0.6087 0.7664 -0.2051
vn 0.8007 0.5810 0.1462
vn 0.8945 0.3620 -0.2622
vn 0.9405 0.0102 -0.3397
vn 0.9405 0.0102 -0.3397
vn 0.8945 0.3620 -0.2622
vn 0.5097 0.3617 -0.7806
vn 0.6271 0.0101 -0.7789
vn 0.6271 0.0101 -0.7789
vn 0.5097 0.3617 -0.7806
vn 0.0924 0.5809 -0.8087
vn 0.3989 0.7569 -0.5177
vn 0.5097 0.3617 -0.7806
vn -0.8976 0.3480 0.2705
vn -0.8007 0.5810 -0.1461
vn 0.0924 0.5809 -0.8087
vn 0.8945 0.3620 -0.2622
vn -0.5185 0.3477 0.7811
vn -0.8976 0.3480 0.2705
vn 0.5097 0.3617 -0.7806
vn 0.8007 0.5810 0.1462
vn -0.0925 0.5809 0.8087
vn -0.5185 0.3477 0.7811
vn 0.8945 0.3620 -0.2622
vn -0.0568 0.6475 -0.7600
vn -0.5501 0.1904 -0.8131
vn 0.6013 0.1905 -0.7760
vn 0.2280 0.7101 -0.6661
vn 0.2280 0.7101 -0.6661
vn 0.6013 0.1905 -0.7760
vn 0.3588 0.1864 -0.9146
vn 0.3588 0.1864 -0.9146
vn 0.6013 0.1905 -0.7760
vn -0.5501 0.1904 -0.8131
vn -0.1225 0.1852 -0.9750
vn -0.1225 0.1852 -0.9750
vn -0.5501 0.1904 -0.8131
vn -0.0568 0.6475 -0.7600
vn 0.0092 -0.0676 0.9977
vn 0.3176 0.3419 0.8845
vn 0.5916 0.5803 0.5597
vn 0.0197 0.7009 0.7130
vn 0.0197 0.7009 0.7130
vn 0.5916 0.5803 0.5597
vn 0.5916 0.5803 -0.5597
vn -0.0568 0.6475 -0.7600
vn -0.0568 0.6475 -0.7600
vn 0.5916 0.5803 -0.5597
vn 0.3162 0.3535 -0.8804
vn -0.1225 0.1852 -0.9750
vn 0.5916 0.5803 -0.5597
vn 0.5916 0.5803 0.5597
vn 0.3176 0.3419 0.8845
vn 0.3162 0.3535 -0.8804
vn 0.3059 0.7071 -0.6375
vn 0.3989 0.7569 -0.5177
vn -0.5497 0.6726 0.4954
vn -0.3350 0.6627 0.6698
vn -0.4084 -0.4076 0.8167
vn -0.6502 -0.4439 0.6166
vn -0.3866 -0.8634 0.3242
vn -0.2476 -0.8313 0.4977
vn 0.2671 -0.7865 -0.5568
vn 0.3353 -0.8580 -0.3892
vn 0.6271 0.0101 -0.7789
vn 0.4326 0.0000 -0.9016
vn -0.3350 0.6627 0.6698
vn -0.5497 0.6726 0.4954
vn -0.7266 -0.0650 0.6840
vn -0.4463 -0.0670 0.8924
vn 0.7049 0.7071 -0.0553
vn 0.7173 0.6967 -0.0032
vn -0.7224 0.6803 -0.1239
vn -0.7386 0.6627 0.1238
vn -0.8994 -0.4112 0.1486
vn -0.8809 -0.4458 -0.1591
vn -0.4846 -0.8653 -0.1282
vn -0.5492 -0.8332 0.0648
vn 0.6160 -0.7862 -0.0483
vn 0.5369 -0.8414 0.0621
vn 0.9771 0.2051 -0.0575
vn 0.9969 0.0000 -0.0782
vn -0.7386 0.6627 0.1238
vn -0.7224 0.6803 -0.1239
vn -0.9828 -0.0750 -0.1689
vn -0.9839 -0.0679 0.1652
vn -0.4084 -0.4076 0.8167
vn -0.1052 -0.4442 0.8897
vn -0.1245 -0.0746 0.9894
vn -0.4463 -0.0670 0.8924
vn -0.8994 -0.4112 0.1486
vn -0.7800 -0.4435 0.4415
vn -0.8659 -0.0649 0.4960
vn -0.9839 -0.0679 0.1652
vn -0.2476 -0.8313 0.4977
vn -0.3866 -0.8634 0.3242
vn 0.3353 -0.8580 -0.3892
vn 0.2671 -0.7865 -0.5568
vn -0.5492 -0.8332 0.0648
vn -0.4846 -0.8653 -0.1282
vn 0.5369 -0.8414 0.0621
vn 0.6160 -0.7862 -0.0483
vn 0.4326 0.0000 -0.9016
vn 0.6271 0.0101 -0.7789
vn 0.3989 0.7569 -0.5177
vn 0.3059 0.7071 -0.6375
vn 0.9969 0.0000 -0.0782
vn 0.9771 0.2051 -0.0575
vn 0.7173 0.6967 -0.0032
vn 0.7049 0.7071 -0.0553
vn -0.1225 0.1852 -0.9750
vn 0.3162 0.3535 -0.8804
vn -0.3162 0.3535 -0.8804
vn 0.1225 0.1852 -0.9750
vn 0.3162 0.3535 -0.8804
vn 0.3176 0.3419 0.8845
vn -0.3176 0.3419 0.8845
vn -0.3162 0.3535 -0.8804
vn 0.0000 -0.8678 0.4970
vn 0.0000 -0.7940 -0.6079
vn 0.0000 -0.7940 -0.6079
vn 0.0000 -0.8678 0.4970
vn -0.2280 0.7101 -0.6661
vn 0.0921 0.6799 0.7275
vn 0.3349 0.6627 0.6698
vn -0.3059 0.7071 -0.6375
vn 0.0278 -0.8637 0.5033
vn 0.2476 -0.8313 0.4977
vn 0.4084 -0.4076 0.8167
vn 0.1052 -0.4442 0.8897
vn -0.1070 -0.8527 -0.5113
vn -0.3588 0.1864 -0.9146
vn -0.4326 0.0000 -0.9016
vn -0.2671 -0.7865 -0.5568
vn 0.0921 0.6799 0.7275
vn 0.1245 -0.0746 0.9894
vn 0.4463 -0.0670 0.8924
vn 0.3349 0.6627 0.6698
vn 0.3866 -0.8634 0.3242
vn 0.4304 -0.8617 0.2688
vn 0.7800 -0.4435 0.4415
vn 0.6502 -0.4439 0.6166
vn -0.6087 0.7664 -0.2052
vn 0.6344 0.6722 0.3817
vn 0.7386 0.6627 0.1238
vn -0.7050 0.7071 -0.0553
vn 0.4304 -0.8617 0.2688
vn 0.5492 -0.8332 0.0648
vn 0.8994 -0.4112 0.1486
vn 0.7800 -0.4435 0.4415
vn -0.4580 -0.8687 -0.1884
vn -0.9405 0.0102 -0.3397
vn -0.9969 0.0000 -0.0782
vn -0.6160 -0.7863 -0.0483
vn 0.6344 0.6722 0.3817
vn 0.8659 -0.0649 0.4960
vn 0.9839 -0.0679 0.1652
vn 0.7386 0.6627 0.1238
vn -0.7173 0.6967 -0.0032
vn 0.7224 0.6803 -0.1239
vn 0.6755 0.6937 -0.2501
vn -0.7515 0.5978 0.2791
vn 0.4846 -0.8653 -0.1282
vn 0.4729 -0.8635 -0.1751
vn 0.8372 -0.4506 -0.3100
vn 0.8809 -0.4458 -0.1591
vn 0.7224 0.6803 -0.1239
vn 0.9828 -0.0750 -0.1689
vn 0.9351 -0.0754 -0.3463
vn 0.6755 0.6937 -0.2501
vn -0.7515 0.5978 0.2791
vn 0.6755 0.6937 -0.2501
vn 0.6404 0.6941 -0.3289
vn -0.7118 0.5988 0.3671
vn 0.4729 -0.8635 -0.1751
vn 0.4484 -0.8637 -0.2303
vn 0.7941 -0.4507 -0.4078
vn 0.8372 -0.4506 -0.3100
vn 0.6755 0.6937 -0.2501
vn 0.9351 -0.0754 -0.3463
vn 0.8870 -0.0754 -0.4556
vn 0.6404 0.6941 -0.3289
vn -0.7118 0.5988 0.3671
vn 0.6404 0.6941 -0.3289
vn 0.5971 0.6940 -0.4023
vn -0.6641 0.5996 0.4466
vn 0.4484 -0.8637 -0.2303
vn 0.4181 -0.8636 -0.2817
vn 0.7403 -0.4507 -0.4988
vn 0.7941 -0.4507 -0.4078
vn 0.6404 0.6941 -0.3289
vn 0.8870 -0.0754 -0.4556
vn 0.8270 -0.0754 -0.5572
vn 0.5971 0.6940 -0.4023
vn -0.6641 0.5996 0.4466
vn 0.5971 0.6940 -0.4023
vn 0.5453 0.6941 -0.4701
vn -0.6067 0.5991 0.5226
vn 0.4181 -0.8636 -0.2817
vn 0.3818 -0.8637 -0.3291
vn 0.6761 -0.4507 -0.5828
vn 0.7403 -0.4507 -0.4988
vn 0.5971 0.6940 -0.4023
vn 0.8270 -0.0754 -0.5572
vn 0.7553 -0.0754 -0.6511
vn 0.5453 0.6941 -0.4701
vn -0.6067 0.5991 0.5226
vn 0.5453 0.6941 -0.4701
vn 0.4858 0.6939 -0.5316
vn -0.5412 0.5986 0.5905
vn 0.3818 -0.8637 -0.3291
vn 0.3401 -0.8636 -0.3722
vn 0.6022 -0.4507 -0.6590
vn 0.6761 -0.4507 -0.5828
vn 0.5453 0.6941 -0.4701
vn 0.7553 -0.0754 -0.6511
vn 0.6727 -0.0754 -0.7361
vn 0.4858 0.6939 -0.5316
vn -0.5412 0.5986 0.5905
vn 0.4858 0.6939 -0.5316
vn 0.3950 0.6835 -0.6139
vn -0.4315 0.6092 0.6654
vn 0.3401 -0.8636 -0.3722
vn 0.2760 -0.8601 -0.4290
vn 0.4845 -0.4467 -0.7521
vn 0.6022 -0.4507 -0.6590
vn 0.4858 0.6939 -0.5316
vn 0.6727 -0.0754 -0.7361
vn 0.5397 -0.0751 -0.8385
vn 0.3950 0.6835 -0.6139
vn -0.4315 0.6092 0.6654
vn 0.3950 0.6835 -0.6139
vn 0.2315 0.6763 -0.6993
vn -0.2670 0.6164 0.7408
vn 0.2760 -0.8601 -0.4290
vn 0.1645 -0.8580 -0.4865
vn 0.2819 -0.4442 -0.8504
vn 0.4845 -0.4467 -0.7521
vn 0.3950 0.6835 -0.6139
vn 0.5397 -0.0751 -0.8385
vn 0.3133 -0.0751 -0.9467
vn 0.2315 0.6763 -0.6993
vn -0.2670 0.6164 0.7408
vn 0.2315 0.6763 -0.6993
vn -0.0000 0.6697 -0.7427
vn 0.0000 0.6394 0.7689
vn 0.1645 -0.8580 -0.4865
vn 0.0000 -0.8548 -0.5190
vn 0.0000 -0.4415 -0.8972
vn 0.2819 -0.4442 -0.8504
vn 0.2315 0.6763 -0.6993
vn 0.3133 -0.0751 -0.9467
vn 0.0000 -0.0749 -0.9972
vn -0.0000 0.6697 -0.7427
vn -0.0092 -0.0676 0.9977
vn 0.1245 -0.0746 0.9894
vn 0.0921 0.6799 0.7275
vn -0.0197 0.7009 0.7130
vn -0.0197 0.7009 0.7130
vn 0.0921 0.6799 0.7275
vn -0.2280 0.7101 -0.6661
vn 0.0568 0.6475 -0.7600
vn 0.1052 -0.4442 0.8897
vn 0.0000 -0.4555 0.8902
vn 0.0000 -0.8678 0.4970
vn 0.0278 -0.8637 0.5033
vn 0.6502 -0.4439 0.6166
vn 0.7266 -0.0650 0.6840
vn 0.4463 -0.0670 0.8924
vn 0.4084 -0.4076 0.8167
vn 0.7800 -0.4435 0.4415
vn 0.8659 -0.0649 0.4960
vn 0.7266 -0.0650 0.6840
vn 0.6502 -0.4439 0.6166
vn 0.8809 -0.4458 -0.1591
vn 0.9828 -0.0750 -0.1689
vn 0.9839 -0.0679 0.1652
vn 0.8994 -0.4112 0.1486
vn 0.8372 -0.4506 -0.3100
vn 0.9351 -0.0754 -0.3463
vn 0.9828 -0.0750 -0.1689
vn 0.8809 -0.4458 -0.1591
vn 0.7941 -0.4507 -0.4078
vn 0.8870 -0.0754 -0.4556
vn 0.9351 -0.0754 -0.3463
vn 0.8372 -0.4506 -0.3100
vn 0.7403 -0.4507 -0.4988
vn 0.8270 -0.0754 -0.5572
vn 0.8870 -0.0754 -0.4556
vn 0.7941 -0.4507 -0.4078
vn 0.6761 -0.4507 -0.5828
vn 0.7553 -0.0754 -0.6511
vn 0.8270 -0.0754 -0.5572
vn 0.7403 -0.4507 -0.4988
vn 0.6022 -0.4507 -0.6590
vn 0.6727 -0.0754 -0.7361
vn 0.7553 -0.0754 -0.6511
vn 0.6761 -0.4507 -0.5828
vn 0.4845 -0.4467 -0.7521
vn 0.5397 -0.0751 -0.8385
vn 0.6727 -0.0754 -0.7361
vn 0.6022 -0.4507 -0.6590
vn 0.2819 -0.4442 -0.8504
vn 0.3133 -0.0751 -0.9467
vn 0.5397 -0.0751 -0.8385
vn 0.4845 -0.4467 -0.7521
vn 0.0000 -0.4415 -0.8972
vn 0.0000 -0.0749 -0.9972
vn 0.3133 -0.0751 -0.9467
vn 0.2819 -0.4442 -0.8504
vn 0.1052 -0.4442 0.8897
vn 0.1245 -0.0746 0.9894
vn -0.0092 -0.0676 0.9977
vn 0.0000 -0.4555 0.8902
vn 0.0278 -0.8637 0.5033
vn -0.1070 -0.8527 -0.5113
vn -0.2671 -0.7865 -0.5568
vn 0.2476 -0.8313 0.4977
vn 0.3866 -0.8634 0.3242
vn -0.3353 -0.8580 -0.3892
vn -0.4580 -0.8687 -0.1884
vn 0.4304 -0.8617 0.2688
vn 0.4304 -0.8617 0.2688
vn -0.4580 -0.8687 -0.1884
vn -0.6160 -0.7863 -0.0483
vn 0.5492 -0.8332 0.0648
vn 0.4846 -0.8653 -0.1282
vn -0.5369 -0.8414 0.0621
vn -0.5512 -0.8090 0.2041
vn 0.4729 -0.8635 -0.1751
vn 0.4729 -0.8635 -0.1751
vn -0.5512 -0.8090 0.2041
vn -0.5234 -0.8085 0.2688
vn 0.4484 -0.8637 -0.2303
vn 0.4484 -0.8637 -0.2303
vn -0.5234 -0.8085 0.2688
vn -0.4878 -0.8087 0.3287
vn 0.4181 -0.8636 -0.2817
vn 0.4181 -0.8636 -0.2817
vn -0.4878 -0.8087 0.3287
vn -0.4457 -0.8085 0.3842
vn 0.3818 -0.8637 -0.3291
vn 0.3818 -0.8637 -0.3291
vn -0.4457 -0.8085 0.3842
vn -0.3968 -0.8088 0.4341
vn 0.3401 -0.8636 -0.3722
vn 0.3401 -0.8636 -0.3722
vn -0.3968 -0.8088 0.4341
vn -0.3114 -0.8203 0.4797
vn 0.2760 -0.8601 -0.4290
vn 0.2760 -0.8601 -0.4290
vn -0.3114 -0.8203 0.4797
vn -0.1875 -0.8261 0.5315
vn 0.1645 -0.8580 -0.4865
vn 0.1645 -0.8580 -0.4865
vn -0.1875 -0.8261 0.5315
vn 0.0000 -0.8472 0.5313
vn 0.0000 -0.8548 -0.5190
vn 0.0000 -0.8678 0.4970
vn 0.0000 -0.7940 -0.6079
vn -0.1070 -0.8527 -0.5113
vn 0.0278 -0.8637 0.5033
vn -0.7173 0.6967 -0.0032
vn -0.7515 0.5978 0.2791
vn -0.3358 -0.5502 0.7646
vn -0.5071 -0.4159 -0.7549
vn -0.7515 0.5978 0.2791
vn -0.7118 0.5988 0.3671
vn -0.2540 -0.5461 0.7983
vn -0.7591 -0.5526 -0.3441
vn -0.7118 0.5988 0.3671
vn -0.6641 0.5996 0.4466
vn -0.1878 -0.5594 0.8073
vn -0.7996 -0.5604 -0.2156
vn -0.6641 0.5996 0.4466
vn -0.6067 0.5991 0.5226
vn -0.0916 -0.5641 0.8206
vn -0.8165 -0.5659 -0.1146
vn -0.6067 0.5991 0.5226
vn -0.5412 0.5986 0.5905
vn -0.0164 -0.5732 0.8193
vn -0.8147 -0.5800 -0.0004
vn -0.5412 0.5986 0.5905
vn -0.4315 0.6092 0.6654
vn 0.0509 -0.5958 0.8015
vn -0.7966 -0.5936 0.1144
vn -0.5071 -0.4159 -0.7549
vn -0.3358 -0.5502 0.7646
vn -0.4452 -0.6460 0.6201
vn -0.7176 -0.5766 -0.3906
vn -0.7591 -0.5526 -0.3441
vn -0.2540 -0.5461 0.7983
vn -0.3701 -0.6487 0.6650
vn -0.7387 -0.6484 -0.1841
vn -0.7996 -0.5604 -0.2156
vn -0.1878 -0.5594 0.8073
vn -0.2927 -0.6510 0.7004
vn -0.7551 -0.6495 -0.0894
vn -0.8165 -0.5659 -0.1146
vn -0.0916 -0.5641 0.8206
vn -0.2099 -0.6559 0.7250
vn -0.7568 -0.6536 0.0073
vn -0.8147 -0.5800 -0.0004
vn -0.0164 -0.5732 0.8193
vn -0.1379 -0.6606 0.7380
vn -0.7499 -0.6538 0.1005
vn -0.7966 -0.5936 0.1144
vn 0.0509 -0.5958 0.8015
vn -0.0407 -0.6576 0.7523
vn -0.7233 -0.6602 0.2024
vn -0.4315 0.6092 0.6654
vn -0.2670 0.6164 0.7408
vn -0.1457 -0.8322 0.5350
vn -0.7623 -0.6168 0.1960
vn -0.2670 0.6164 0.7408
vn 0.0000 0.6394 0.7689
vn 0.0000 -0.8425 0.5386
vn -0.1457 -0.8322 0.5350
vn -0.7623 -0.6168 0.1960
vn -0.1457 -0.8322 0.5350
vn -0.1935 -0.6844 0.7029
vn -0.6828 -0.6320 0.3665
vn -0.1457 -0.8322 0.5350
vn 0.0000 -0.8425 0.5386
vn 0.0000 -0.6720 0.7405
vn -0.1935 -0.6844 0.7029
vn -0.3358 -0.5502 0.7646
vn -0.7515 0.5978 0.2791
vn -0.5705 -0.7929 0.2143
vn -0.7515 0.5978 0.2791
vn -0.7591 -0.5526 -0.3441
vn -0.5705 -0.7929 0.2143
vn -0.2540 -0.5461 0.7983
vn -0.7118 0.5988 0.3671
vn -0.5273 -0.7959 0.2975
vn -0.7118 0.5988 0.3671
vn -0.7996 -0.5604 -0.2156
vn -0.5273 -0.7959 0.2975
vn -0.1878 -0.5594 0.8073
vn -0.6641 0.5996 0.4466
vn -0.4963 -0.7947 0.3494
vn -0.6641 0.5996 0.4466
vn -0.8165 -0.5659 -0.1146
vn -0.4963 -0.7947 0.3494
vn -0.0916 -0.5641 0.8206
vn -0.6067 0.5991 0.5226
vn -0.4447 -0.7926 0.4172
vn -0.6067 0.5991 0.5226
vn -0.8147 -0.5800 -0.0004
vn -0.4447 -0.7926 0.4172
vn -0.0164 -0.5732 0.8193
vn -0.5412 0.5986 0.5905
vn -0.3887 -0.7907 0.4730
vn -0.5412 0.5986 0.5905
vn -0.7966 -0.5936 0.1144
vn -0.3887 -0.7907 0.4730
vn 0.0509 -0.5958 0.8015
vn -0.4315 0.6092 0.6654
vn -0.3944 -0.7922 0.4657
vn -0.4452 -0.6460 0.6201
vn -0.3358 -0.5502 0.7646
vn -0.5705 -0.7929 0.2143
vn -0.9272 -0.1436 0.3459
vn -0.7591 -0.5526 -0.3441
vn -0.7387 -0.6484 -0.1841
vn -0.9272 -0.1436 0.3459
vn -0.5705 -0.7929 0.2143
vn -0.3701 -0.6487 0.6650
vn -0.2540 -0.5461 0.7983
vn -0.5273 -0.7959 0.2975
vn -0.8799 -0.1480 0.4515
vn -0.7996 -0.5604 -0.2156
vn -0.7551 -0.6495 -0.0894
vn -0.8799 -0.1480 0.4515
vn -0.5273 -0.7959 0.2975
vn -0.2927 -0.6510 0.7004
vn -0.1878 -0.5594 0.8073
vn -0.4963 -0.7947 0.3494
vn -0.8187 -0.1568 0.5524
vn -0.8165 -0.5659 -0.1146
vn -0.7568 -0.6536 0.0073
vn -0.8187 -0.1568 0.5524
vn -0.4963 -0.7947 0.3494
vn -0.2099 -0.6559 0.7250
vn -0.0916 -0.5641 0.8206
vn -0.4447 -0.7926 0.4172
vn -0.7489 -0.1641 0.6421
vn -0.8147 -0.5800 -0.0004
vn -0.7499 -0.6538 0.1005
vn -0.7489 -0.1641 0.6421
vn -0.4447 -0.7926 0.4172
vn -0.1379 -0.6606 0.7380
vn -0.0164 -0.5732 0.8193
vn -0.3887 -0.7907 0.4730
vn -0.6655 -0.1807 0.7242
vn -0.7966 -0.5936 0.1144
vn -0.7233 -0.6602 0.2024
vn -0.6655 -0.1807 0.7242
vn -0.3887 -0.7907 0.4730
vn -0.0407 -0.6576 0.7523
vn 0.0509 -0.5958 0.8015
vn -0.3944 -0.7922 0.4657
vn -0.5277 -0.1639 0.8335
vn -0.4315 0.6092 0.6654
vn -0.7623 -0.6168 0.1960
vn -0.3944 -0.7922 0.4657
vn -0.7623 -0.6168 0.1960
vn -0.6828 -0.6320 0.3665
vn -0.5277 -0.1639 0.8335
vn -0.3944 -0.7922 0.4657
vn -0.0407 -0.6576 0.7523
vn -0.5277 -0.1639 0.8335
vn -0.6655 -0.1807 0.7242
vn -0.7233 -0.6602 0.2024
vn -0.1379 -0.6606 0.7380
vn -0.6655 -0.1807 0.7242
vn -0.7489 -0.1641 0.6421
vn -0.7499 -0.6538 0.1005
vn -0.2099 -0.6559 0.7250
vn -0.7489 -0.1641 0.6421
vn -0.8187 -0.1568 0.5524
vn -0.7568 -0.6536 0.0073
vn -0.2927 -0.6510 0.7004
vn -0.8187 -0.1568 0.5524
vn -0.8799 -0.1480 0.4515
vn -0.7551 -0.6495 -0.0894
vn -0.3701 -0.6487 0.6650
vn -0.8799 -0.1480 0.4515
vn -0.9272 -0.1436 0.3459
vn -0.7387 -0.6484 -0.1841
vn -0.7176 -0.5766 -0.3906
vn -0.4452 -0.6460 0.6201
vn -0.9272 -0.1436 0.3459
vn -0.8787 0.0000 -0.4773
vn -0.6828 -0.6320 0.3665
vn -0.1935 -0.6844 0.7029
vn -0.3034 0.0000 0.9529
vn -0.5277 -0.1639 0.8335
vn -0.1935 -0.6844 0.7029
vn 0.0000 -0.6720 0.7405
vn 0.0000 0.0000 1.0000
vn -0.3034 0.0000 0.9529
vn -0.5512 -0.8090 0.2041
vn -0.5369 -0.8414 0.0621
vn -0.9771 0.2051 -0.0575
vn -0.8476 0.4280 0.3137
vn -0.5234 -0.8085 0.2688
vn -0.5512 -0.8090 0.2041
vn -0.8476 0.4280 0.3137
vn -0.8043 0.4274 0.4129
vn -0.4878 -0.8087 0.3287
vn -0.5234 -0.8085 0.2688
vn -0.8043 0.4274 0.4129
vn -0.7501 0.4268 0.5052
vn -0.4457 -0.8085 0.3842
vn -0.4878 -0.8087 0.3287
vn -0.7501 0.4268 0.5052
vn -0.6851 0.4269 0.5903
vn -0.3968 -0.8088 0.4341
vn -0.4457 -0.8085 0.3842
vn -0.6851 0.4269 0.5903
vn -0.6100 0.4275 0.6672
vn -0.3114 -0.8203 0.4797
vn -0.3968 -0.8088 0.4341
vn -0.6100 0.4275 0.6672
vn -0.4894 0.4312 0.7580
vn -0.1875 -0.8261 0.5315
vn -0.3114 -0.8203 0.4797
vn -0.4894 0.4312 0.7580
vn -0.3041 0.4328 0.8486
vn 0.0000 -0.8472 0.5313
vn -0.1875 -0.8261 0.5315
vn -0.3041 0.4328 0.8486
vn 0.0000 0.4441 0.8960
vn -0.6655 -0.1807 0.7242
vn -0.5277 -0.1639 0.8335
vn -0.4905 0.4089 0.7696
vn -0.6136 0.4153 0.6716
vn -0.7489 -0.1641 0.6421
vn -0.6655 -0.1807 0.7242
vn -0.6136 0.4153 0.6716
vn -0.6891 0.4148 0.5942
vn -0.8187 -0.1568 0.5524
vn -0.7489 -0.1641 0.6421
vn -0.6891 0.4148 0.5942
vn -0.7545 0.4147 0.5087
vn -0.8799 -0.1480 0.4515
vn -0.8187 -0.1568 0.5524
vn -0.7545 0.4147 0.5087
vn -0.8090 0.4153 0.4160
vn -0.9272 -0.1436 0.3459
vn -0.8799 -0.1480 0.4515
vn -0.8090 0.4153 0.4160
vn -0.8525 0.4156 0.3169
vn -0.8787 0.0000 -0.4773
vn -0.9272 -0.1436 0.3459
vn -0.8525 0.4156 0.3169
vn -0.8526 0.3334 -0.4024
vn -0.5277 -0.1639 0.8335
vn -0.3034 0.0000 0.9529
vn -0.2748 0.4063 0.8714
vn -0.4905 0.4089 0.7696
vn -0.3034 0.0000 0.9529
vn 0.0000 0.0000 1.0000
vn 0.0000 0.4051 0.9143
vn -0.2748 0.4063 0.8714
vn -0.8526 0.3334 -0.4024
vn -0.8525 0.4156 0.3169
vn -0.8476 0.4280 0.3137
vn -0.9771 0.2051 -0.0575
vn -0.2748 0.4063 0.8714
vn 0.0000 0.4051 0.9143
vn 0.0000 0.4441 0.8960
vn -0.3041 0.4328 0.8486
vn -0.4905 0.4089 0.7696
vn -0.2748 0.4063 0.8714
vn -0.3041 0.4328 0.8486
vn -0.4894 0.4312 0.7580
vn -0.6136 0.4153 0.6716
vn -0.4905 0.4089 0.7696
vn -0.4894 0.4312 0.7580
vn -0.6100 0.4275 0.6672
vn -0.6891 0.4148 0.5942
vn -0.6136 0.4153 0.6716
vn -0.6100 0.4275 0.6672
vn -0.6851 0.4269 0.5903
vn -0.7545 0.4147 0.5087
vn -0.6891 0.4148 0.5942
vn -0.6851 0.4269 0.5903
vn -0.7501 0.4268 0.5052
vn -0.8090 0.4153 0.4160
vn -0.7545 0.4147 0.5087
vn -0.7501 0.4268 0.5052
vn -0.8043 0.4274 0.4129
vn -0.8525 0.4156 0.3169
vn -0.8090 0.4153 0.4160
vn -0.8043 0.4274 0.4129
vn -0.8476 0.4280 0.3137
vn -0.3588 0.1864 -0.9146
vn -0.2280 0.7101 -0.6661
vn -0.3059 0.7071 -0.6375
vn -0.4326 0.0000 -0.9016
vn -0.9405 0.0102 -0.3397
vn -0.6087 0.7664 -0.2052
vn -0.7050 0.7071 -0.0553
vn -0.9969 0.0000 -0.0782
vn -0.3588 0.1864 -0.9146
vn -0.1070 -0.8527 -0.5113
vn 0.0000 -0.7940 -0.6079
vn 0.1225 0.1852 -0.9750
vn -0.9405 0.0102 -0.3397
vn -0.4580 -0.8687 -0.1884
vn -0.3353 -0.8580 -0.3892
vn -0.6271 0.0101 -0.7789
vn -0.7173 0.6967 -0.0032
vn -0.5071 -0.4159 -0.7549
vn -0.9771 0.2051 -0.0575
vn -0.5071 -0.4159 -0.7549
vn -0.8787 0.0000 -0.4773
vn -0.8526 0.3334 -0.4024
vn -0.9771 0.2051 -0.0575
vn -0.5071 -0.4159 -0.7549
vn -0.7176 -0.5766 -0.3906
vn -0.8787 0.0000 -0.4773
vn -0.3989 0.7569 -0.5177
vn 0.5497 0.6726 0.4954
vn 0.8007 0.5810 -0.1461
vn -0.0924 0.5809 -0.8087
vn 0.5497 0.6726 0.4954
vn 0.7266 -0.0650 0.6840
vn 0.8976 0.3480 0.2705
vn 0.8007 0.5810 -0.1461
vn 0.7266 -0.0650 0.6840
vn 0.8659 -0.0649 0.4960
vn 0.5185 0.3477 0.7811
vn 0.8976 0.3480 0.2705
vn 0.8659 -0.0649 0.4960
vn 0.6344 0.6722 0.3817
vn 0.0925 0.5809 0.8087
vn 0.5185 0.3477 0.7811
vn 0.6344 0.6722 0.3817
vn -0.6087 0.7664 -0.2052
vn -0.8007 0.5810 0.1462
vn 0.0925 0.5809 0.8087
vn -0.6087 0.7664 -0.2052
vn -0.9405 0.0102 -0.3397
vn -0.8945 0.3620 -0.2622
vn -0.8007 0.5810 0.1462
vn -0.9405 0.0102 -0.3397
vn -0.6271 0.0101 -0.7789
vn -0.5097 0.3617 -0.7806
vn -0.8945 0.3620 -0.2622
vn -0.6271 0.0101 -0.7789
vn -0.3989 0.7569 -0.5177
vn -0.0924 0.5809 -0.8087
vn -0.5097 0.3617 -0.7806
vn -0.5097 0.3617 -0.7806
vn -0.0924 0.5809 -0.8087
vn 0.8007 0.5810 -0.1461
vn 0.8976 0.3480 0.2705
vn -0.8945 0.3620 -0.2622
vn -0.5097 0.3617 -0.7806
vn 0.8976 0.3480 0.2705
vn 0.5185 0.3477 0.7811
vn -0.8007 0.5810 0.1462
vn -0.8945 0.3620 -0.2622
vn 0.5185 0.3477 0.7811
vn 0.0925 0.5809 0.8087
vn 0.0568 0.6475 -0.7600
vn -0.2280 0.7101 -0.6661
vn -0.6013 0.1905 -0.7760
vn 0.5501 0.1904 -0.8131
vn -0.2280 0.7101 -0.6661
vn -0.3588 0.1864 -0.9146
vn -0.6013 0.1905 -0.7760
vn -0.3588 0.1864 -0.9146
vn 0.1225 0.1852 -0.9750
vn 0.5501 0.1904 -0.8131
vn -0.6013 0.1905 -0.7760
vn 0.1225 0.1852 -0.9750
vn 0.0568 0.6475 -0.7600
vn 0.5501 0.1904 -0.8131
vn -0.0092 -0.0676 0.9977
vn -0.0197 0.7009 0.7130
vn -0.5916 0.5803 0.5597
vn -0.3176 0.3419 0.8845
vn -0.0197 0.7009 0.7130
vn 0.0568 0.6475 -0.7600
vn -0.5916 0.5803 -0.5597
vn -0.5916 0.5803 0.5597
vn 0.0568 0.6475 -0.7600
vn 0.1225 0.1852 -0.9750
vn -0.3162 0.3535 -0.8804
vn -0.5916 0.5803 -0.5597
vn -0.5916 0.5803 -0.5597
vn -0.3162 0.3535 -0.8804
vn -0.3176 0.3419 0.8845
vn -0.5916 0.5803 0.5597
vn -0.3059 0.7071 -0.6375
vn 0.3349 0.6627 0.6698
vn 0.5497 0.6726 0.4954
vn -0.3989 0.7569 -0.5177
vn 0.4084 -0.4076 0.8167
vn 0.2476 -0.8313 0.4977
vn 0.3866 -0.8634 0.3242
vn 0.6502 -0.4439 0.6166
vn -0.2671 -0.7865 -0.5568
vn -0.4326 0.0000 -0.9016
vn -0.6271 0.0101 -0.7789
vn -0.3353 -0.8580 -0.3892
vn 0.3349 0.6627 0.6698
vn 0.4463 -0.0670 0.8924
vn 0.7266 -0.0650 0.6840
vn 0.5497 0.6726 0.4954
vn -0.7050 0.7071 -0.0553
vn 0.7386 0.6627 0.1238
vn 0.7224 0.6803 -0.1239
vn -0.7173 0.6967 -0.0032
vn 0.8994 -0.4112 0.1486
vn 0.5492 -0.8332 0.0648
vn 0.4846 -0.8653 -0.1282
vn 0.8809 -0.4458 -0.1591
vn -0.6160 -0.7863 -0.0483
vn -0.9969 0.0000 -0.0782
vn -0.9771 0.2051 -0.0575
vn -0.5369 -0.8414 0.0621
vn 0.7386 0.6627 0.1238
vn 0.9839 -0.0679 0.1652
vn 0.9828 -0.0750 -0.1689
vn 0.7224 0.6803 -0.1239
vn 0.4084 -0.4076 0.8167
vn 0.4463 -0.0670 0.8924
vn 0.1245 -0.0746 0.9894
vn 0.1052 -0.4442 0.8897
vn 0.8994 -0.4112 0.1486
vn 0.9839 -0.0679 0.1652
vn 0.8659 -0.0649 0.4960
vn 0.7800 -0.4435 0.4415
vn 0.2476 -0.8313 0.4977
vn -0.2671 -0.7865 -0.5568
vn -0.3353 -0.8580 -0.3892
vn 0.3866 -0.8634 0.3242
vn 0.5492 -0.8332 0.0648
vn -0.6160 -0.7863 -0.0483
vn -0.5369 -0.8414 0.0621
vn 0.4846 -0.8653 -0.1282
vn -0.4326 0.0000 -0.9016
vn -0.3059 0.7071 -0.6375
vn -0.3989 0.7569 -0.5177
vn -0.6271 0.0101 -0.7789
vn -0.9969 0.0000 -0.0782
vn -0.7050 0.7071 -0.0553
vn -0.7173 0.6967 -0.0032
vn -0.9771 0.2051 -0.0575
vn 0.0000 -0.7940 -0.6079
vn -0.1225 0.1852 -0.9750
vn 0.1225 0.1852 -0.9750
vn 0.0000 -0.7940 -0.6079
vn 0.0092 -0.0676 0.9977
vn 0.0000 -0.4555 0.8902
vn 0.0000 -0.4555 0.8902
vn -0.0092 -0.0676 0.9977
vn 0.0000 -0.4555 0.8902
vn 0.0000 -0.8678 0.4970
vn 0.0000 -0.8678 0.4970
vn 0.0000 -0.4555 0.8902
vn 0.3176 0.3419 0.8845
vn 0.0092 -0.0676 0.9977
vn -0.0092 -0.0676 0.9977
vn -0.3176 0.3419 0.8845
# 1372 vertex normals

vt 0.1318 0.8976 0.0000
vt 0.1303 0.8969 0.0000
vt 0.1191 0.9190 0.0000
vt 0.1318 0.9223 0.0000
vt 0.1318 0.9105 0.9718
vt 0.1318 0.9206 0.8911
vt 0.1198 0.9177 0.8911
vt 0.1239 0.9096 0.9718
vt 0.1318 0.8976 1.0000
vt 0.1303 0.8969 1.0000
vt 0.1303 0.8969 0.7650
vt 0.1318 0.8976 0.7650
vt 0.1191 0.9190 0.7997
vt 0.1318 0.9223 0.7997
vt 0.1184 0.9038 0.9718
vt 0.1103 0.9099 0.8911
vt 0.0223 0.7913 0.8911
vt 0.0304 0.7853 0.9718
vt 0.0407 0.7776 0.0000
vt 0.0406 0.7757 0.0000
vt 0.0159 0.7797 0.0000
vt 0.0209 0.7923 0.0000
vt 0.0174 0.7794 0.8911
vt 0.0264 0.7776 0.9718
vt 0.0407 0.7776 1.0000
vt 0.0406 0.7757 1.0000
vt 0.0406 0.7757 0.7650
vt 0.0407 0.7776 0.7650
vt 0.0159 0.7797 0.7997
vt 0.0209 0.7923 0.7997
vt 0.0404 0.7739 0.0000
vt 0.0800 0.6429 0.0000
vt 0.0569 0.6342 0.0000
vt 0.0164 0.7681 0.0000
vt 0.0279 0.7708 0.9718
vt 0.0181 0.7685 0.8911
vt 0.0585 0.6348 0.8911
vt 0.0680 0.6384 0.9718
vt 0.0569 0.6342 0.7997
vt 0.0164 0.7681 0.7997
vt 0.1354 0.5174 0.0000
vt 0.1134 0.5061 0.0000
vt 0.1150 0.5069 0.8911
vt 0.1240 0.5115 0.9718
vt 0.1134 0.5061 0.7997
vt 0.2050 0.3994 0.0000
vt 0.1846 0.3855 0.0000
vt 0.1861 0.3865 0.8911
vt 0.1944 0.3922 0.9718
vt 0.1846 0.3855 0.7997
vt 0.2883 0.2904 0.0000
vt 0.2697 0.2742 0.0000
vt 0.2710 0.2754 0.8911
vt 0.2786 0.2820 0.9718
vt 0.2697 0.2742 0.7997
vt 0.3839 0.1919 0.0000
vt 0.3672 0.1737 0.0000
vt 0.3684 0.1750 0.8911
vt 0.3752 0.1825 0.9718
vt 0.3672 0.1737 0.7997
vt 0.4902 0.1059 0.0000
vt 0.4761 0.0856 0.0000
vt 0.4770 0.0870 0.8911
vt 0.4828 0.0953 0.9718
vt 0.4761 0.0856 0.7997
vt 0.4949 0.1035 0.0000
vt 0.4875 0.0799 0.0000
vt 0.4880 0.0816 0.8911
vt 0.4910 0.0912 0.9718
vt 0.4875 0.0799 0.7997
vt 0.5000 0.1024 0.0000
vt 0.5000 0.0777 0.0000
vt 0.5000 0.0794 0.8911
vt 0.5000 0.0895 0.9718
vt 0.5000 0.0777 0.7997
vt 0.4270 0.9223 0.7997
vt 0.4270 0.9223 0.0000
vt 0.4270 0.8976 0.0000
vt 0.4270 0.9105 0.9718
vt 0.4270 0.9206 0.8911
vt 0.1089 0.9109 0.7997
vt 0.1287 0.8962 1.0000
vt 0.0800 0.6429 1.0000
vt 0.0404 0.7739 1.0000
vt 0.1354 0.5174 1.0000
vt 0.2050 0.3994 1.0000
vt 0.2883 0.2904 1.0000
vt 0.3839 0.1919 1.0000
vt 0.4902 0.1059 1.0000
vt 0.4949 0.1035 1.0000
vt 0.5000 0.1024 1.0000
vt 0.4270 0.8976 1.0000
vt 0.0313 0.7715 0.2205
vt 0.0703 0.6423 0.2205
vt 0.0725 0.6368 0.2205
vt 0.1259 0.5157 0.2205
vt 0.1288 0.5104 0.2205
vt 0.1958 0.3969 0.2205
vt 0.1994 0.3914 0.2205
vt 0.2793 0.2869 0.2205
vt 0.2838 0.2816 0.2205
vt 0.3751 0.1876 0.2205
vt 0.3807 0.1824 0.2205
vt 0.4815 0.1007 0.2205
vt 0.0235 0.7692 0.2205
vt 0.0627 0.6400 0.2205
vt 0.0651 0.6336 0.2205
vt 0.1186 0.5125 0.2205
vt 0.1218 0.5063 0.2205
vt 0.1888 0.3928 0.2205
vt 0.1931 0.3866 0.2205
vt 0.2730 0.2820 0.2205
vt 0.2780 0.2760 0.2205
vt 0.3693 0.1820 0.2205
vt 0.3757 0.1762 0.2205
vt 0.4765 0.0945 0.2205
vt 0.4877 0.0965 0.2198
vt 0.4936 0.0942 0.2198
vt 0.5000 0.0931 0.2198
vt 0.4832 0.0897 0.2198
vt 0.4913 0.0866 0.2198
vt 0.5000 0.0851 0.2198
vt 0.0728 0.6401 0.2828
vt 0.1284 0.5138 0.2828
vt 0.1986 0.3950 0.2828
vt 0.2825 0.2853 0.2828
vt 0.3786 0.1862 0.2828
vt 0.4857 0.0995 0.2824
vt 0.0639 0.6368 0.3000
vt 0.1202 0.5094 0.3000
vt 0.1910 0.3897 0.3000
vt 0.2755 0.2790 0.3000
vt 0.3725 0.1791 0.3000
vt 0.4799 0.0921 0.2997
vt 0.0235 0.7692 0.2999
vt 0.4913 0.0866 0.2994
vt 0.5000 0.0851 0.2994
vt 0.0800 0.6429 0.7649
vt 0.0404 0.7739 0.7650
vt 0.1354 0.5174 0.7649
vt 0.2050 0.3994 0.7649
vt 0.2883 0.2904 0.7649
vt 0.3839 0.1919 0.7649
vt 0.4902 0.1059 0.7649
vt 0.4949 0.1035 0.7649
vt 0.5000 0.1024 0.7649
vt 0.3725 0.1791 0.6470
vt 0.4799 0.0921 0.6467
vt 0.2755 0.2790 0.6470
vt 0.1910 0.3897 0.6470
vt 0.1202 0.5094 0.6470
vt 0.0639 0.6368 0.6470
vt 0.0235 0.7692 0.6469
vt 0.4913 0.0866 0.6464
vt 0.5000 0.0851 0.6464
vt 0.4270 0.8976 0.7650
vt 0.1287 0.8962 0.7650
vt 0.1287 0.8962 0.0000
vt 0.1039 0.8670 0.0000
vt 0.0882 0.8786 0.0000
vt 0.1089 0.9109 0.0000
vt 0.0882 0.8786 0.6127
vt 0.0458 0.8215 0.6127
vt 0.0458 0.8215 0.0000
vt 0.0615 0.8099 0.0000
vt 0.0615 0.8099 0.6106
vt 0.1039 0.8670 0.6106
vt 0.4239 0.9210 0.5804
vt 0.1320 0.9210 0.5804
vt 0.4650 0.9202 0.6176
vt 0.4650 0.9202 0.0000
vt 0.4650 0.8997 0.0000
vt 0.4650 0.8997 0.6174
vt 0.5350 0.8997 0.6174
vt 0.5730 0.8976 0.7650
vt 0.5350 0.9202 0.6176
vt 0.5730 0.8976 1.0000
vt 0.5730 0.9105 0.9718
vt 0.8682 0.8976 0.0000
vt 0.8682 0.9223 0.0000
vt 0.8809 0.9190 0.0000
vt 0.8697 0.8969 0.0000
vt 0.8682 0.9105 0.9718
vt 0.8761 0.9096 0.9718
vt 0.8802 0.9177 0.8911
vt 0.8682 0.9206 0.8911
vt 0.8682 0.8976 1.0000
vt 0.8682 0.8976 0.7650
vt 0.8697 0.8969 0.7650
vt 0.8697 0.8969 1.0000
vt 0.8682 0.9223 0.7997
vt 0.8809 0.9190 0.7997
vt 0.8816 0.9038 0.9718
vt 0.9696 0.7853 0.9718
vt 0.9777 0.7913 0.8911
vt 0.8897 0.9099 0.8911
vt 0.9593 0.7776 0.0000
vt 0.9791 0.7923 0.0000
vt 0.9841 0.7797 0.0000
vt 0.9594 0.7757 0.0000
vt 0.9736 0.7776 0.9718
vt 0.9826 0.7794 0.8911
vt 0.9593 0.7776 1.0000
vt 0.9593 0.7776 0.7650
vt 0.9594 0.7757 0.7650
vt 0.9594 0.7757 1.0000
vt 0.9791 0.7923 0.7997
vt 0.9841 0.7797 0.7997
vt 0.9596 0.7739 0.0000
vt 0.9836 0.7681 0.0000
vt 0.9431 0.6342 0.0000
vt 0.9200 0.6429 0.0000
vt 0.9721 0.7708 0.9718
vt 0.9320 0.6384 0.9718
vt 0.9415 0.6348 0.8911
vt 0.9819 0.7685 0.8911
vt 0.9836 0.7681 0.7997
vt 0.9431 0.6342 0.7997
vt 0.8866 0.5061 0.0000
vt 0.8646 0.5174 0.0000
vt 0.8760 0.5115 0.9718
vt 0.8850 0.5069 0.8911
vt 0.8866 0.5061 0.7997
vt 0.8154 0.3855 0.0000
vt 0.7950 0.3994 0.0000
vt 0.8056 0.3922 0.9718
vt 0.8139 0.3865 0.8911
vt 0.8154 0.3855 0.7997
vt 0.7303 0.2742 0.0000
vt 0.7117 0.2904 0.0000
vt 0.7214 0.2820 0.9718
vt 0.7290 0.2754 0.8911
vt 0.7303 0.2742 0.7997
vt 0.6328 0.1737 0.0000
vt 0.6161 0.1919 0.0000
vt 0.6248 0.1825 0.9718
vt 0.6316 0.1750 0.8911
vt 0.6328 0.1737 0.7997
vt 0.5239 0.0856 0.0000
vt 0.5098 0.1059 0.0000
vt 0.5172 0.0953 0.9718
vt 0.5230 0.0870 0.8911
vt 0.5239 0.0856 0.7997
vt 0.5125 0.0799 0.0000
vt 0.5051 0.1035 0.0000
vt 0.5090 0.0912 0.9718
vt 0.5120 0.0816 0.8911
vt 0.5125 0.0799 0.7997
vt 0.5730 0.9223 0.7997
vt 0.5730 0.9223 0.0000
vt 0.5730 0.8976 0.0000
vt 0.5730 0.9206 0.8911
vt 0.8911 0.9109 0.7997
vt 0.8713 0.8962 1.0000
vt 0.9596 0.7739 1.0000
vt 0.9200 0.6429 1.0000
vt 0.8646 0.5174 1.0000
vt 0.7950 0.3994 1.0000
vt 0.7117 0.2904 1.0000
vt 0.6161 0.1919 1.0000
vt 0.5098 0.1059 1.0000
vt 0.5051 0.1035 1.0000
vt 0.9297 0.6423 0.2205
vt 0.9687 0.7715 0.2205
vt 0.8741 0.5157 0.2205
vt 0.9275 0.6368 0.2205
vt 0.8042 0.3969 0.2205
vt 0.8712 0.5104 0.2205
vt 0.7207 0.2869 0.2205
vt 0.8006 0.3914 0.2205
vt 0.6249 0.1876 0.2205
vt 0.7162 0.2816 0.2205
vt 0.5185 0.1007 0.2205
vt 0.6193 0.1824 0.2205
vt 0.9373 0.6400 0.2205
vt 0.9765 0.7692 0.2205
vt 0.8814 0.5125 0.2205
vt 0.9349 0.6336 0.2205
vt 0.8112 0.3928 0.2205
vt 0.8782 0.5063 0.2205
vt 0.7270 0.2820 0.2205
vt 0.8069 0.3866 0.2205
vt 0.6307 0.1820 0.2205
vt 0.7220 0.2760 0.2205
vt 0.5235 0.0945 0.2205
vt 0.6243 0.1762 0.2205
vt 0.5064 0.0942 0.2198
vt 0.5123 0.0965 0.2198
vt 0.5087 0.0866 0.2198
vt 0.5168 0.0897 0.2198
vt 0.9272 0.6401 0.2828
vt 0.8716 0.5138 0.2828
vt 0.8014 0.3950 0.2828
vt 0.7175 0.2853 0.2828
vt 0.6214 0.1862 0.2828
vt 0.5143 0.0995 0.2824
vt 0.9361 0.6368 0.3000
vt 0.8798 0.5094 0.3000
vt 0.8090 0.3897 0.3000
vt 0.7245 0.2790 0.3000
vt 0.6275 0.1791 0.3000
vt 0.5201 0.0921 0.2997
vt 0.9765 0.7692 0.2999
vt 0.5087 0.0866 0.2994
vt 0.9596 0.7739 0.7650
vt 0.9200 0.6429 0.7649
vt 0.8646 0.5174 0.7649
vt 0.7950 0.3994 0.7649
vt 0.7117 0.2904 0.7649
vt 0.6161 0.1919 0.7649
vt 0.5098 0.1059 0.7649
vt 0.5051 0.1035 0.7649
vt 0.5201 0.0921 0.6467
vt 0.6275 0.1791 0.6470
vt 0.7245 0.2790 0.6470
vt 0.8090 0.3897 0.6470
vt 0.8798 0.5094 0.6470
vt 0.9361 0.6368 0.6470
vt 0.9765 0.7692 0.6469
vt 0.5087 0.0866 0.6464
vt 0.8713 0.8962 0.7650
vt 0.8713 0.8962 0.0000
vt 0.8911 0.9109 0.0000
vt 0.9118 0.8786 0.0000
vt 0.8961 0.8670 0.0000
vt 0.9118 0.8786 0.6127
vt 0.9542 0.8215 0.6127
vt 0.9542 0.8215 0.0000
vt 0.9385 0.8099 0.0000
vt 0.9385 0.8099 0.6106
vt 0.8961 0.8670 0.6106
vt 0.8680 0.9210 0.5804
vt 0.5761 0.9210 0.5804
vt 0.5350 0.9202 0.0000
vt 0.5350 0.8997 0.0000
# 335 texture coords

o TriangleRoomCollider
g TriangleRoomCollider
s 1
f 1/1/1 2/2/2 3/3/3 4/4/4 
f 5/5/5 6/6/6 7/7/7 8/8/8 
f 9/9/9 10/10/10 11/11/11 12/12/12 
f 4/4/13 3/3/14 13/13/15 14/14/16 
f 15/15/17 16/16/18 17/17/19 18/18/20 
f 19/19/21 20/20/22 21/21/23 22/22/24 
f 18/18/25 17/17/26 23/23/27 24/24/28 
f 25/25/29 26/26/30 27/27/31 28/28/32 
f 22/22/33 21/21/34 29/29/35 30/30/36 
f 31/31/37 32/32/38 33/33/39 34/34/40 
f 35/35/41 36/36/42 37/37/43 38/38/44 
f 34/34/45 33/33/46 39/39/47 40/40/48 
f 32/32/49 41/41/50 42/42/51 33/33/52 
f 38/38/53 37/37/54 43/43/55 44/44/56 
f 33/33/57 42/42/58 45/45/59 39/39/60 
f 41/41/61 46/46/62 47/47/63 42/42/64 
f 44/44/65 43/43/66 48/48/67 49/49/68 
f 42/42/69 47/47/70 50/50/71 45/45/72 
f 46/46/73 51/51/74 52/52/75 47/47/76 
f 49/49/77 48/48/78 53/53/79 54/54/80 
f 47/47/81 52/52/82 55/55/83 50/50/84 
f 51/51/85 56/56/86 57/57/87 52/52/88 
f 54/54/89 53/53/90 58/58/91 59/59/92 
f 52/52/93 57/57/94 60/60/95 55/55/96 
f 56/56/97 61/61/98 62/62/99 57/57/100 
f 59/59/101 58/58/102 63/63/103 64/64/104 
f 57/57/105 62/62/106 65/65/107 60/60/108 
f 61/61/109 66/66/110 67/67/111 62/62/112 
f 64/64/113 63/63/114 68/68/115 69/69/116 
f 62/62/117 67/67/118 70/70/119 65/65/120 
f 66/66/121 71/71/122 72/72/123 67/67/124 
f 69/69/125 68/68/126 73/73/127 74/74/128 
f 67/67/129 72/72/130 75/75/131 70/70/132 
f 76/76/133 77/77/134 4/4/135 14/14/136 
f 77/77/137 78/78/138 1/1/139 4/4/140 
f 6/6/141 5/5/142 79/79/143 80/80/144 
f 16/16/145 7/7/146 13/13/147 81/81/148 
f 17/17/149 16/16/150 81/81/151 30/30/152 
f 36/36/153 23/23/154 29/29/155 40/40/156 
f 37/37/157 36/36/158 40/40/159 39/39/160 
f 43/43/161 37/37/162 39/39/163 45/45/164 
f 48/48/165 43/43/166 45/45/167 50/50/168 
f 53/53/169 48/48/170 50/50/171 55/55/172 
f 58/58/173 53/53/174 55/55/175 60/60/176 
f 63/63/177 58/58/178 60/60/179 65/65/180 
f 68/68/181 63/63/182 65/65/183 70/70/184 
f 73/73/185 68/68/186 70/70/187 75/75/188 
f 6/6/189 80/80/190 76/76/191 14/14/192 
f 5/5/193 8/8/194 10/10/195 9/9/196 
f 15/15/197 18/18/198 25/25/199 82/82/200 
f 18/18/201 24/24/202 26/26/203 25/25/204 
f 35/35/205 38/38/206 83/83/207 84/84/208 
f 38/38/209 44/44/210 85/85/211 83/83/212 
f 44/44/213 49/49/214 86/86/215 85/85/216 
f 49/49/217 54/54/218 87/87/219 86/86/220 
f 54/54/221 59/59/222 88/88/223 87/87/224 
f 59/59/225 64/64/226 89/89/227 88/88/228 
f 64/64/229 69/69/230 90/90/231 89/89/232 
f 69/69/233 74/74/234 91/91/235 90/90/236 
f 79/79/237 5/5/238 9/9/239 92/92/240 
f 31/31/241 93/93/242 94/94/243 32/32/244 
f 32/32/245 95/95/246 96/96/247 41/41/248 
f 41/41/249 97/97/250 98/98/251 46/46/252 
f 46/46/253 99/99/254 100/100/255 51/51/256 
f 51/51/257 101/101/258 102/102/259 56/56/260 
f 56/56/261 103/103/262 104/104/263 61/61/264 
f 93/93/265 105/105/266 106/106/267 94/94/268 
f 95/95/269 107/107/270 108/108/271 96/96/272 
f 97/97/273 109/109/274 110/110/275 98/98/276 
f 99/99/277 111/111/278 112/112/279 100/100/280 
f 101/101/281 113/113/282 114/114/283 102/102/284 
f 103/103/285 115/115/286 116/116/287 104/104/288 
f 61/61/289 117/117/290 118/118/291 66/66/292 
f 66/66/293 118/118/294 119/119/295 71/71/296 
f 117/117/297 120/120/298 121/121/299 118/118/300 
f 118/118/301 121/121/302 122/122/303 119/119/304 
f 94/94/305 123/123/306 32/32/307 
f 32/32/308 123/123/309 95/95/310 
f 96/96/311 124/124/312 41/41/313 
f 41/41/314 124/124/315 97/97/316 
f 98/98/317 125/125/318 46/46/319 
f 46/46/320 125/125/321 99/99/322 
f 100/100/323 126/126/324 51/51/325 
f 51/51/326 126/126/327 101/101/328 
f 102/102/329 127/127/330 56/56/331 
f 56/56/332 127/127/333 103/103/334 
f 104/104/335 128/128/336 61/61/337 
f 106/106/338 129/129/339 123/123/340 94/94/341 
f 95/95/342 123/123/343 129/129/344 107/107/345 
f 108/108/346 130/130/347 124/124/348 96/96/349 
f 97/97/350 124/124/351 130/130/352 109/109/353 
f 110/110/354 131/131/355 125/125/356 98/98/357 
f 99/99/358 125/125/359 131/131/360 111/111/361 
f 112/112/362 132/132/363 126/126/364 100/100/365 
f 101/101/366 126/126/367 132/132/368 113/113/369 
f 114/114/370 133/133/371 127/127/372 102/102/373 
f 103/103/374 127/127/375 133/133/376 115/115/377 
f 116/116/378 134/134/379 128/128/380 104/104/381 
f 61/61/382 128/128/383 117/117/384 
f 117/117/385 128/128/386 134/134/387 120/120/388 
f 116/116/389 115/115/390 133/133/391 134/134/392 
f 114/114/393 113/113/394 132/132/395 133/133/396 
f 112/112/397 111/111/398 131/131/399 132/132/400 
f 110/110/401 109/109/402 130/130/403 131/131/404 
f 108/108/405 107/107/406 129/129/407 130/130/408 
f 105/105/409 135/135/410 129/129/411 106/106/412 
f 120/120/413 134/134/414 136/136/415 121/121/416 
f 121/121/417 136/136/418 137/137/419 122/122/420 
f 83/83/421 138/138/422 139/139/423 84/84/424 
f 85/85/425 140/140/426 138/138/427 83/83/428 
f 86/86/429 141/141/430 140/140/431 85/85/432 
f 87/87/433 142/142/434 141/141/435 86/86/436 
f 88/88/437 143/143/438 142/142/439 87/87/440 
f 89/89/441 144/144/442 143/143/443 88/88/444 
f 90/90/445 145/145/446 144/144/447 89/89/448 
f 91/91/449 146/146/450 145/145/451 90/90/452 
f 133/133/453 147/147/454 148/148/455 134/134/456 
f 132/132/457 149/149/458 147/147/459 133/133/460 
f 131/131/461 150/150/462 149/149/463 132/132/464 
f 130/130/465 151/151/466 150/150/467 131/131/468 
f 129/129/469 152/152/470 151/151/471 130/130/472 
f 135/135/473 153/153/474 152/152/475 129/129/476 
f 134/134/477 148/148/478 154/154/479 136/136/480 
f 136/136/481 154/154/482 155/155/483 137/137/484 
f 153/153/485 139/139/486 138/138/487 152/152/488 
f 154/154/489 145/145/490 146/146/491 155/155/492 
f 148/148/493 144/144/494 145/145/495 154/154/496 
f 147/147/497 143/143/498 144/144/499 148/148/500 
f 149/149/501 142/142/502 143/143/503 147/147/504 
f 150/150/505 141/141/506 142/142/507 149/149/508 
f 151/151/509 140/140/510 141/141/511 150/150/512 
f 152/152/513 138/138/514 140/140/515 151/151/516 
f 12/12/517 11/11/518 2/2/519 1/1/520 
f 28/28/521 27/27/522 20/20/523 19/19/524 
f 12/12/525 156/156/526 92/92/527 9/9/528 
f 28/28/529 157/157/530 82/82/531 25/25/532 
f 31/31/533 139/139/534 93/93/535 
f 93/93/536 139/139/537 153/153/538 135/135/539 
f 93/93/540 135/135/541 105/105/542 
f 158/158/543 159/159/544 160/160/545 161/161/546 
f 161/161/547 160/160/548 162/162/549 81/81/550 
f 81/81/551 162/162/552 163/163/553 30/30/554 
f 30/30/555 163/163/556 164/164/557 22/22/558 
f 22/22/559 164/164/560 165/165/561 19/19/562 
f 19/19/563 165/165/564 166/166/565 28/28/566 
f 28/28/567 166/166/568 167/167/569 157/157/570 
f 157/157/571 167/167/572 159/159/573 158/158/574 
f 167/167/575 162/162/576 160/160/577 159/159/578 
f 166/166/579 163/163/580 162/162/581 167/167/582 
f 165/165/583 164/164/584 163/163/585 166/166/586 
f 78/78/587 168/168/588 169/169/589 1/1/590 
f 1/1/591 169/169/592 12/12/593 
f 12/12/594 169/169/595 168/168/596 156/156/597 
f 156/156/598 168/168/599 78/78/600 
f 76/76/601 170/170/602 171/171/603 77/77/604 
f 77/77/605 171/171/606 172/172/607 78/78/608 
f 78/78/609 172/172/610 173/173/611 156/156/612 
f 172/172/613 171/171/614 170/170/615 173/173/616 
f 2/2/617 158/158/618 161/161/619 3/3/620 
f 7/7/621 16/16/622 15/15/623 8/8/624 
f 10/10/625 82/82/626 157/157/627 11/11/628 
f 3/3/629 161/161/630 81/81/631 13/13/632 
f 20/20/633 31/31/634 34/34/635 21/21/636 
f 23/23/637 36/36/638 35/35/639 24/24/640 
f 26/26/641 84/84/642 139/139/643 27/27/644 
f 21/21/645 34/34/646 40/40/647 29/29/648 
f 7/7/649 6/6/650 14/14/651 13/13/652 
f 23/23/653 17/17/654 30/30/655 29/29/656 
f 8/8/657 15/15/658 82/82/659 10/10/660 
f 24/24/661 35/35/662 84/84/663 26/26/664 
f 11/11/665 157/157/666 158/158/667 2/2/668 
f 27/27/669 139/139/670 31/31/671 20/20/672 
f 156/156/673 173/173/674 174/174/675 175/175/676 
f 173/173/677 170/170/678 176/176/679 174/174/680 
f 79/79/681 92/92/682 177/177/683 178/178/684 
f 179/179/685 180/180/686 181/181/687 182/182/688 
f 183/183/689 184/184/690 185/185/691 186/186/692 
f 187/187/693 188/188/694 189/189/695 190/190/696 
f 180/180/697 191/191/698 192/192/699 181/181/700 
f 193/193/701 194/194/702 195/195/703 196/196/704 
f 197/197/705 198/198/706 199/199/707 200/200/708 
f 194/194/709 201/201/710 202/202/711 195/195/712 
f 203/203/713 204/204/714 205/205/715 206/206/716 
f 198/198/717 207/207/718 208/208/719 199/199/720 
f 209/209/721 210/210/722 211/211/723 212/212/724 
f 213/213/725 214/214/726 215/215/727 216/216/728 
f 210/210/729 217/217/730 218/218/731 211/211/732 
f 212/212/733 211/211/734 219/219/735 220/220/736 
f 214/214/737 221/221/738 222/222/739 215/215/740 
f 211/211/741 218/218/742 223/223/743 219/219/744 
f 220/220/745 219/219/746 224/224/747 225/225/748 
f 221/221/749 226/226/750 227/227/751 222/222/752 
f 219/219/753 223/223/754 228/228/755 224/224/756 
f 225/225/757 224/224/758 229/229/759 230/230/760 
f 226/226/761 231/231/762 232/232/763 227/227/764 
f 224/224/765 228/228/766 233/233/767 229/229/768 
f 230/230/769 229/229/770 234/234/771 235/235/772 
f 231/231/773 236/236/774 237/237/775 232/232/776 
f 229/229/777 233/233/778 238/238/779 234/234/780 
f 235/235/781 234/234/782 239/239/783 240/240/784 
f 236/236/785 241/241/786 242/242/787 237/237/788 
f 234/234/789 238/238/790 243/243/791 239/239/792 
f 240/240/793 239/239/794 244/244/795 245/245/796 
f 241/241/797 246/246/798 247/247/799 242/242/800 
f 239/239/801 243/243/802 248/248/803 244/244/804 
f 245/245/805 244/244/806 72/72/807 71/71/808 
f 246/246/809 74/74/810 73/73/811 247/247/812 
f 244/244/813 248/248/814 75/75/815 72/72/816 
f 249/249/817 191/191/818 180/180/819 250/250/820 
f 250/250/821 180/180/822 179/179/823 251/251/824 
f 186/186/825 252/252/826 178/178/827 183/183/828 
f 196/196/829 253/253/830 192/192/831 185/185/832 
f 195/195/833 207/207/834 253/253/835 196/196/836 
f 216/216/837 217/217/838 208/208/839 202/202/840 
f 215/215/841 218/218/842 217/217/843 216/216/844 
f 222/222/845 223/223/846 218/218/847 215/215/848 
f 227/227/849 228/228/850 223/223/851 222/222/852 
f 232/232/853 233/233/854 228/228/855 227/227/856 
f 237/237/857 238/238/858 233/233/859 232/232/860 
f 242/242/861 243/243/862 238/238/863 237/237/864 
f 247/247/865 248/248/866 243/243/867 242/242/868 
f 73/73/869 75/75/870 248/248/871 247/247/872 
f 186/186/873 191/191/874 249/249/875 252/252/876 
f 183/183/877 187/187/878 190/190/879 184/184/880 
f 193/193/881 254/254/882 203/203/883 194/194/884 
f 194/194/885 203/203/886 206/206/887 201/201/888 
f 213/213/889 255/255/890 256/256/891 214/214/892 
f 214/214/893 256/256/894 257/257/895 221/221/896 
f 221/221/897 257/257/898 258/258/899 226/226/900 
f 226/226/901 258/258/902 259/259/903 231/231/904 
f 231/231/905 259/259/906 260/260/907 236/236/908 
f 236/236/909 260/260/910 261/261/911 241/241/912 
f 241/241/913 261/261/914 262/262/915 246/246/916 
f 246/246/917 262/262/918 91/91/919 74/74/920 
f 178/178/921 177/177/922 187/187/923 183/183/924 
f 209/209/925 212/212/926 263/263/927 264/264/928 
f 212/212/929 220/220/930 265/265/931 266/266/932 
f 220/220/933 225/225/934 267/267/935 268/268/936 
f 225/225/937 230/230/938 269/269/939 270/270/940 
f 230/230/941 235/235/942 271/271/943 272/272/944 
f 235/235/945 240/240/946 273/273/947 274/274/948 
f 264/264/949 263/263/950 275/275/951 276/276/952 
f 266/266/953 265/265/954 277/277/955 278/278/956 
f 268/268/957 267/267/958 279/279/959 280/280/960 
f 270/270/961 269/269/962 281/281/963 282/282/964 
f 272/272/965 271/271/966 283/283/967 284/284/968 
f 274/274/969 273/273/970 285/285/971 286/286/972 
f 240/240/973 245/245/974 287/287/975 288/288/976 
f 245/245/977 71/71/978 119/119/979 287/287/980 
f 288/288/981 287/287/982 289/289/983 290/290/984 
f 287/287/985 119/119/986 122/122/987 289/289/988 
f 263/263/989 212/212/990 291/291/991 
f 212/212/992 266/266/993 291/291/994 
f 265/265/995 220/220/996 292/292/997 
f 220/220/998 268/268/999 292/292/1000 
f 267/267/1001 225/225/1002 293/293/1003 
f 225/225/1004 270/270/1005 293/293/1006 
f 269/269/1007 230/230/1008 294/294/1009 
f 230/230/1010 272/272/1011 294/294/1012 
f 271/271/1013 235/235/1014 295/295/1015 
f 235/235/1016 274/274/1017 295/295/1018 
f 273/273/1019 240/240/1020 296/296/1021 
f 275/275/1022 263/263/1023 291/291/1024 297/297/1025 
f 266/266/1026 278/278/1027 297/297/1028 291/291/1029 
f 277/277/1030 265/265/1031 292/292/1032 298/298/1033 
f 268/268/1034 280/280/1035 298/298/1036 292/292/1037 
f 279/279/1038 267/267/1039 293/293/1040 299/299/1041 
f 270/270/1042 282/282/1043 299/299/1044 293/293/1045 
f 281/281/1046 269/269/1047 294/294/1048 300/300/1049 
f 272/272/1050 284/284/1051 300/300/1052 294/294/1053 
f 283/283/1054 271/271/1055 295/295/1056 301/301/1057 
f 274/274/1058 286/286/1059 301/301/1060 295/295/1061 
f 285/285/1062 273/273/1063 296/296/1064 302/302/1065 
f 240/240/1066 288/288/1067 296/296/1068 
f 288/288/1069 290/290/1070 302/302/1071 296/296/1072 
f 285/285/1073 302/302/1074 301/301/1075 286/286/1076 
f 283/283/1077 301/301/1078 300/300/1079 284/284/1080 
f 281/281/1081 300/300/1082 299/299/1083 282/282/1084 
f 279/279/1085 299/299/1086 298/298/1087 280/280/1088 
f 277/277/1089 298/298/1090 297/297/1091 278/278/1092 
f 276/276/1093 275/275/1094 297/297/1095 303/303/1096 
f 290/290/1097 289/289/1098 304/304/1099 302/302/1100 
f 289/289/1101 122/122/1102 137/137/1103 304/304/1104 
f 256/256/1105 255/255/1106 305/305/1107 306/306/1108 
f 257/257/1109 256/256/1110 306/306/1111 307/307/1112 
f 258/258/1113 257/257/1114 307/307/1115 308/308/1116 
f 259/259/1117 258/258/1118 308/308/1119 309/309/1120 
f 260/260/1121 259/259/1122 309/309/1123 310/310/1124 
f 261/261/1125 260/260/1126 310/310/1127 311/311/1128 
f 262/262/1129 261/261/1130 311/311/1131 312/312/1132 
f 91/91/1133 262/262/1134 312/312/1135 146/146/1136 
f 301/301/1137 302/302/1138 313/313/1139 314/314/1140 
f 300/300/1141 301/301/1142 314/314/1143 315/315/1144 
f 299/299/1145 300/300/1146 315/315/1147 316/316/1148 
f 298/298/1149 299/299/1150 316/316/1151 317/317/1152 
f 297/297/1153 298/298/1154 317/317/1155 318/318/1156 
f 303/303/1157 297/297/1158 318/318/1159 319/319/1160 
f 302/302/1161 304/304/1162 320/320/1163 313/313/1164 
f 304/304/1165 137/137/1166 155/155/1167 320/320/1168 
f 319/319/1169 318/318/1170 306/306/1171 305/305/1172 
f 320/320/1173 155/155/1174 146/146/1175 312/312/1176 
f 313/313/1177 320/320/1178 312/312/1179 311/311/1180 
f 314/314/1181 313/313/1182 311/311/1183 310/310/1184 
f 315/315/1185 314/314/1186 310/310/1187 309/309/1188 
f 316/316/1189 315/315/1190 309/309/1191 308/308/1192 
f 317/317/1193 316/316/1194 308/308/1195 307/307/1196 
f 318/318/1197 317/317/1198 307/307/1199 306/306/1200 
f 188/188/1201 179/179/1202 182/182/1203 189/189/1204 
f 204/204/1205 197/197/1206 200/200/1207 205/205/1208 
f 188/188/1209 187/187/1210 177/177/1211 175/175/1212 
f 204/204/1213 203/203/1214 254/254/1215 321/321/1216 
f 209/209/1217 264/264/1218 305/305/1219 
f 264/264/1220 303/303/1221 319/319/1222 305/305/1223 
f 264/264/1224 276/276/1225 303/303/1226 
f 322/322/1227 323/323/1228 324/324/1229 325/325/1230 
f 323/323/1231 253/253/1232 326/326/1233 324/324/1234 
f 253/253/1235 207/207/1236 327/327/1237 326/326/1238 
f 207/207/1239 198/198/1240 328/328/1241 327/327/1242 
f 198/198/1243 197/197/1244 329/329/1245 328/328/1246 
f 197/197/1247 204/204/1248 330/330/1249 329/329/1250 
f 204/204/1251 321/321/1252 331/331/1253 330/330/1254 
f 321/321/1255 322/322/1256 325/325/1257 331/331/1258 
f 331/331/1259 325/325/1260 324/324/1261 326/326/1262 
f 330/330/1263 331/331/1264 326/326/1265 327/327/1266 
f 329/329/1267 330/330/1268 327/327/1269 328/328/1270 
f 251/251/1271 179/179/1272 332/332/1273 333/333/1274 
f 179/179/1275 188/188/1276 332/332/1277 
f 188/188/1278 175/175/1279 333/333/1280 332/332/1281 
f 175/175/1282 251/251/1283 333/333/1284 
f 249/249/1285 250/250/1286 334/334/1287 176/176/1288 
f 250/250/1289 251/251/1290 335/335/1291 334/334/1292 
f 251/251/1293 175/175/1294 174/174/1295 335/335/1296 
f 335/335/1297 174/174/1298 176/176/1299 334/334/1300 
f 182/182/1301 181/181/1302 323/323/1303 322/322/1304 
f 185/185/1305 184/184/1306 193/193/1307 196/196/1308 
f 190/190/1309 189/189/1310 321/321/1311 254/254/1312 
f 181/181/1313 192/192/1314 253/253/1315 323/323/1316 
f 200/200/1317 199/199/1318 210/210/1319 209/209/1320 
f 202/202/1321 201/201/1322 213/213/1323 216/216/1324 
f 206/206/1325 205/205/1326 305/305/1327 255/255/1328 
f 199/199/1329 208/208/1330 217/217/1331 210/210/1332 
f 185/185/1333 192/192/1334 191/191/1335 186/186/1336 
f 202/202/1337 208/208/1338 207/207/1339 195/195/1340 
f 184/184/1341 190/190/1342 254/254/1343 193/193/1344 
f 201/201/1345 206/206/1346 255/255/1347 213/213/1348 
f 189/189/1349 182/182/1350 322/322/1351 321/321/1352 
f 205/205/1353 200/200/1354 209/209/1355 305/305/1356 
f 92/92/1357 156/156/1358 175/175/1359 177/177/1360 
f 76/76/1361 80/80/1362 252/252/1363 249/249/1364 
f 80/80/1365 79/79/1366 178/178/1367 252/252/1368 
f 170/170/1369 76/76/1370 249/249/1371 176/176/1372 
# 319 polygons - 32 triangles

#
# object TriangleRoofCollider
#

v  -589.1759 -196.9043 -236.3192
v  -594.0055 -196.9043 -238.6363
v  -585.9321 -267.1819 -249.4155
v  -578.6175 -267.1819 -247.1177
v  -734.8639 -196.9043 -428.3244
v  -735.3354 -196.9043 -434.3395
v  -722.1877 -267.1819 -438.8575
v  -721.8212 -267.1819 -432.0308
v  -671.9982 -196.9043 -643.8041
v  -662.3835 -267.1819 -640.2519
v  -583.3842 -196.9042 -844.6964
v  -574.2969 -267.1818 -840.0455
v  -471.9205 -196.9042 -1033.4546
v  -463.4503 -267.1818 -1027.7737
v  -338.6735 -196.9042 -1207.9003
v  -330.9690 -267.1818 -1201.1790
v  -185.8085 -196.9042 -1365.3972
v  -178.8803 -267.1818 -1357.8843
v  -15.6850 -196.9041 -1503.1509
v  -15.7946 -267.1817 -1489.8766
v  -8.1274 -196.9041 -1506.9806
v  -8.2134 -267.1817 -1493.6515
v  0.0000 -196.9041 -1508.7281
v  0.0000 -267.1817 -1495.3787
v  -116.8532 -196.9043 -236.3192
v  -116.9941 -267.1819 -246.5112
v  -118.4880 -402.3931 -354.5883
v  -120.1227 -432.9529 -472.8575
v  120.1227 -432.9529 -472.8575
v  118.4880 -402.3931 -354.5883
v  -500.3203 -402.3928 -363.7191
v  -406.6350 -432.9524 -488.8019
v  -354.2098 -432.9526 -473.0997
v  -466.6552 -402.3929 -361.6259
v  -582.7674 -402.3931 -486.7667
v  -447.6128 -432.9529 -537.4593
v  -434.4935 -432.9526 -512.8620
v  -583.5151 -402.3930 -471.3334
v  -560.4285 -402.3932 -602.5837
v  -448.8589 -432.9531 -561.3632
v  -477.9351 -402.3928 -790.7264
v  -372.4861 -432.9523 -736.7565
v  -373.6310 -402.3930 -967.5314
v  -275.3416 -432.9528 -901.6080
v  -249.2700 -402.3930 -1129.9050
v  -159.8665 -432.9528 -1051.9098
v  -105.4128 -402.3929 -1278.2162
v  -25.0171 -432.9525 -1191.0349
v  -16.9563 -402.3931 -1349.1135
v  -18.2277 -432.9530 -1195.0759
v  -9.1248 -402.3928 -1352.3074
v  -10.1220 -432.9525 -1197.6340
v  0.0000 -402.3929 -1353.8191
v  0.0000 -432.9525 -1198.9114
v  -558.4799 -336.5533 -286.0680
v  -542.7158 -336.5534 -283.8357
v  -677.4814 -336.5534 -454.2200
v  -677.4722 -336.5534 -444.6335
v  -629.6908 -336.5534 -628.1732
v  -543.3977 -336.5532 -824.2310
v  -434.6490 -336.5533 -1008.4564
v  -304.7715 -336.5533 -1178.3243
v  -155.3224 -336.5532 -1332.3380
v  -16.1671 -336.5533 -1444.7396
v  -8.5056 -336.5532 -1448.3282
v  0.0000 -336.5532 -1449.9861
v  -117.4731 -336.5534 -281.1671
v  0.0000 -432.9525 -1132.9171
v  -122.1973 -432.9525 -1028.3948
v  -225.0159 -432.9525 -880.0441
v  -315.8744 -432.9523 -723.6550
v  -367.7359 -432.9529 -538.3199
v  -118.4782 -432.9524 -551.9890
v  0.0001 -432.9525 -804.5001
v  118.4781 -432.9524 -551.9890
v  116.9941 -267.1819 -246.5112
v  116.8532 -196.9043 -236.3192
v  589.1759 -196.9043 -236.3192
v  578.6176 -267.1819 -247.1177
v  585.9320 -267.1819 -249.4155
v  594.0055 -196.9043 -238.6363
v  734.8639 -196.9043 -428.3244
v  721.8212 -267.1819 -432.0308
v  722.1876 -267.1819 -438.8575
v  735.3354 -196.9043 -434.3395
v  662.3835 -267.1819 -640.2518
v  671.9982 -196.9043 -643.8041
v  574.2970 -267.1818 -840.0454
v  583.3842 -196.9042 -844.6964
v  463.4503 -267.1818 -1027.7736
v  471.9205 -196.9042 -1033.4546
v  330.9690 -267.1818 -1201.1790
v  338.6735 -196.9042 -1207.9003
v  178.8803 -267.1818 -1357.8843
v  185.8085 -196.9042 -1365.3972
v  15.7946 -267.1817 -1489.8766
v  15.6850 -196.9041 -1503.1509
v  8.2134 -267.1817 -1493.6515
v  8.1274 -196.9041 -1506.9806
v  500.3202 -402.3928 -363.7191
v  466.6552 -402.3929 -361.6259
v  354.2098 -432.9526 -473.0997
v  406.6350 -432.9524 -488.8019
v  582.7675 -402.3931 -486.7667
v  583.5150 -402.3930 -471.3334
v  434.4935 -432.9526 -512.8620
v  447.6128 -432.9529 -537.4593
v  560.4286 -402.3932 -602.5837
v  448.8589 -432.9531 -561.3632
v  477.9352 -402.3928 -790.7264
v  372.4861 -432.9523 -736.7565
v  373.6310 -402.3930 -967.5313
v  275.3416 -432.9528 -901.6080
v  249.2700 -402.3930 -1129.9050
v  159.8665 -432.9528 -1051.9098
v  105.4128 -402.3929 -1278.2162
v  25.0171 -432.9525 -1191.0349
v  16.9563 -402.3931 -1349.1135
v  18.2277 -432.9530 -1195.0759
v  9.1248 -402.3928 -1352.3074
v  10.1220 -432.9525 -1197.6340
v  117.4731 -336.5534 -281.1671
v  558.4799 -336.5533 -286.0680
v  542.7158 -336.5534 -283.8357
v  677.4813 -336.5534 -454.2200
v  677.4722 -336.5534 -444.6335
v  629.6908 -336.5534 -628.1733
v  543.3977 -336.5532 -824.2308
v  434.6490 -336.5533 -1008.4563
v  304.7715 -336.5533 -1178.3243
v  155.3224 -336.5532 -1332.3380
v  16.1671 -336.5533 -1444.7396
v  8.5056 -336.5532 -1448.3282
v  122.1973 -432.9525 -1028.3948
v  225.0159 -432.9525 -880.0441
v  315.8744 -432.9523 -723.6550
v  367.7359 -432.9529 -538.3199
# 137 vertices

vn -0.2325 -0.1817 0.9555
vn -0.6240 -0.1880 0.7585
vn -0.5398 -0.3640 0.7591
vn -0.1497 -0.3479 0.9255
vn -0.9205 -0.1889 0.3422
vn -0.9795 -0.1770 -0.0966
vn -0.9305 -0.3510 -0.1044
vn -0.8756 -0.3661 0.3152
vn -0.6240 -0.1880 0.7585
vn -0.9205 -0.1889 0.3422
vn -0.8756 -0.3661 0.3152
vn -0.5398 -0.3640 0.7591
vn -0.9795 -0.1770 -0.0966
vn -0.9280 -0.1443 -0.3435
vn -0.8959 -0.2987 -0.3290
vn -0.9305 -0.3510 -0.1044
vn -0.9280 -0.1443 -0.3435
vn -0.8803 -0.1437 -0.4521
vn -0.8493 -0.2977 -0.4360
vn -0.8959 -0.2987 -0.3290
vn -0.8803 -0.1437 -0.4521
vn -0.8208 -0.1436 -0.5529
vn -0.7918 -0.2975 -0.5335
vn -0.8493 -0.2977 -0.4360
vn -0.8208 -0.1436 -0.5529
vn -0.7495 -0.1440 -0.6461
vn -0.7230 -0.2981 -0.6232
vn -0.7918 -0.2975 -0.5335
vn -0.7495 -0.1440 -0.6461
vn -0.6676 -0.1439 -0.7304
vn -0.6439 -0.2980 -0.7047
vn -0.7230 -0.2981 -0.6232
vn -0.6676 -0.1439 -0.7304
vn -0.5314 -0.1564 -0.8326
vn -0.5079 -0.3205 -0.7996
vn -0.6439 -0.2980 -0.7047
vn -0.5314 -0.1564 -0.8326
vn -0.3240 -0.1759 -0.9296
vn -0.3043 -0.3523 -0.8850
vn -0.5079 -0.3205 -0.7996
vn -0.3240 -0.1759 -0.9296
vn 0.0000 -0.1866 -0.9824
vn -0.0000 -0.3657 -0.9307
vn -0.3043 -0.3523 -0.8850
vn 0.0000 -0.1435 0.9896
vn -0.2325 -0.1817 0.9555
vn -0.1497 -0.3479 0.9255
vn -0.0006 -0.2990 0.9543
vn -0.0048 -0.8808 0.4736
vn -0.0001 -0.9920 0.1261
vn 0.0001 -0.9920 0.1261
vn 0.0048 -0.8808 0.4736
vn -0.1894 -0.9008 0.3908
vn -0.0510 -0.9939 0.0982
vn -0.0108 -0.9908 0.1351
vn -0.0173 -0.8899 0.4559
vn -0.4238 -0.9041 -0.0543
vn -0.1152 -0.9929 0.0302
vn -0.0900 -0.9927 0.0804
vn -0.4006 -0.9072 0.1281
vn -0.4006 -0.9072 0.1281
vn -0.0900 -0.9927 0.0804
vn -0.0510 -0.9939 0.0982
vn -0.1894 -0.9008 0.3908
vn -0.4621 -0.8752 -0.1432
vn -0.1448 -0.9892 -0.0216
vn -0.1152 -0.9929 0.0302
vn -0.4238 -0.9041 -0.0543
vn -0.4262 -0.8779 -0.2182
vn -0.1164 -0.9914 -0.0594
vn -0.1448 -0.9892 -0.0216
vn -0.4621 -0.8752 -0.1432
vn -0.3972 -0.8778 -0.2679
vn -0.1084 -0.9914 -0.0732
vn -0.1164 -0.9914 -0.0594
vn -0.4262 -0.8779 -0.2182
vn -0.3620 -0.8783 -0.3123
vn -0.0986 -0.9915 -0.0851
vn -0.1084 -0.9914 -0.0732
vn -0.3972 -0.8778 -0.2679
vn -0.3221 -0.8780 -0.3541
vn -0.0840 -0.9906 -0.1077
vn -0.0986 -0.9915 -0.0851
vn -0.3620 -0.8783 -0.3123
vn -0.2412 -0.8895 -0.3881
vn -0.0514 -0.9932 -0.1049
vn -0.0840 -0.9906 -0.1077
vn -0.3221 -0.8780 -0.3541
vn -0.1162 -0.9108 -0.3962
vn -0.0240 -0.9944 -0.1030
vn -0.0514 -0.9932 -0.1049
vn -0.2412 -0.8895 -0.3881
vn -0.0000 -0.9144 -0.4048
vn 0.0000 -0.9945 -0.1049
vn -0.0240 -0.9944 -0.1030
vn -0.1162 -0.9108 -0.3962
vn -0.0173 -0.8899 0.4559
vn -0.0108 -0.9908 0.1351
vn -0.0001 -0.9920 0.1261
vn -0.0048 -0.8808 0.4736
vn -0.3701 -0.6773 0.6358
vn -0.1894 -0.9008 0.3908
vn -0.0173 -0.8899 0.4559
vn -0.0553 -0.6474 0.7601
vn -0.7372 -0.6680 -0.1014
vn -0.4238 -0.9041 -0.0543
vn -0.4006 -0.9072 0.1281
vn -0.6903 -0.6853 0.2321
vn -0.6903 -0.6853 0.2321
vn -0.4006 -0.9072 0.1281
vn -0.1894 -0.9008 0.3908
vn -0.3701 -0.6773 0.6358
vn -0.7508 -0.6042 -0.2668
vn -0.4621 -0.8752 -0.1432
vn -0.4238 -0.9041 -0.0543
vn -0.7372 -0.6680 -0.1014
vn -0.7094 -0.6036 -0.3639
vn -0.4262 -0.8779 -0.2182
vn -0.4621 -0.8752 -0.1432
vn -0.7508 -0.6042 -0.2668
vn -0.6614 -0.6032 -0.4457
vn -0.3972 -0.8778 -0.2679
vn -0.4262 -0.8779 -0.2182
vn -0.7094 -0.6036 -0.3639
vn -0.6035 -0.6042 -0.5204
vn -0.3620 -0.8783 -0.3123
vn -0.3972 -0.8778 -0.2679
vn -0.6614 -0.6032 -0.4457
vn -0.5374 -0.6039 -0.5886
vn -0.3221 -0.8780 -0.3541
vn -0.3620 -0.8783 -0.3123
vn -0.6035 -0.6042 -0.5204
vn -0.4114 -0.6336 -0.6552
vn -0.2412 -0.8895 -0.3881
vn -0.3221 -0.8780 -0.3541
vn -0.5374 -0.6039 -0.5886
vn -0.2302 -0.6743 -0.7016
vn -0.1162 -0.9108 -0.3962
vn -0.2412 -0.8895 -0.3881
vn -0.4114 -0.6336 -0.6552
vn 0.0000 -0.6880 -0.7257
vn -0.0000 -0.9144 -0.4048
vn -0.1162 -0.9108 -0.3962
vn -0.2302 -0.6743 -0.7016
vn -0.0553 -0.6474 0.7601
vn -0.0173 -0.8899 0.4559
vn -0.0048 -0.8808 0.4736
vn -0.0025 -0.6062 0.7953
vn -0.5398 -0.3640 0.7591
vn -0.3701 -0.6773 0.6358
vn -0.0553 -0.6474 0.7601
vn -0.1497 -0.3479 0.9255
vn -0.9305 -0.3510 -0.1044
vn -0.7372 -0.6680 -0.1014
vn -0.6903 -0.6853 0.2321
vn -0.8756 -0.3661 0.3152
vn -0.8756 -0.3661 0.3152
vn -0.6903 -0.6853 0.2321
vn -0.3701 -0.6773 0.6358
vn -0.5398 -0.3640 0.7591
vn -0.8959 -0.2987 -0.3290
vn -0.7508 -0.6042 -0.2668
vn -0.7372 -0.6680 -0.1014
vn -0.9305 -0.3510 -0.1044
vn -0.8493 -0.2977 -0.4360
vn -0.7094 -0.6036 -0.3639
vn -0.7508 -0.6042 -0.2668
vn -0.8959 -0.2987 -0.3290
vn -0.7918 -0.2975 -0.5335
vn -0.6614 -0.6032 -0.4457
vn -0.7094 -0.6036 -0.3639
vn -0.8493 -0.2977 -0.4360
vn -0.7230 -0.2981 -0.6232
vn -0.6035 -0.6042 -0.5204
vn -0.6614 -0.6032 -0.4457
vn -0.7918 -0.2975 -0.5335
vn -0.6439 -0.2980 -0.7047
vn -0.5374 -0.6039 -0.5886
vn -0.6035 -0.6042 -0.5204
vn -0.7230 -0.2981 -0.6232
vn -0.5079 -0.3205 -0.7996
vn -0.4114 -0.6336 -0.6552
vn -0.5374 -0.6039 -0.5886
vn -0.6439 -0.2980 -0.7047
vn -0.3043 -0.3523 -0.8850
vn -0.2302 -0.6743 -0.7016
vn -0.4114 -0.6336 -0.6552
vn -0.5079 -0.3205 -0.7996
vn -0.0000 -0.3657 -0.9307
vn 0.0000 -0.6880 -0.7257
vn -0.2302 -0.6743 -0.7016
vn -0.3043 -0.3523 -0.8850
vn -0.1497 -0.3479 0.9255
vn -0.0553 -0.6474 0.7601
vn -0.0025 -0.6062 0.7953
vn -0.0006 -0.2990 0.9543
vn 0.0000 -1.0000 0.0000
vn 0.0000 -1.0000 0.0000
vn -0.0986 -0.9915 -0.0851
vn -0.0840 -0.9906 -0.1077
vn 0.0000 -1.0000 0.0000
vn -0.1084 -0.9914 -0.0732
vn -0.0986 -0.9915 -0.0851
vn 0.0000 -1.0000 0.0000
vn 0.0000 -1.0000 -0.0000
vn -0.1164 -0.9914 -0.0594
vn -0.1084 -0.9914 -0.0732
vn 0.0000 -1.0000 0.0000
vn 0.0000 -1.0000 0.0000
vn -0.1448 -0.9892 -0.0216
vn -0.1164 -0.9914 -0.0594
vn 0.0000 -1.0000 -0.0000
vn 0.0000 -1.0000 0.0000
vn 0.0000 -1.0000 -0.0000
vn -0.0001 -0.9920 0.1261
vn -0.0108 -0.9908 0.1351
vn -0.0108 -0.9908 0.1351
vn -0.0510 -0.9939 0.0982
vn 0.0000 -1.0000 0.0000
vn -0.1152 -0.9929 0.0302
vn -0.1448 -0.9892 -0.0216
vn 0.0000 -1.0000 0.0000
vn -0.0900 -0.9927 0.0804
vn -0.1152 -0.9929 0.0302
vn 0.0000 -1.0000 0.0000
vn -0.0510 -0.9939 0.0982
vn -0.0900 -0.9927 0.0804
vn 0.0000 -1.0000 0.0000
vn -0.0840 -0.9906 -0.1077
vn -0.0514 -0.9932 -0.1049
vn 0.0000 -1.0000 0.0000
vn -0.0514 -0.9932 -0.1049
vn -0.0240 -0.9944 -0.1030
vn 0.0000 -1.0000 0.0000
vn -0.0240 -0.9944 -0.1030
vn 0.0000 -0.9945 -0.1049
vn 0.0000 -1.0000 0.0000
vn 0.0000 -1.0000 -0.0000
vn 0.0000 -1.0000 0.0000
vn 0.0000 -1.0000 -0.0000
vn 0.0000 -1.0000 0.0000
vn 0.0000 -1.0000 0.0000
vn 0.0000 -1.0000 0.0000
vn 0.0000 -1.0000 0.0000
vn 0.0000 -1.0000 0.0000
vn 0.0000 -1.0000 0.0000
vn 0.0000 -1.0000 -0.0000
vn 0.0000 -1.0000 0.0000
vn 0.0000 -1.0000 0.0000
vn 0.0000 -1.0000 -0.0000
vn 0.0000 -1.0000 0.0000
vn -0.0000 -1.0000 -0.0000
vn 0.0000 -1.0000 -0.0000
vn 0.0000 -1.0000 -0.0000
vn 0.0000 -1.0000 0.0000
vn 0.0000 -0.1435 0.9896
vn -0.0006 -0.2990 0.9543
vn 0.0006 -0.2990 0.9543
vn 0.0000 -0.1435 0.9896
vn 0.2325 -0.1817 0.9555
vn 0.1497 -0.3479 0.9255
vn 0.5398 -0.3640 0.7591
vn 0.6240 -0.1880 0.7585
vn 0.9205 -0.1889 0.3422
vn 0.8756 -0.3661 0.3152
vn 0.9305 -0.3510 -0.1044
vn 0.9795 -0.1770 -0.0966
vn 0.6240 -0.1880 0.7585
vn 0.5398 -0.3640 0.7591
vn 0.8756 -0.3661 0.3152
vn 0.9205 -0.1889 0.3422
vn 0.9795 -0.1770 -0.0966
vn 0.9305 -0.3510 -0.1044
vn 0.8959 -0.2987 -0.3290
vn 0.9280 -0.1443 -0.3435
vn 0.9280 -0.1443 -0.3435
vn 0.8959 -0.2987 -0.3290
vn 0.8493 -0.2977 -0.4360
vn 0.8803 -0.1437 -0.4521
vn 0.8803 -0.1437 -0.4521
vn 0.8493 -0.2977 -0.4360
vn 0.7918 -0.2975 -0.5335
vn 0.8208 -0.1436 -0.5529
vn 0.8208 -0.1436 -0.5529
vn 0.7918 -0.2975 -0.5335
vn 0.7230 -0.2981 -0.6232
vn 0.7495 -0.1440 -0.6461
vn 0.7495 -0.1440 -0.6461
vn 0.7230 -0.2981 -0.6232
vn 0.6439 -0.2980 -0.7047
vn 0.6676 -0.1439 -0.7304
vn 0.6676 -0.1439 -0.7304
vn 0.6439 -0.2980 -0.7047
vn 0.5079 -0.3205 -0.7996
vn 0.5314 -0.1564 -0.8326
vn 0.5314 -0.1564 -0.8326
vn 0.5079 -0.3205 -0.7996
vn 0.3043 -0.3523 -0.8850
vn 0.3240 -0.1759 -0.9296
vn 0.3240 -0.1759 -0.9296
vn 0.3043 -0.3523 -0.8850
vn -0.0000 -0.3657 -0.9307
vn 0.0000 -0.1866 -0.9824
vn 0.0000 -0.1435 0.9896
vn 0.0006 -0.2990 0.9543
vn 0.1497 -0.3479 0.9255
vn 0.2325 -0.1817 0.9555
vn 0.1894 -0.9008 0.3908
vn 0.0173 -0.8899 0.4559
vn 0.0108 -0.9908 0.1351
vn 0.0510 -0.9939 0.0982
vn 0.4238 -0.9041 -0.0543
vn 0.4006 -0.9072 0.1281
vn 0.0900 -0.9927 0.0804
vn 0.1152 -0.9929 0.0302
vn 0.4006 -0.9072 0.1281
vn 0.1894 -0.9008 0.3908
vn 0.0510 -0.9939 0.0982
vn 0.0900 -0.9927 0.0804
vn 0.4621 -0.8752 -0.1432
vn 0.4238 -0.9041 -0.0543
vn 0.1152 -0.9929 0.0302
vn 0.1448 -0.9892 -0.0216
vn 0.4262 -0.8779 -0.2182
vn 0.4621 -0.8752 -0.1432
vn 0.1448 -0.9892 -0.0216
vn 0.1164 -0.9914 -0.0594
vn 0.3972 -0.8778 -0.2679
vn 0.4262 -0.8779 -0.2182
vn 0.1164 -0.9914 -0.0594
vn 0.1084 -0.9914 -0.0732
vn 0.3620 -0.8783 -0.3123
vn 0.3972 -0.8778 -0.2679
vn 0.1084 -0.9914 -0.0732
vn 0.0986 -0.9915 -0.0851
vn 0.3221 -0.8780 -0.3541
vn 0.3620 -0.8783 -0.3123
vn 0.0986 -0.9915 -0.0851
vn 0.0840 -0.9906 -0.1077
vn 0.2412 -0.8895 -0.3881
vn 0.3221 -0.8780 -0.3541
vn 0.0840 -0.9906 -0.1077
vn 0.0514 -0.9932 -0.1049
vn 0.1162 -0.9108 -0.3962
vn 0.2412 -0.8895 -0.3881
vn 0.0514 -0.9932 -0.1049
vn 0.0240 -0.9944 -0.1030
vn -0.0000 -0.9144 -0.4048
vn 0.1162 -0.9108 -0.3962
vn 0.0240 -0.9944 -0.1030
vn 0.0000 -0.9945 -0.1049
vn 0.0173 -0.8899 0.4559
vn 0.0048 -0.8808 0.4736
vn 0.0001 -0.9920 0.1261
vn 0.0108 -0.9908 0.1351
vn 0.0025 -0.6062 0.7953
vn -0.0025 -0.6062 0.7953
vn -0.0048 -0.8808 0.4736
vn 0.0048 -0.8808 0.4736
vn 0.3701 -0.6773 0.6358
vn 0.0553 -0.6474 0.7601
vn 0.0173 -0.8899 0.4559
vn 0.1894 -0.9008 0.3908
vn 0.7372 -0.6680 -0.1014
vn 0.6903 -0.6853 0.2321
vn 0.4006 -0.9072 0.1281
vn 0.4238 -0.9041 -0.0543
vn 0.6903 -0.6853 0.2321
vn 0.3701 -0.6773 0.6358
vn 0.1894 -0.9008 0.3908
vn 0.4006 -0.9072 0.1281
vn 0.7508 -0.6042 -0.2668
vn 0.7372 -0.6680 -0.1014
vn 0.4238 -0.9041 -0.0543
vn 0.4621 -0.8752 -0.1432
vn 0.7094 -0.6036 -0.3639
vn 0.7508 -0.6042 -0.2668
vn 0.4621 -0.8752 -0.1432
vn 0.4262 -0.8779 -0.2182
vn 0.6614 -0.6032 -0.4457
vn 0.7094 -0.6036 -0.3639
vn 0.4262 -0.8779 -0.2182
vn 0.3972 -0.8778 -0.2679
vn 0.6035 -0.6042 -0.5204
vn 0.6614 -0.6032 -0.4457
vn 0.3972 -0.8778 -0.2679
vn 0.3620 -0.8783 -0.3123
vn 0.5374 -0.6039 -0.5886
vn 0.6035 -0.6042 -0.5204
vn 0.3620 -0.8783 -0.3123
vn 0.3221 -0.8780 -0.3541
vn 0.4114 -0.6336 -0.6552
vn 0.5374 -0.6039 -0.5886
vn 0.3221 -0.8780 -0.3541
vn 0.2412 -0.8895 -0.3881
vn 0.2302 -0.6743 -0.7016
vn 0.4114 -0.6336 -0.6552
vn 0.2412 -0.8895 -0.3881
vn 0.1162 -0.9108 -0.3962
vn 0.0000 -0.6880 -0.7257
vn 0.2302 -0.6743 -0.7016
vn 0.1162 -0.9108 -0.3962
vn -0.0000 -0.9144 -0.4048
vn 0.0553 -0.6474 0.7601
vn 0.0025 -0.6062 0.7953
vn 0.0048 -0.8808 0.4736
vn 0.0173 -0.8899 0.4559
vn 0.0006 -0.2990 0.9543
vn -0.0006 -0.2990 0.9543
vn -0.0025 -0.6062 0.7953
vn 0.0025 -0.6062 0.7953
vn 0.5398 -0.3640 0.7591
vn 0.1497 -0.3479 0.9255
vn 0.0553 -0.6474 0.7601
vn 0.3701 -0.6773 0.6358
vn 0.9305 -0.3510 -0.1044
vn 0.8756 -0.3661 0.3152
vn 0.6903 -0.6853 0.2321
vn 0.7372 -0.6680 -0.1014
vn 0.8756 -0.3661 0.3152
vn 0.5398 -0.3640 0.7591
vn 0.3701 -0.6773 0.6358
vn 0.6903 -0.6853 0.2321
vn 0.8959 -0.2987 -0.3290
vn 0.9305 -0.3510 -0.1044
vn 0.7372 -0.6680 -0.1014
vn 0.7508 -0.6042 -0.2668
vn 0.8493 -0.2977 -0.4360
vn 0.8959 -0.2987 -0.3290
vn 0.7508 -0.6042 -0.2668
vn 0.7094 -0.6036 -0.3639
vn 0.7918 -0.2975 -0.5335
vn 0.8493 -0.2977 -0.4360
vn 0.7094 -0.6036 -0.3639
vn 0.6614 -0.6032 -0.4457
vn 0.7230 -0.2981 -0.6232
vn 0.7918 -0.2975 -0.5335
vn 0.6614 -0.6032 -0.4457
vn 0.6035 -0.6042 -0.5204
vn 0.6439 -0.2980 -0.7047
vn 0.7230 -0.2981 -0.6232
vn 0.6035 -0.6042 -0.5204
vn 0.5374 -0.6039 -0.5886
vn 0.5079 -0.3205 -0.7996
vn 0.6439 -0.2980 -0.7047
vn 0.5374 -0.6039 -0.5886
vn 0.4114 -0.6336 -0.6552
vn 0.3043 -0.3523 -0.8850
vn 0.5079 -0.3205 -0.7996
vn 0.4114 -0.6336 -0.6552
vn 0.2302 -0.6743 -0.7016
vn -0.0000 -0.3657 -0.9307
vn 0.3043 -0.3523 -0.8850
vn 0.2302 -0.6743 -0.7016
vn 0.0000 -0.6880 -0.7257
vn 0.1497 -0.3479 0.9255
vn 0.0006 -0.2990 0.9543
vn 0.0025 -0.6062 0.7953
vn 0.0553 -0.6474 0.7601
vn 0.0000 -1.0000 0.0000
vn 0.0840 -0.9906 -0.1077
vn 0.0986 -0.9915 -0.0851
vn -0.0000 -1.0000 0.0000
vn -0.0000 -1.0000 0.0000
vn -0.0000 -1.0000 0.0000
vn 0.0986 -0.9915 -0.0851
vn 0.1084 -0.9914 -0.0732
vn -0.0000 -1.0000 -0.0000
vn -0.0000 -1.0000 0.0000
vn 0.1084 -0.9914 -0.0732
vn 0.1164 -0.9914 -0.0594
vn -0.0000 -1.0000 0.0000
vn -0.0000 -1.0000 -0.0000
vn 0.1164 -0.9914 -0.0594
vn 0.1448 -0.9892 -0.0216
vn -0.0000 -1.0000 0.0000
vn 0.0108 -0.9908 0.1351
vn 0.0001 -0.9920 0.1261
vn -0.0000 -1.0000 -0.0000
vn 0.0108 -0.9908 0.1351
vn -0.0000 -1.0000 0.0000
vn 0.0510 -0.9939 0.0982
vn 0.1152 -0.9929 0.0302
vn -0.0000 -1.0000 0.0000
vn 0.1448 -0.9892 -0.0216
vn 0.0900 -0.9927 0.0804
vn -0.0000 -1.0000 0.0000
vn 0.1152 -0.9929 0.0302
vn 0.0510 -0.9939 0.0982
vn -0.0000 -1.0000 0.0000
vn 0.0900 -0.9927 0.0804
vn 0.0840 -0.9906 -0.1077
vn 0.0000 -1.0000 0.0000
vn 0.0514 -0.9932 -0.1049
vn 0.0514 -0.9932 -0.1049
vn 0.0000 -1.0000 0.0000
vn 0.0240 -0.9944 -0.1030
vn 0.0240 -0.9944 -0.1030
vn 0.0000 -1.0000 0.0000
vn 0.0000 -0.9945 -0.1049
vn -0.0000 -1.0000 -0.0000
vn -0.0000 -1.0000 -0.0000
vn -0.0000 -1.0000 0.0000
vn -0.0000 -1.0000 0.0000
vn 0.0000 -1.0000 0.0000
vn 0.0000 -1.0000 0.0000
vn -0.0000 -1.0000 0.0000
vn 0.0000 -1.0000 0.0000
vn -0.0000 -1.0000 0.0000
vn -0.0000 -1.0000 -0.0000
vn 0.0000 -1.0000 0.0000
vn -0.0000 -1.0000 0.0000
vn -0.0000 -1.0000 -0.0000
vn 0.0000 -1.0000 0.0000
vn -0.0000 -1.0000 -0.0000
vn -0.0001 -0.9920 0.1261
vn 0.0000 -1.0000 -0.0000
vn -0.0000 -1.0000 -0.0000
vn 0.0001 -0.9920 0.1261
# 519 vertex normals

vt 1.0000 0.0000 0.0000
vt 1.0000 1.0000 1.0000
# 2 texture coords

o TriangleRoofCollider
g TriangleRoofCollider
s 1
f 336/336/1373 337/336/1374 338/336/1375 339/336/1376 
f 340/336/1377 341/336/1378 342/336/1379 343/336/1380 
f 337/336/1381 340/336/1382 343/336/1383 338/336/1384 
f 341/336/1385 344/336/1386 345/336/1387 342/336/1388 
f 344/336/1389 346/336/1390 347/336/1391 345/336/1392 
f 346/336/1393 348/336/1394 349/336/1395 347/336/1396 
f 348/336/1397 350/336/1398 351/336/1399 349/336/1400 
f 350/336/1401 352/336/1402 353/336/1403 351/336/1404 
f 352/336/1405 354/336/1406 355/336/1407 353/336/1408 
f 354/336/1409 356/336/1410 357/336/1411 355/336/1412 
f 356/336/1413 358/336/1414 359/336/1415 357/336/1416 
f 360/336/1417 336/336/1418 339/336/1419 361/336/1420 
f 362/336/1421 363/336/1422 364/336/1423 365/336/1424 
f 366/336/1425 367/336/1426 368/336/1427 369/336/1428 
f 370/336/1429 371/336/1430 372/336/1431 373/336/1432 
f 373/336/1433 372/336/1434 367/336/1435 366/336/1436 
f 374/336/1437 375/336/1438 371/336/1439 370/336/1440 
f 376/336/1441 377/336/1442 375/336/1443 374/336/1444 
f 378/336/1445 379/336/1446 377/336/1447 376/336/1448 
f 380/336/1449 381/336/1450 379/336/1451 378/336/1452 
f 382/336/1453 383/336/1454 381/336/1455 380/336/1456 
f 384/336/1457 385/336/1458 383/336/1459 382/336/1460 
f 386/336/1461 387/336/1462 385/336/1463 384/336/1464 
f 388/336/1465 389/336/1466 387/336/1467 386/336/1468 
f 369/336/1469 368/336/1470 363/336/1471 362/336/1472 
f 390/336/1473 366/336/1474 369/336/1475 391/336/1476 
f 392/336/1477 370/336/1478 373/336/1479 393/336/1480 
f 393/336/1481 373/336/1482 366/336/1483 390/336/1484 
f 394/336/1485 374/336/1486 370/336/1487 392/336/1488 
f 395/336/1489 376/336/1490 374/336/1491 394/336/1492 
f 396/336/1493 378/336/1494 376/336/1495 395/336/1496 
f 397/336/1497 380/336/1498 378/336/1499 396/336/1500 
f 398/336/1501 382/336/1502 380/336/1503 397/336/1504 
f 399/336/1505 384/336/1506 382/336/1507 398/336/1508 
f 400/336/1509 386/336/1510 384/336/1511 399/336/1512 
f 401/336/1513 388/336/1514 386/336/1515 400/336/1516 
f 391/336/1517 369/336/1518 362/336/1519 402/336/1520 
f 338/336/1521 390/336/1522 391/336/1523 339/336/1524 
f 342/336/1525 392/336/1526 393/336/1527 343/336/1528 
f 343/336/1529 393/336/1530 390/336/1531 338/336/1532 
f 345/336/1533 394/336/1534 392/336/1535 342/336/1536 
f 347/336/1537 395/336/1538 394/336/1539 345/336/1540 
f 349/336/1541 396/336/1542 395/336/1543 347/336/1544 
f 351/336/1545 397/336/1546 396/336/1547 349/336/1548 
f 353/336/1549 398/336/1550 397/336/1551 351/336/1552 
f 355/336/1553 399/336/1554 398/336/1555 353/336/1556 
f 357/336/1557 400/336/1558 399/336/1559 355/336/1560 
f 359/336/1561 401/336/1562 400/336/1563 357/336/1564 
f 339/336/1565 391/336/1566 402/336/1567 361/336/1568 
f 403/337/1569 404/337/1570 381/336/1571 383/336/1572 
f 405/337/1573 379/336/1574 381/336/1575 404/337/1576 
f 406/337/1577 377/336/1578 379/336/1579 405/337/1580 
f 407/337/1581 375/336/1582 377/336/1583 406/337/1584 
f 407/337/1585 408/337/1586 363/336/1587 368/336/1588 
f 368/336/1589 367/336/1590 407/337/1591 
f 371/336/1592 375/336/1593 407/337/1594 
f 372/336/1595 371/336/1596 407/337/1597 
f 367/336/1598 372/336/1599 407/337/1600 
f 383/336/1601 385/336/1602 403/337/1603 
f 385/336/1604 387/336/1605 403/337/1606 
f 387/336/1607 389/336/1608 403/337/1609 
f 408/337/1610 407/337/1611 406/337/1612 
f 404/337/1613 403/337/1614 409/337/1615 
f 405/337/1616 404/337/1617 409/337/1618 
f 406/337/1619 405/337/1620 409/337/1621 
f 408/337/1622 409/337/1623 410/337/1624 
f 408/337/1625 406/337/1626 409/337/1627 
f 360/336/1628 361/336/1629 411/336/1630 412/336/1631 
f 413/336/1632 414/336/1633 415/336/1634 416/336/1635 
f 417/336/1636 418/336/1637 419/336/1638 420/336/1639 
f 416/336/1640 415/336/1641 418/336/1642 417/336/1643 
f 420/336/1644 419/336/1645 421/336/1646 422/336/1647 
f 422/336/1648 421/336/1649 423/336/1650 424/336/1651 
f 424/336/1652 423/336/1653 425/336/1654 426/336/1655 
f 426/336/1656 425/336/1657 427/336/1658 428/336/1659 
f 428/336/1660 427/336/1661 429/336/1662 430/336/1663 
f 430/336/1664 429/336/1665 431/336/1666 432/336/1667 
f 432/336/1668 431/336/1669 433/336/1670 434/336/1671 
f 434/336/1672 433/336/1673 359/336/1674 358/336/1675 
f 412/336/1676 411/336/1677 414/336/1678 413/336/1679 
f 435/336/1680 436/336/1681 437/336/1682 438/336/1683 
f 439/336/1684 440/336/1685 441/336/1686 442/336/1687 
f 440/336/1688 435/336/1689 438/336/1690 441/336/1691 
f 443/336/1692 439/336/1693 442/336/1694 444/336/1695 
f 445/336/1696 443/336/1697 444/336/1698 446/336/1699 
f 447/336/1700 445/336/1701 446/336/1702 448/336/1703 
f 449/336/1704 447/336/1705 448/336/1706 450/336/1707 
f 451/336/1708 449/336/1709 450/336/1710 452/336/1711 
f 453/336/1712 451/336/1713 452/336/1714 454/336/1715 
f 455/336/1716 453/336/1717 454/336/1718 456/336/1719 
f 388/336/1720 455/336/1721 456/336/1722 389/336/1723 
f 436/336/1724 365/336/1725 364/336/1726 437/336/1727 
f 457/336/1728 402/336/1729 362/336/1730 365/336/1731 
f 458/336/1732 459/336/1733 436/336/1734 435/336/1735 
f 460/336/1736 461/336/1737 440/336/1738 439/336/1739 
f 461/336/1740 458/336/1741 435/336/1742 440/336/1743 
f 462/336/1744 460/336/1745 439/336/1746 443/336/1747 
f 463/336/1748 462/336/1749 443/336/1750 445/336/1751 
f 464/336/1752 463/336/1753 445/336/1754 447/336/1755 
f 465/336/1756 464/336/1757 447/336/1758 449/336/1759 
f 466/336/1760 465/336/1761 449/336/1762 451/336/1763 
f 467/336/1764 466/336/1765 451/336/1766 453/336/1767 
f 468/336/1768 467/336/1769 453/336/1770 455/336/1771 
f 401/336/1772 468/336/1773 455/336/1774 388/336/1775 
f 459/336/1776 457/336/1777 365/336/1778 436/336/1779 
f 411/336/1780 361/336/1781 402/336/1782 457/336/1783 
f 415/336/1784 414/336/1785 459/336/1786 458/336/1787 
f 419/336/1788 418/336/1789 461/336/1790 460/336/1791 
f 418/336/1792 415/336/1793 458/336/1794 461/336/1795 
f 421/336/1796 419/336/1797 460/336/1798 462/336/1799 
f 423/336/1800 421/336/1801 462/336/1802 463/336/1803 
f 425/336/1804 423/336/1805 463/336/1806 464/336/1807 
f 427/336/1808 425/336/1809 464/336/1810 465/336/1811 
f 429/336/1812 427/336/1813 465/336/1814 466/336/1815 
f 431/336/1816 429/336/1817 466/336/1818 467/336/1819 
f 433/336/1820 431/336/1821 467/336/1822 468/336/1823 
f 359/336/1824 433/336/1825 468/336/1826 401/336/1827 
f 414/336/1828 411/336/1829 457/336/1830 459/336/1831 
f 403/337/1832 452/336/1833 450/336/1834 469/337/1835 
f 470/337/1836 469/337/1837 450/336/1838 448/336/1839 
f 471/337/1840 470/337/1841 448/336/1842 446/336/1843 
f 472/337/1844 471/337/1845 446/336/1846 444/336/1847 
f 472/337/1848 437/336/1849 364/336/1850 410/337/1851 
f 437/336/1852 472/337/1853 438/336/1854 
f 442/336/1855 472/337/1856 444/336/1857 
f 441/336/1858 472/337/1859 442/336/1860 
f 438/336/1861 472/337/1862 441/336/1863 
f 452/336/1864 403/337/1865 454/336/1866 
f 454/336/1867 403/337/1868 456/336/1869 
f 456/336/1870 403/337/1871 389/336/1872 
f 410/337/1873 471/337/1874 472/337/1875 
f 469/337/1876 409/337/1877 403/337/1878 
f 470/337/1879 409/337/1880 469/337/1881 
f 471/337/1882 409/337/1883 470/337/1884 
f 410/337/1885 409/337/1886 471/337/1887 
f 363/336/1888 408/337/1889 410/337/1890 364/336/1891 
# 111 polygons - 25 triangles

