# 3ds Max Wavefront OBJ Exporter v0.97b - (c)2007 guruware
# File Created: 29.05.2025 13:56:31

#
# object Wardrobe_Small
#

v  -39.3701 0.0000 9.7638
v  -31.2766 0.0000 1.6703
v  -31.2699 -0.0000 96.7482
v  -39.3701 -0.0000 88.5827
v  0.0000 -0.0000 98.4252
v  0.0000 0.0000 0.0000
v  0.0000 39.3701 0.0000
v  0.0000 39.3701 98.4252
v  -4.8624 3.9370 13.7008
v  -4.8624 3.9370 84.7280
v  -4.8624 35.4331 84.7280
v  -4.8624 35.4331 13.7008
v  -39.3701 3.9370 84.7280
v  -39.3701 3.9370 13.7008
v  -39.3701 35.4331 84.7280
v  -39.3701 39.3701 88.5827
v  -39.3701 39.3701 9.7638
v  -39.3701 35.4331 13.7008
v  -31.2766 39.3701 1.6704
v  -31.2699 39.3701 96.7482
v  -29.4317 39.3701 98.0059
v  -29.4333 39.3701 0.4176
v  -27.2441 39.3701 98.4252
v  -27.2441 39.3701 0.0000
v  -27.2441 0.0000 0.0000
v  -27.2441 -0.0000 98.4252
v  -29.4333 0.0000 0.4176
v  -29.4317 -0.0000 98.0059
# 28 vertices

vn 0.0000 -1.0000 0.0000
vn 0.0000 -1.0000 0.0000
vn 0.0000 -1.0000 0.0000
vn 0.0000 -1.0000 -0.0000
vn 1.0000 0.0000 0.0000
vn 1.0000 0.0000 0.0000
vn 1.0000 0.0000 0.0000
vn 1.0000 0.0000 0.0000
vn -1.0000 0.0000 0.0000
vn -1.0000 0.0000 0.0000
vn -1.0000 0.0000 0.0000
vn -1.0000 0.0000 0.0000
vn -1.0000 0.0000 0.0000
vn -1.0000 0.0000 0.0000
vn -1.0000 0.0000 0.0000
vn -1.0000 0.0000 0.0000
vn -1.0000 0.0000 0.0000
vn -1.0000 0.0000 0.0000
vn -1.0000 0.0000 0.0000
vn -1.0000 0.0000 0.0000
vn -1.0000 0.0000 0.0000
vn -1.0000 0.0000 0.0000
vn -1.0000 0.0000 0.0000
vn -1.0000 0.0000 0.0000
vn -1.0000 0.0000 0.0000
vn -1.0000 0.0000 0.0000
vn -1.0000 0.0000 0.0000
vn -1.0000 0.0000 0.0000
vn 0.0000 1.0000 0.0000
vn 0.0000 1.0000 0.0000
vn 0.0000 1.0000 0.0000
vn 0.0000 1.0000 0.0000
vn 0.0000 0.0000 -1.0000
vn 0.0000 0.0000 -1.0000
vn 0.0000 0.0000 -1.0000
vn 0.0000 0.0000 -1.0000
vn 0.0000 -1.0000 0.0000
vn 0.0000 -1.0000 0.0000
vn 0.0000 -1.0000 0.0000
vn 0.0000 -1.0000 0.0000
vn 0.0000 0.0000 1.0000
vn 0.0000 0.0000 1.0000
vn 0.0000 0.0000 1.0000
vn 0.0000 0.0000 1.0000
vn 0.0000 1.0000 0.0000
vn 0.0000 1.0000 0.0000
vn 0.0000 1.0000 0.0000
vn 0.0000 1.0000 0.0000
vn 0.0000 1.0000 0.0000
vn 0.0000 1.0000 0.0000
vn 0.0000 1.0000 0.0000
vn 0.0000 1.0000 0.0000
vn 0.0000 1.0000 0.0000
vn -0.0000 1.0000 0.0000
vn -0.0000 1.0000 0.0000
vn -0.0000 1.0000 0.0000
vn -0.0000 1.0000 0.0000
vn -0.0000 1.0000 0.0000
vn 0.0000 1.0000 0.0000
vn -0.0000 1.0000 0.0000
vn 0.0000 -1.0000 -0.0000
vn 0.0000 -1.0000 -0.0000
vn 0.0000 -1.0000 -0.0000
vn 0.0000 -1.0000 -0.0000
vn 0.0000 -1.0000 -0.0000
vn 0.0000 -1.0000 -0.0000
vn 0.0000 -1.0000 -0.0000
vn 0.0000 -1.0000 -0.0000
vn -0.0000 -1.0000 -0.0000
vn -0.0000 -1.0000 -0.0000
vn -0.0000 -1.0000 -0.0000
vn -0.0000 -1.0000 -0.0000
vn -0.6402 -0.0000 0.7682
vn -0.7099 -0.0000 0.7043
vn -0.7099 -0.0000 0.7043
vn -0.6402 -0.0000 0.7682
vn -0.3845 -0.0000 0.9231
vn -0.6402 -0.0000 0.7682
vn -0.6402 -0.0000 0.7682
vn -0.3845 -0.0000 0.9231
vn -0.0945 -0.0000 0.9955
vn -0.3845 -0.0000 0.9231
vn -0.3845 -0.0000 0.9231
vn -0.0945 -0.0000 0.9955
vn 0.0000 -0.0000 1.0000
vn -0.0945 -0.0000 0.9955
vn -0.0945 -0.0000 0.9955
vn 0.0000 -0.0000 1.0000
vn -0.0941 0.0000 -0.9956
vn -0.0000 0.0000 -1.0000
vn -0.0000 0.0000 -1.0000
vn -0.0941 0.0000 -0.9956
vn -0.3827 0.0000 -0.9239
vn -0.0941 0.0000 -0.9956
vn -0.0941 0.0000 -0.9956
vn -0.3827 0.0000 -0.9239
vn -0.5621 0.0000 -0.8271
vn -0.3827 0.0000 -0.9239
vn -0.3827 0.0000 -0.9239
vn -0.5621 0.0000 -0.8271
vn 0.6762 0.3889 0.0000
vn 0.9824 0.3762 0.0000
vn 0.8242 0.6733 0.0000
vn -0.7071 0.0000 -0.7071
# 104 vertex normals

vt 0.9568 0.3507 0.0000
vt 0.9824 0.3762 0.0000
vt 0.6815 0.3762 0.0000
vt 0.7073 0.3507 0.0000
vt 0.9639 0.6733 0.0000
vt 0.9639 0.9647 0.0000
vt 0.8242 0.9647 0.0000
vt 0.8242 0.6733 0.0000
vt 0.8243 0.9647 0.0000
vt 0.8243 0.6733 0.0000
vt 0.9637 0.6733 0.0000
vt 0.9637 0.9647 0.0000
vt 0.0444 0.0331 0.0000
vt 0.5465 0.0331 0.0000
vt 0.5750 0.0045 0.0000
vt 0.0157 0.0045 0.0000
vt 0.3989 0.0331 0.0000
vt 0.7237 0.0331 0.0000
vt 0.7521 0.0046 0.0000
vt 0.3703 0.0046 0.0000
vt 0.7280 0.1078 0.0000
vt 0.9829 0.1078 0.0000
vt 0.9829 0.2245 0.0000
vt 0.7280 0.2245 0.0000
vt 0.2942 0.4087 0.0000
vt 0.4725 0.4087 0.0000
vt 0.4725 0.2297 0.0000
vt 0.2942 0.2297 0.0000
vt 0.8243 0.8206 0.0000
vt 0.9637 0.8206 0.0000
vt 0.6775 0.3820 0.0000
vt 0.9864 0.3820 0.0000
vt 0.6762 0.3889 0.0000
vt 0.6762 0.4749 0.0000
vt 0.9877 0.4749 0.0000
vt 0.9877 0.3889 0.0000
vt 0.6616 0.4517 0.0000
vt 0.5679 0.4517 0.0000
vt 0.5679 0.2573 0.0000
vt 0.6616 0.2573 0.0000
vt 0.0621 0.3057 0.0000
vt 0.0621 0.2974 0.0000
vt 0.2642 0.2974 0.0000
vt 0.2642 0.3057 0.0000
vt 0.0621 0.3140 0.0000
vt 0.2642 0.3140 0.0000
vt 0.4829 0.2247 0.0000
vt 0.5561 0.2247 0.0000
vt 0.5561 0.3872 0.0000
vt 0.4829 0.3872 0.0000
vt 0.2642 0.3139 0.0000
vt 0.0621 0.3139 0.0000
vt 0.7463 0.3094 0.0000
vt 0.7463 0.2658 0.0000
vt 0.8965 0.2658 0.0000
vt 0.8965 0.3094 0.0000
# 56 texture coords

o Wardrobe_Small
g Wardrobe_Small
s off
f 1/1/1 2/2/2 3/3/3 4/4/4 
f 5/5/5 6/6/6 7/7/7 8/8/8 
f 9/9/9 10/10/10 11/11/11 12/12/12 
f 13/13/13 14/14/14 1/15/15 4/16/16 
f 15/17/17 13/18/18 4/19/19 16/20/20 
f 16/16/21 17/15/22 18/14/23 15/13/24 
f 14/18/25 18/17/26 17/20/27 1/19/28 
f 10/21/29 9/22/30 14/23/31 13/24/32 
f 11/25/33 10/26/34 13/27/35 15/28/36 
f 15/21/37 18/22/38 12/23/39 11/24/40 
f 9/12/41 12/9/42 18/29/43 14/30/44 
f 19/2/45 20/3/46 21/31/47 22/32/48 
f 23/33/49 8/34/50 7/35/51 24/36/52 
f 21/31/53 23/33/54 24/36/55 22/32/56 
f 19/2/57 17/1/58 16/4/59 20/3/60 
f 25/36/61 6/35/62 5/34/63 26/33/64 
f 27/32/65 25/36/66 26/33/67 28/31/68 
f 2/2/69 27/32/70 28/31/71 3/3/72 
s 1
f 20/37/73 16/38/74 4/39/75 3/40/76 
f 21/41/77 20/42/78 3/43/79 28/44/80 
f 23/45/81 21/41/82 28/44/83 26/46/84 
f 8/47/85 23/48/86 26/49/87 5/50/88 
f 24/49/89 7/50/90 6/47/91 25/48/92 
f 22/44/93 24/51/94 25/52/95 27/41/96 
f 19/43/97 22/44/98 27/41/99 2/42/100 
f 17/53/101 19/54/102 2/55/103 1/56/104 
# 26 polygons

#
# object DoorSimpleR
#

v  -3.3489 1.1163 34.8551
v  -3.3489 33.9204 34.8552
v  -3.3489 33.9204 -34.8552
v  -3.3489 1.1163 -34.8551
v  0.0000 2.2326 -37.3100
v  0.0000 0.6543 -36.6557
v  -1.8605 0.6543 -36.6557
v  -1.8605 2.2326 -37.3100
v  0.0000 0.0000 -35.0774
v  -1.8605 0.0000 -35.0774
v  -0.0000 0.0000 35.0774
v  -1.8605 0.0000 35.0774
v  -0.0000 0.6543 36.6556
v  -1.8605 0.6543 36.6556
v  -0.0000 2.2326 37.3100
v  -1.8605 2.2326 37.3100
v  -0.0000 32.8041 37.3100
v  -1.8605 32.8041 37.3100
v  -0.0000 34.3823 36.6557
v  -1.8605 34.3823 36.6557
v  -0.0000 35.0367 35.0774
v  -1.8605 35.0367 35.0774
v  0.0000 35.0367 -35.0774
v  -1.8605 35.0367 -35.0774
v  0.0000 34.3823 -36.6557
v  -1.8605 34.3823 -36.6557
v  0.0000 32.8041 -37.3100
v  -1.8605 32.8041 -37.3100
v  -3.3489 1.5086 -35.8014
v  -3.3489 2.4548 -36.1937
v  -3.3489 1.5086 35.8014
v  -3.3489 2.4548 36.1937
v  -3.3489 32.5818 36.1937
v  -3.3489 33.5281 35.8014
v  -3.3489 33.5281 -35.8014
v  -3.3489 32.5818 -36.1937
# 36 vertices

vn -1.0000 0.0000 -0.0000
vn -1.0000 0.0000 -0.0000
vn -1.0000 0.0000 -0.0000
vn -1.0000 0.0000 -0.0000
vn 0.0000 -0.3830 -0.9238
vn 0.0000 -0.3830 -0.9238
vn 0.0000 -0.3830 -0.9238
vn 0.0000 -0.3830 -0.9238
vn 0.0000 -0.9238 -0.3830
vn 0.0000 -0.9238 -0.3830
vn 0.0000 -0.9238 -0.3830
vn 0.0000 -0.9238 -0.3830
vn -0.0000 -1.0000 0.0000
vn -0.0000 -1.0000 0.0000
vn -0.0000 -1.0000 0.0000
vn -0.0000 -1.0000 0.0000
vn 0.0000 -0.9238 0.3830
vn 0.0000 -0.9238 0.3830
vn 0.0000 -0.9238 0.3830
vn 0.0000 -0.9238 0.3830
vn -0.0000 -0.3830 0.9238
vn -0.0000 -0.3830 0.9238
vn -0.0000 -0.3830 0.9238
vn -0.0000 -0.3830 0.9238
vn 0.0000 -0.0000 1.0000
vn 0.0000 -0.0000 1.0000
vn 0.0000 -0.0000 1.0000
vn 0.0000 -0.0000 1.0000
vn 0.0000 0.3830 0.9238
vn 0.0000 0.3830 0.9238
vn 0.0000 0.3830 0.9238
vn 0.0000 0.3830 0.9238
vn 0.0000 0.9238 0.3830
vn 0.0000 0.9238 0.3830
vn 0.0000 0.9238 0.3830
vn 0.0000 0.9238 0.3830
vn 0.0000 1.0000 0.0000
vn 0.0000 1.0000 0.0000
vn 0.0000 1.0000 0.0000
vn 0.0000 1.0000 0.0000
vn 0.0000 0.9238 -0.3830
vn 0.0000 0.9238 -0.3830
vn 0.0000 0.9238 -0.3830
vn 0.0000 0.9238 -0.3830
vn 0.0000 0.3830 -0.9238
vn 0.0000 0.3830 -0.9238
vn 0.0000 0.3830 -0.9238
vn 0.0000 0.3830 -0.9238
vn 0.0000 -0.0000 -1.0000
vn 0.0000 -0.0000 -1.0000
vn 0.0000 -0.0000 -1.0000
vn 0.0000 -0.0000 -1.0000
vn -0.6000 -0.3064 -0.7390
vn -0.6000 -0.3064 -0.7390
vn -0.6000 -0.3064 -0.7390
vn -0.6000 -0.3064 -0.7390
vn -0.6000 -0.7390 -0.3064
vn -0.6000 -0.7390 -0.3064
vn -0.6000 -0.7390 -0.3064
vn -0.6000 -0.7390 -0.3064
vn -0.6000 -0.8000 -0.0000
vn -0.6000 -0.8000 -0.0000
vn -0.6000 -0.8000 -0.0000
vn -0.6000 -0.8000 -0.0000
vn -0.6000 -0.7390 0.3064
vn -0.6000 -0.7390 0.3064
vn -0.6000 -0.7390 0.3064
vn -0.6000 -0.7390 0.3064
vn -0.6000 -0.3064 0.7390
vn -0.6000 -0.3064 0.7390
vn -0.6000 -0.3064 0.7390
vn -0.6000 -0.3064 0.7390
vn -0.6000 -0.0000 0.8000
vn -0.6000 -0.0000 0.8000
vn -0.6000 -0.0000 0.8000
vn -0.6000 -0.0000 0.8000
vn -0.6000 0.3064 0.7390
vn -0.6000 0.3064 0.7390
vn -0.6000 0.3064 0.7390
vn -0.6000 0.3064 0.7390
vn -0.6000 0.7390 0.3064
vn -0.6000 0.7390 0.3064
vn -0.6000 0.7390 0.3064
vn -0.6000 0.7390 0.3064
vn -0.6000 0.8000 -0.0000
vn -0.6000 0.8000 -0.0000
vn -0.6000 0.8000 -0.0000
vn -0.6000 0.8000 -0.0000
vn -0.6000 0.7390 -0.3064
vn -0.6000 0.7390 -0.3064
vn -0.6000 0.7390 -0.3064
vn -0.6000 0.7390 -0.3064
vn -0.6000 0.3064 -0.7390
vn -0.6000 0.3064 -0.7390
vn -0.6000 0.3064 -0.7390
vn -0.6000 0.3064 -0.7390
vn -0.6000 -0.0000 -0.8000
vn -0.6000 -0.0000 -0.8000
vn -0.6000 -0.0000 -0.8000
vn -0.6000 -0.0000 -0.8000
vn 1.0000 -0.0000 0.0000
vn 1.0000 -0.0000 0.0000
vn 1.0000 -0.0000 0.0000
vn 1.0000 -0.0000 0.0000
vn 1.0000 -0.0000 0.0000
vn 1.0000 -0.0000 0.0000
vn 1.0000 -0.0000 0.0000
vn 1.0000 -0.0000 0.0000
vn 1.0000 -0.0000 0.0000
vn 1.0000 -0.0000 0.0000
vn 1.0000 -0.0000 0.0000
vn 1.0000 -0.0000 0.0000
vn -1.0000 0.0000 -0.0000
vn -1.0000 0.0000 -0.0000
vn -1.0000 0.0000 -0.0000
vn -1.0000 0.0000 -0.0000
vn -1.0000 0.0000 -0.0000
vn -1.0000 0.0000 -0.0000
vn -1.0000 0.0000 -0.0000
vn -1.0000 0.0000 -0.0000
vn -1.0000 0.0000 -0.0000
vn -1.0000 0.0000 -0.0000
vn -1.0000 0.0000 -0.0000
vn -1.0000 0.0000 -0.0000
vn -1.0000 0.0000 -0.0000
vn -1.0000 0.0000 -0.0000
vn -1.0000 0.0000 -0.0000
vn -1.0000 0.0000 -0.0000
vn 1.0000 -0.0000 0.0000
vn 1.0000 -0.0000 0.0000
vn 1.0000 -0.0000 0.0000
vn 1.0000 -0.0000 0.0000
vn 1.0000 -0.0000 0.0000
vn 1.0000 -0.0000 0.0000
vn 1.0000 -0.0000 0.0000
vn 1.0000 -0.0000 0.0000
# 136 vertex normals

vt 0.7387 0.3454 0.5224
vt 0.7387 0.2317 0.5224
vt 0.9820 0.2317 0.5224
vt 0.9820 0.3454 0.5224
vt 0.9659 0.0382 0.4776
vt 0.9844 0.0382 0.4776
vt 0.9843 0.0657 0.5025
vt 0.9659 0.0657 0.5025
vt 0.9844 0.0657 0.4776
vt 0.9758 0.0657 0.4776
vt 0.9758 0.0383 0.5025
vt 0.9844 0.0382 0.5025
vt 0.6262 0.0657 0.4776
vt 0.6262 0.0383 0.5025
vt 0.6177 0.0657 0.4776
vt 0.6177 0.0382 0.5025
vt 0.9659 0.0657 0.4776
vt 0.9659 0.0383 0.5025
vt 0.9843 0.0382 0.5025
vt 0.6362 0.0657 0.4776
vt 0.6362 0.0383 0.5025
vt 0.6177 0.0383 0.4776
vt 0.6262 0.0382 0.4776
vt 0.6262 0.0657 0.5025
vt 0.6177 0.0657 0.5025
vt 0.9758 0.0382 0.4776
vt 0.9758 0.0657 0.5025
vt 0.9844 0.0383 0.4776
vt 0.9844 0.0657 0.5025
vt 0.6177 0.0382 0.4776
vt 0.6362 0.0382 0.4776
vt 0.6362 0.0657 0.5025
vt 0.6440 0.0991 0.5025
vt 0.6299 0.0991 0.5025
vt 0.6299 0.0714 0.5224
vt 0.6440 0.0714 0.5224
vt 0.6299 0.0715 0.5025
vt 0.6364 0.0715 0.5025
vt 0.6364 0.0991 0.5224
vt 0.6299 0.0991 0.5224
vt 0.9797 0.0715 0.5025
vt 0.9797 0.0991 0.5224
vt 0.9862 0.0715 0.5025
vt 0.9862 0.0991 0.5224
vt 0.6299 0.0714 0.5025
vt 0.6440 0.0714 0.5025
vt 0.6440 0.0991 0.5224
vt 0.9722 0.0714 0.5025
vt 0.9722 0.0991 0.5224
vt 0.9863 0.0714 0.5025
vt 0.9863 0.0991 0.5224
vt 0.9862 0.0991 0.5025
vt 0.9797 0.0991 0.5025
vt 0.9797 0.0715 0.5224
vt 0.9862 0.0715 0.5224
vt 0.6364 0.0991 0.5025
vt 0.6364 0.0715 0.5224
vt 0.6299 0.0715 0.5224
vt 0.9863 0.0991 0.5025
vt 0.9722 0.0991 0.5025
vt 0.9722 0.0714 0.5224
vt 0.9863 0.0714 0.5224
vt 0.9853 0.1126 0.4776
vt 0.9853 0.2192 0.4776
vt 0.9830 0.2247 0.4776
vt 0.9830 0.1071 0.4776
vt 0.7329 0.2270 0.4776
vt 0.7274 0.2247 0.4776
vt 0.7274 0.1071 0.4776
vt 0.7329 0.1048 0.4776
vt 0.7252 0.2192 0.4776
vt 0.7252 0.1126 0.4776
vt 0.9853 0.2330 0.5224
vt 0.9853 0.3441 0.5224
vt 0.9866 0.2363 0.5224
vt 0.9866 0.3408 0.5224
vt 0.7354 0.2330 0.5224
vt 0.7354 0.3441 0.5224
vt 0.7341 0.3408 0.5224
vt 0.7341 0.2363 0.5224
vt 0.9775 0.2270 0.4776
vt 0.9775 0.1048 0.4776
# 82 texture coords

o DoorSimpleR
g DoorSimpleR
s off
f 29/57/105 30/58/106 31/59/107 32/60/108 
f 33/61/109 34/62/110 35/63/111 36/64/112 
f 34/65/113 37/66/114 38/67/115 35/68/116 
f 37/66/117 39/69/118 40/70/119 38/67/120 
f 39/69/121 41/71/122 42/72/123 40/70/124 
f 41/65/125 43/73/126 44/74/127 42/75/128 
f 43/73/129 45/76/130 46/77/131 44/74/132 
f 45/76/133 47/71/134 48/72/135 46/77/136 
f 47/78/137 49/79/138 50/80/139 48/81/140 
f 49/79/141 51/82/142 52/83/143 50/80/144 
f 51/82/145 53/84/146 54/85/147 52/83/148 
f 53/86/149 55/87/150 56/88/151 54/81/152 
f 55/87/153 33/61/154 36/64/155 56/88/156 
f 36/89/157 35/90/158 57/91/159 58/92/160 
f 35/93/161 38/94/162 32/95/163 57/96/164 
f 38/94/165 40/97/166 29/98/167 32/95/168 
f 40/97/169 42/99/170 59/100/171 29/98/172 
f 42/101/173 44/102/174 60/103/175 59/96/176 
f 44/102/177 46/104/178 61/105/179 60/103/180 
f 46/104/181 48/106/182 62/107/183 61/105/184 
f 48/108/185 50/109/186 30/110/187 62/111/188 
f 50/109/189 52/112/190 31/113/191 30/110/192 
f 52/112/193 54/90/194 63/114/195 31/113/196 
f 54/115/197 56/116/198 64/117/199 63/118/200 
f 56/116/201 36/89/202 58/92/203 64/117/204 
f 33/119/205 55/120/206 53/121/207 34/122/208 
f 49/123/209 47/124/210 41/125/211 39/126/212 
f 41/125/213 47/124/214 45/127/215 43/128/216 
s 1
f 31/59/217 63/129/218 57/130/219 32/60/220 
s 2
f 57/130/221 63/129/222 64/131/223 58/132/224 
s 1
f 62/133/225 30/58/226 29/57/227 59/134/228 
s 2
f 62/133/229 59/134/230 60/135/231 61/136/232 
s 1
f 53/121/233 51/137/234 37/138/235 34/122/236 
s 2
f 37/138/237 51/137/238 49/123/239 39/126/240 
# 34 polygons

#
# object DoorSimpleL
#

v  -3.3489 -1.1163 34.8551
v  -3.3489 -1.1163 -34.8551
v  -3.3489 -33.9204 -34.8552
v  -3.3489 -33.9204 34.8552
v  0.0000 -2.2326 -37.3100
v  -1.8605 -2.2326 -37.3100
v  -1.8605 -0.6543 -36.6557
v  0.0000 -0.6543 -36.6557
v  -1.8605 -0.0000 -35.0774
v  0.0000 -0.0000 -35.0774
v  -1.8605 -0.0000 35.0774
v  -0.0000 -0.0000 35.0774
v  -1.8605 -0.6543 36.6556
v  -0.0000 -0.6543 36.6556
v  -1.8605 -2.2326 37.3100
v  -0.0000 -2.2326 37.3100
v  -1.8605 -32.8041 37.3100
v  -0.0000 -32.8041 37.3100
v  -1.8605 -34.3823 36.6557
v  -0.0000 -34.3823 36.6557
v  -1.8605 -35.0367 35.0774
v  -0.0000 -35.0367 35.0774
v  -1.8605 -35.0367 -35.0774
v  0.0000 -35.0367 -35.0774
v  -1.8605 -34.3823 -36.6557
v  0.0000 -34.3823 -36.6557
v  -1.8605 -32.8041 -37.3100
v  0.0000 -32.8041 -37.3100
v  -3.3489 -2.4548 -36.1937
v  -3.3489 -1.5086 -35.8014
v  -3.3489 -1.5086 35.8014
v  -3.3489 -2.4548 36.1937
v  -3.3489 -32.5818 36.1937
v  -3.3489 -33.5281 35.8014
v  -3.3489 -33.5281 -35.8014
v  -3.3489 -32.5818 -36.1937
# 36 vertices

vn -0.8743 0.4760 0.0948
vn -0.8743 0.4760 -0.0948
vn -0.8743 -0.4760 -0.0948
vn -0.8743 -0.4760 0.0948
vn 0.6657 0.1457 -0.7319
vn -0.3092 0.1857 -0.9327
vn -0.3111 0.6720 -0.6720
vn 0.6303 0.5490 -0.5490
vn 0.6303 0.5490 -0.5490
vn -0.3111 0.6720 -0.6720
vn -0.3092 0.9327 -0.1857
vn 0.6657 0.7319 -0.1457
vn 0.6657 0.7319 -0.1457
vn -0.3092 0.9327 -0.1857
vn -0.3092 0.9327 0.1857
vn 0.6657 0.7319 0.1457
vn 0.6657 0.7319 0.1457
vn -0.3092 0.9327 0.1857
vn -0.3111 0.6720 0.6720
vn 0.6303 0.5490 0.5490
vn 0.6303 0.5490 0.5490
vn -0.3111 0.6720 0.6720
vn -0.3092 0.1857 0.9327
vn 0.6656 0.1457 0.7319
vn 0.6656 0.1457 0.7319
vn -0.3092 0.1857 0.9327
vn -0.3092 -0.1857 0.9327
vn 0.6656 -0.1457 0.7319
vn 0.6656 -0.1457 0.7319
vn -0.3092 -0.1857 0.9327
vn -0.3111 -0.6720 0.6720
vn 0.6304 -0.5490 0.5489
vn 0.6304 -0.5490 0.5489
vn -0.3111 -0.6720 0.6720
vn -0.3092 -0.9327 0.1857
vn 0.6657 -0.7319 0.1457
vn 0.6657 -0.7319 0.1457
vn -0.3092 -0.9327 0.1857
vn -0.3092 -0.9327 -0.1857
vn 0.6657 -0.7319 -0.1457
vn 0.6657 -0.7319 -0.1457
vn -0.3092 -0.9327 -0.1857
vn -0.3112 -0.6720 -0.6720
vn 0.6303 -0.5490 -0.5490
vn 0.6303 -0.5490 -0.5490
vn -0.3112 -0.6720 -0.6720
vn -0.3092 -0.1857 -0.9327
vn 0.6657 -0.1457 -0.7319
vn 0.6657 -0.1457 -0.7319
vn -0.3092 -0.1857 -0.9327
vn -0.3092 0.1857 -0.9327
vn 0.6657 0.1457 -0.7319
vn -0.3092 0.1857 -0.9327
vn -0.8743 0.0948 -0.4760
vn -0.8607 0.3600 -0.3600
vn -0.3111 0.6720 -0.6720
vn -0.3111 0.6720 -0.6720
vn -0.8607 0.3600 -0.3600
vn -0.8743 0.4760 -0.0948
vn -0.3092 0.9327 -0.1857
vn -0.3092 0.9327 -0.1857
vn -0.8743 0.4760 -0.0948
vn -0.8743 0.4760 0.0948
vn -0.3092 0.9327 0.1857
vn -0.3092 0.9327 0.1857
vn -0.8743 0.4760 0.0948
vn -0.8607 0.3600 0.3600
vn -0.3111 0.6720 0.6720
vn -0.3111 0.6720 0.6720
vn -0.8607 0.3600 0.3600
vn -0.8743 0.0948 0.4760
vn -0.3092 0.1857 0.9327
vn -0.3092 0.1857 0.9327
vn -0.8743 0.0948 0.4760
vn -0.8743 -0.0948 0.4760
vn -0.3092 -0.1857 0.9327
vn -0.3092 -0.1857 0.9327
vn -0.8743 -0.0948 0.4760
vn -0.8607 -0.3600 0.3600
vn -0.3111 -0.6720 0.6720
vn -0.3111 -0.6720 0.6720
vn -0.8607 -0.3600 0.3600
vn -0.8743 -0.4760 0.0948
vn -0.3092 -0.9327 0.1857
vn -0.3092 -0.9327 0.1857
vn -0.8743 -0.4760 0.0948
vn -0.8743 -0.4760 -0.0948
vn -0.3092 -0.9327 -0.1857
vn -0.3092 -0.9327 -0.1857
vn -0.8743 -0.4760 -0.0948
vn -0.8607 -0.3600 -0.3600
vn -0.3112 -0.6720 -0.6720
vn -0.3112 -0.6720 -0.6720
vn -0.8607 -0.3600 -0.3600
vn -0.8743 -0.0948 -0.4760
vn -0.3092 -0.1857 -0.9327
vn -0.3092 -0.1857 -0.9327
vn -0.8743 -0.0948 -0.4760
vn -0.8743 0.0948 -0.4760
vn -0.3092 0.1857 -0.9327
vn 0.6657 0.1457 -0.7319
vn 0.6303 0.5490 -0.5490
vn 0.6303 -0.5490 -0.5490
vn 0.6657 -0.1457 -0.7319
vn 0.6657 -0.7319 0.1457
vn 0.6657 0.7319 0.1457
vn 0.6303 0.5490 0.5490
vn 0.6304 -0.5490 0.5489
vn 0.6303 0.5490 0.5490
vn 0.6656 0.1457 0.7319
vn 0.6656 -0.1457 0.7319
vn 0.6304 -0.5490 0.5489
vn -0.8743 -0.4760 -0.0948
vn -0.8743 0.4760 -0.0948
vn -0.8607 0.3600 -0.3600
vn -0.8607 -0.3600 -0.3600
vn -0.8607 0.3600 -0.3600
vn -0.8743 0.0948 -0.4760
vn -0.8743 -0.0948 -0.4760
vn -0.8607 -0.3600 -0.3600
vn -0.8607 -0.3600 0.3600
vn -0.8607 0.3600 0.3600
vn -0.8743 0.4760 0.0948
vn -0.8743 -0.4760 0.0948
vn -0.8607 -0.3600 0.3600
vn -0.8743 -0.0948 0.4760
vn -0.8743 0.0948 0.4760
vn -0.8607 0.3600 0.3600
vn 0.6303 -0.5490 -0.5490
vn 0.6303 0.5490 -0.5490
vn 0.6657 0.7319 -0.1457
vn 0.6657 -0.7319 -0.1457
vn 0.6657 0.7319 -0.1457
vn 0.6657 0.7319 0.1457
vn 0.6657 -0.7319 0.1457
vn 0.6657 -0.7319 -0.1457
# 136 vertex normals

vt 0.7387 0.3454 0.5224
vt 0.9820 0.3454 0.5224
vt 0.9820 0.2317 0.5224
vt 0.7387 0.2317 0.5224
vt 0.9659 0.0382 0.4776
vt 0.9659 0.0657 0.5025
vt 0.9843 0.0657 0.5025
vt 0.9844 0.0382 0.4776
vt 0.9844 0.0657 0.4776
vt 0.9844 0.0382 0.5025
vt 0.9758 0.0383 0.5025
vt 0.9758 0.0657 0.4776
vt 0.6262 0.0383 0.5025
vt 0.6262 0.0657 0.4776
vt 0.6177 0.0382 0.5025
vt 0.6177 0.0657 0.4776
vt 0.9843 0.0382 0.5025
vt 0.9659 0.0383 0.5025
vt 0.9659 0.0657 0.4776
vt 0.6362 0.0383 0.5025
vt 0.6362 0.0657 0.4776
vt 0.6177 0.0383 0.4776
vt 0.6177 0.0657 0.5025
vt 0.6262 0.0657 0.5025
vt 0.6262 0.0382 0.4776
vt 0.9758 0.0657 0.5025
vt 0.9758 0.0382 0.4776
vt 0.9844 0.0657 0.5025
vt 0.9844 0.0383 0.4776
vt 0.6177 0.0382 0.4776
vt 0.6362 0.0657 0.5025
vt 0.6362 0.0382 0.4776
vt 0.6440 0.0991 0.5025
vt 0.6440 0.0714 0.5224
vt 0.6299 0.0714 0.5224
vt 0.6299 0.0991 0.5025
vt 0.6299 0.0715 0.5025
vt 0.6299 0.0991 0.5224
vt 0.6364 0.0991 0.5224
vt 0.6364 0.0715 0.5025
vt 0.9797 0.0991 0.5224
vt 0.9797 0.0715 0.5025
vt 0.9862 0.0991 0.5224
vt 0.9862 0.0715 0.5025
vt 0.6299 0.0714 0.5025
vt 0.6440 0.0991 0.5224
vt 0.6440 0.0714 0.5025
vt 0.9722 0.0991 0.5224
vt 0.9722 0.0714 0.5025
vt 0.9863 0.0991 0.5224
vt 0.9863 0.0714 0.5025
vt 0.9862 0.0991 0.5025
vt 0.9862 0.0715 0.5224
vt 0.9797 0.0715 0.5224
vt 0.9797 0.0991 0.5025
vt 0.6364 0.0715 0.5224
vt 0.6364 0.0991 0.5025
vt 0.6299 0.0715 0.5224
vt 0.9863 0.0991 0.5025
vt 0.9863 0.0714 0.5224
vt 0.9722 0.0714 0.5224
vt 0.9722 0.0991 0.5025
vt 0.9853 0.1126 0.4776
vt 0.9830 0.1071 0.4776
vt 0.9830 0.2247 0.4776
vt 0.9853 0.2192 0.4776
vt 0.7329 0.2270 0.4776
vt 0.7329 0.1048 0.4776
vt 0.7274 0.1071 0.4776
vt 0.7274 0.2247 0.4776
vt 0.7252 0.1126 0.4776
vt 0.7252 0.2192 0.4776
vt 0.9853 0.3441 0.5224
vt 0.9853 0.2330 0.5224
vt 0.9866 0.3408 0.5224
vt 0.9866 0.2363 0.5224
vt 0.7354 0.2330 0.5224
vt 0.7354 0.3441 0.5224
vt 0.7341 0.2363 0.5224
vt 0.7341 0.3408 0.5224
vt 0.9775 0.1048 0.4776
vt 0.9775 0.2270 0.4776
# 82 texture coords

o DoorSimpleL
g DoorSimpleL
s off
f 65/139/241 66/140/242 67/141/243 68/142/244 
f 69/143/245 70/144/246 71/145/247 72/146/248 
f 72/147/249 71/148/250 73/149/251 74/150/252 
f 74/150/253 73/149/254 75/151/255 76/152/256 
f 76/152/257 75/151/258 77/153/259 78/154/260 
f 78/147/261 77/155/262 79/156/263 80/157/264 
f 80/157/265 79/156/266 81/158/267 82/159/268 
f 82/159/269 81/158/270 83/153/271 84/154/272 
f 84/160/273 83/161/274 85/162/275 86/163/276 
f 86/163/277 85/162/278 87/164/279 88/165/280 
f 88/165/281 87/164/282 89/166/283 90/167/284 
f 90/168/285 89/161/286 91/169/287 92/170/288 
f 92/170/289 91/169/290 70/144/291 69/143/292 
f 70/171/293 93/172/294 94/173/295 71/174/296 
f 71/175/297 94/176/298 66/177/299 73/178/300 
f 73/178/301 66/177/302 65/179/303 75/180/304 
f 75/180/305 65/179/306 95/181/307 77/182/308 
f 77/183/309 95/176/310 96/184/311 79/185/312 
f 79/185/313 96/184/314 97/186/315 81/187/316 
f 81/187/317 97/186/318 98/188/319 83/189/320 
f 83/190/321 98/191/322 68/192/323 85/193/324 
f 85/193/325 68/192/326 67/194/327 87/195/328 
f 87/195/329 67/194/330 99/196/331 89/174/332 
f 89/197/333 99/198/334 100/199/335 91/200/336 
f 91/200/337 100/199/338 93/172/339 70/171/340 
f 69/201/341 72/202/342 90/203/343 92/204/344 
f 86/205/345 76/206/346 78/207/347 84/208/348 
f 78/207/349 80/209/350 82/210/351 84/208/352 
s 1
f 67/141/353 66/140/354 94/211/355 99/212/356 
s 2
f 94/211/357 93/213/358 100/214/359 99/212/360 
s 1
f 98/215/361 95/216/362 65/139/363 68/142/364 
s 2
f 98/215/365 97/217/366 96/218/367 95/216/368 
s 1
f 90/203/369 72/202/370 74/219/371 88/220/372 
s 2
f 74/219/373 76/206/374 86/205/375 88/220/376 
# 34 polygons

