# 3ds Max Wavefront OBJ Exporter v0.97b - (c)2007 guruware
# File Created: 21.01.2025 11:14:16

mtllib chairCollider.mtl

#
# object Box001
#

v  -2.6228 21.2588 0.0152
v  2.6228 21.2588 0.0152
v  2.6228 -21.2588 0.0152
v  -2.6228 -21.2588 0.0152
v  -9.5305 -17.4995 30.7358
v  9.5305 -17.4995 30.7358
v  7.2114 -7.5436 27.8020
v  -9.8844 -7.5436 27.8020
v  21.2789 -2.7429 -0.0152
v  21.2789 2.7429 -0.0152
v  16.2484 11.9648 26.3486
v  16.2484 -11.9648 26.3486
v  -9.5305 17.4995 30.7358
v  9.5305 17.4995 30.7358
v  -21.2789 2.7429 -0.0152
v  -21.2789 -2.7429 -0.0152
v  -16.2484 -5.7453 26.1280
v  -16.2484 5.7600 26.1280
v  -22.5865 -9.1646 62.8515
v  -15.2207 -13.6777 61.6465
v  -19.5574 -8.6190 65.5242
v  7.2114 7.5237 27.8020
v  -9.8844 7.5237 27.8020
v  -19.5574 8.5931 65.5242
v  -15.2207 13.6772 61.6465
v  -22.5865 9.1855 62.8515
# 26 vertices

vn -0.2564 0.7465 -0.6141
vn 0.2564 0.7465 -0.6141
vn 0.2564 -0.7465 -0.6141
vn -0.2564 -0.7465 -0.6141
vn -0.3170 -0.7798 0.5397
vn 0.3735 -0.5407 0.7537
vn 0.0993 0.1333 0.9861
vn 0.5894 0.1215 0.7987
vn -0.2564 -0.7465 -0.6141
vn 0.2564 -0.7465 -0.6141
vn 0.3735 -0.5407 0.7537
vn -0.3170 -0.7798 0.5397
vn 0.7628 -0.2397 -0.6005
vn 0.7628 0.2397 -0.6005
vn 0.7779 0.3969 0.4872
vn 0.7778 -0.3969 0.4873
vn 0.2564 0.7465 -0.6141
vn -0.2564 0.7465 -0.6141
vn -0.3167 0.7801 0.5395
vn 0.3735 0.5409 0.7536
vn -0.7660 0.2827 -0.5773
vn -0.7660 -0.2828 -0.5772
vn -0.9640 -0.2657 -0.0005
vn -0.9639 0.2661 -0.0006
vn 0.2564 0.7465 -0.6141
vn 0.7628 0.2397 -0.6005
vn 0.7628 -0.2397 -0.6005
vn 0.2564 -0.7465 -0.6141
vn -0.2564 -0.7465 -0.6141
vn -0.7660 -0.2828 -0.5772
vn -0.7660 0.2827 -0.5773
vn -0.2564 0.7465 -0.6141
vn 0.3735 -0.5407 0.7537
vn 0.7778 -0.3969 0.4873
vn 0.0993 0.1333 0.9861
vn -0.8410 -0.4572 0.2892
vn 0.6491 -0.6013 0.4660
vn 0.1892 -0.2361 0.9531
vn 0.2564 -0.7465 -0.6141
vn 0.7628 -0.2397 -0.6005
vn 0.7778 -0.3969 0.4873
vn 0.3735 -0.5407 0.7537
vn -0.3170 -0.7798 0.5397
vn -0.9640 -0.2657 -0.0005
vn -0.7660 -0.2828 -0.5772
vn -0.2564 -0.7465 -0.6141
vn -0.2564 0.7465 -0.6141
vn -0.7660 0.2827 -0.5773
vn -0.9639 0.2661 -0.0006
vn -0.3167 0.7801 0.5395
vn 0.3735 0.5409 0.7536
vn 0.7779 0.3969 0.4872
vn 0.7628 0.2397 -0.6005
vn 0.2564 0.7465 -0.6141
vn 0.7779 0.3969 0.4872
vn 0.3735 0.5409 0.7536
vn 0.0994 -0.1330 0.9861
vn 0.0994 -0.1330 0.9861
vn 0.3735 0.5409 0.7536
vn -0.3167 0.7801 0.5395
vn 0.5895 -0.1212 0.7987
vn 0.1903 0.2318 0.9540
vn 0.6488 0.6014 0.4663
vn -0.8397 0.4589 0.2904
vn -0.8397 0.4589 0.2904
vn -0.8410 -0.4572 0.2892
vn 0.1892 -0.2361 0.9531
vn 0.1903 0.2318 0.9540
vn 0.5895 -0.1212 0.7987
vn 0.5894 0.1215 0.7987
vn 0.0993 0.1333 0.9861
vn 0.0994 -0.1330 0.9861
vn 0.0994 -0.1330 0.9861
vn 0.0993 0.1333 0.9861
vn 0.7778 -0.3969 0.4873
vn 0.7779 0.3969 0.4872
vn -0.9640 -0.2657 -0.0005
vn -0.3170 -0.7798 0.5397
vn 0.6491 -0.6013 0.4660
vn -0.8410 -0.4572 0.2892
vn -0.3170 -0.7798 0.5397
vn 0.5894 0.1215 0.7987
vn 0.1892 -0.2361 0.9531
vn 0.6491 -0.6013 0.4660
vn 0.5894 0.1215 0.7987
vn 0.5895 -0.1212 0.7987
vn 0.1903 0.2318 0.9540
vn 0.1892 -0.2361 0.9531
vn 0.5895 -0.1212 0.7987
vn -0.3167 0.7801 0.5395
vn 0.6488 0.6014 0.4663
vn 0.1903 0.2318 0.9540
vn -0.3167 0.7801 0.5395
vn -0.9639 0.2661 -0.0006
vn -0.8397 0.4589 0.2904
vn 0.6488 0.6014 0.4663
vn -0.9639 0.2661 -0.0006
vn -0.9640 -0.2657 -0.0005
vn -0.8410 -0.4572 0.2892
vn -0.8397 0.4589 0.2904
# 100 vertex normals

vt 0.6667 1.0000 0.0000
vt 0.3333 1.0000 0.0000
vt 0.3333 0.0000 0.0000
vt 0.6667 0.0000 0.0000
vt 0.6667 0.4353 0.0000
vt 0.3333 0.4353 0.0000
vt 0.0000 0.0000 0.0000
vt 1.0000 0.0000 0.0000
vt 1.0000 1.0000 0.0000
vt 0.0000 1.0000 0.0000
vt 0.6667 0.5644 0.0000
vt 0.3333 0.5644 0.0000
# 12 texture coords

o Box001
g Box001
usemtl wire_214229166
s 1
f 1/1/1 2/2/2 3/3/3 4/4/4 
f 5/3/5 6/4/6 7/5/7 8/6/8 
f 4/3/9 3/4/10 6/1/11 5/2/12 
f 9/7/13 10/8/14 11/9/15 12/10/16 
f 2/3/17 1/4/18 13/1/19 14/2/20 
f 15/7/21 16/8/22 17/9/23 18/10/24 
f 2/2/25 10/10/26 9/7/27 3/3/28 
f 4/4/29 16/8/30 15/9/31 1/1/32 
f 6/4/33 12/8/34 7/5/35 
f 19/7/36 20/3/37 21/6/38 
f 3/4/39 9/8/40 12/9/41 6/1/42 
f 5/2/43 17/10/44 16/7/45 4/3/46 
f 1/4/47 15/8/48 18/9/49 13/1/50 
f 14/2/51 11/10/52 10/7/53 2/3/54 
f 11/9/55 14/1/56 22/11/57 
f 22/11/58 14/1/59 13/2/60 23/12/61 
f 24/12/62 25/2/63 26/10/64 
f 26/10/65 19/7/66 21/6/67 24/12/68 
f 23/12/69 8/6/70 7/5/71 22/11/72 
f 22/11/73 7/5/74 12/8/75 11/9/76 
f 17/7/77 5/3/78 20/3/79 19/7/80 
f 5/3/81 8/6/82 21/6/83 20/3/84 
f 8/6/85 23/12/86 24/12/87 21/6/88 
f 23/12/89 13/2/90 25/2/91 24/12/92 
f 13/2/93 18/10/94 26/10/95 25/2/96 
f 18/10/97 17/7/98 19/7/99 26/10/100 
# 22 polygons - 4 triangles

